# FamiTracker text export 0.4.2

# Song information
TITLE           "HonkeyPong Soundtrack"
AUTHOR          "HonkeyKong, Shiru"
COPYRIGHT       "2011-2015"

# Song comment
COMMENT ""

# Global settings
MACHINE         0
FRAMERATE       0
EXPANSION       0
VIBRATO         1
SPLIT           32

# Macros
MACRO       0   0  -1  -1   0 : 15
MACRO       0   1  -1  -1   0 : 0 15 6 6 0
MACRO       0   2  -1  -1   0 : 0 15
MACRO       0   3  -1  -1   0 : 0 15 11 11 8 8 5 5 3 3 0
MACRO       0   4  -1  -1   0 : 0 13 13 13 6 0
MACRO       0   5  -1  -1   0 : 0 15 15 11 11 11 7 7 7 3 3 3 0
MACRO       0   6  -1  -1   0 : 0 14 14 14 13 13 13 13 12 12 12 12 11 11 11 11 10 10 10 10 9 9 9 9 8 8 8 8 7 7 7 7 6 6 6 6 5 5 5 5 4 4 4 4 3 3 3 3 2 2 2 2 1 1 1 1 0
MACRO       0   7  -1  -1   0 : 15
MACRO       0   8  -1  -1   0 : 5 6 7 7 7 7 7 7 6 6 6 6 6 6 6 6 6 6 6 6 5 5 5 5 5 5 5 5 5 5 5 5 5 5 5 5 4 4 4 4 4 4 4 4 4 4 4 4 4 4 4 4 4 4 3 3 3 3 3 3 3 3 3 3 3 3 3 3 3 3 3 3 3 3 3 2 2 2 2 2 2 2 2 2 2 2 2 2 2 2 2 2 2 2 2 2 2 1 1 1 1 1 1 1 1 1 1 1 1 1 1 1 1 1 1 1 1 1 1 1 1 1 1 1 1 1 1 0
MACRO       0   9  -1  -1   0 : 5 5 4 4 3 3 2 2 1 1 0
MACRO       0  10  -1  -1   0 : 8 4 3 2 2 1 1 0
MACRO       0  11  -1  -1   0 : 3 3 3 2 2 2 1 1 1 0
MACRO       0  12  -1  -1   0 : 10 8 6 5 4 3 3 2 2 1 1 1 1 0
MACRO       0  13  -1  -1   0 : 6 6 3 3 3 3 2 2 2 2 1 1 0
MACRO       0  14  -1  -1   0 : 1 2 3 3 3 3 2 2 2 1 1 1 0 0
MACRO       0  15  -1  -1   0 : 4 4 4 4 3 3 3 3 2 2 2 2 2 2 2 2 2 2 2 2 2 2 2 2 2 2 2 2 2 2 2 2 2 2 2 2 2 2 2 2 2 2 2 2 2 2 2 2 2 2 2 2 2 2 2 2 2 1 1 1 1 1 1 1 1 1 1 1 1 1 1 1 1 1 1 1 1 1 1 1 1 1 1 1 1 1 1 1 1 1 1 1 1 1 1 1 1 1 1 1 1 1 1 1 1 1 1 1 1 1 1 1 1 1 1 1 1 1 1 1 1 1 1 1 1 1 1 0
MACRO       0  16  -1  -1   0 : 8 5 5 4 4 3
MACRO       0  17  -1  -1   0 : 3 3 3 2 2 2 1 1 1 0
MACRO       0  18  -1  -1   0 : 15
MACRO       0  19  -1  -1   0 : 15 15 0
MACRO       0  20  -1  -1   0 : 9 9 9 9 9 9 9 8 8 8 8 8 8 8 8 8 7 7 7 7 7 7 7 7 7 6 6 6 6 6 6 6 6 6 6 5 5 5 5 5 5 5 5 5 5 5 4 4 4 4 4 4 4 4 4 4 4 4 4 4 4 3 3 3 3 3 3 3 3 3 3 3 3 3 3 3 3 3 3 2 2 2 2 2 2 2 2 2 2 2 2 2 2 2 2 2 2 2 2 2 2 2 1 1 1 1 1 1 1 1 1 1 1 1 1 1 1 1 1 1 1 1 1 1 1 1 1 0
MACRO       0  21  -1  -1   0 : 5 5 5 5 4 4 4 4 4 4 4 3 3 3 3 3 3 3 3 3 3 2 2 2 2 2 2 2 2 2 2 2 2 2 2 2 2 2 2 2 2 2 2 2 2 2 2 2 2 2 2 2 2 2 2 2 2 3 3 3 3 3 3 3 3 3 3 3 4 4 4 4 4 4 4 4 4 4 4 4 4 4 4 4 4 4 3 3 3 3 3 3 3 3 3 3 3 3 3 3 2 2 2 2 2 2 2 2 2 2 2 1 1 1 1 1 1 1 1 1 1 1 1 1 1 1 1 0
MACRO       0  22  -1  -1   0 : 15 15 15 15 0
MACRO       0  23  -1  -1   0 : 1 0 1 1 1 0 1 0 1 0 1 1 1 0 1 1 1 1 0 1 1 1 1 0 1 1 1 1 1 1 1 1 0 2 1 2 2 2 1 2 2 2 1 2 2 1 2 2 2 2 2 2 1 2 2 2 2 2 2 3 3 3 3 2 3 3 3 3 3 2 3 3 3 3 3 3 3 2 3 3 3 3 3 3 3 3 3 3 2 3 3 3 3 3 3 3 3 3 2 2 2 2 2 1 2 2 2 2 2 2 2 2 2 1 2 2 2 2 2 2 1 2 2 1 1 1 1 1 1 1 1 1 1 1 1 1 1 1 1 1 1 1 0 1 1 1 1 1 0 1 1 0 1 1 0 1 1 0 1 0
MACRO       0  24  -1  -1   0 : 3 3 3 0 1 0 0 0 2 2 2 0 2 0 0 0 2 2 0 0 2 0 0 0 2 2 0 0 2 0
MACRO       0  25  -1  -1   0 : 1 2 3 2 1
MACRO       0  26  -1  -1   0 : 2 2 2 0
MACRO       0  27  -1  -1   0 : 15 15 15 0
MACRO       0  28  -1  -1   0 : 3 4 3 2
MACRO       0  29  -1  -1   0 : 2 2 2 2 1 1 1 1 1 1 1 1 1 1 1 0
MACRO       0  30  -1  -1   0 : 2 2 3 3 3 4 4 4 4 4 4 4 4 4 4 4 4 4 4 4 4 4 4 4 4 4 4 4 4 4 4 4 4 4 4 4 4 4 4 4 4 4 3 4 3 4 3 4 3 4 3 4 3 4 3 4 3 3 3 3 3 3 3 3 3 3 3 3 3 3 3 3 3 3 3 3 3 3 3 3 2 3 2 3 2 3 2 3 2 3 2 3 2 3 2 3 2 3 2 2 2 2 2 2 2 2 2 2 2 2 2 2 2 2 2 2 2 2 2 2 2 1 2 1 2 1 2 1 2 1 2 1 2 1 2 1 2 1 2 1 1 1 1 1 1 1 1 1 1 1 0 1 1 1 1 1 1 1 0 1 1 0 1 1 0 1 0 1 0 1 0 1 0 0 0 1 0 0 0 1 0 0 0 0 1 0
MACRO       0  31  -1  -1   0 : 4 2 1 1 1 1 1 0
MACRO       0  32  -1  -1   0 : 15 15 15 15 15 15 0
MACRO       0  33  -1  -1   0 : 15
MACRO       0  34  -1  -1   0 : 2 3 2 2
MACRO       0  35  -1  -1   0 : 15 15 0
MACRO       0  36  -1  -1   0 : 3 4 5 5 4 3 1 1 1 1 1 1 1 1 1 1 1 1 1 1 0
MACRO       0  37  -1  -1   0 : 1 2 2 1 1 1 1 0
MACRO       0  38  -1  -1   0 : 2 2 2 2 2 2 2 2 2 2 2 2 2 2 2 2 2 2 2 2 2 2 2 2 2 2 2 2 2 2 2 2 2 2 2 2 2 2 2 2 2 2 2 2 2 2 2 2 1 1 1 1 1 1 1 1 1 1 1 1 1 1 1 1 1 1 1 1 1 1 1 1 1 1 1 1 1 1 1 1 1 1 1 1 1 1 1 1 1 1 1 1 1 1 1 1 1 1 1 1 1 1 1 1 1 1 1 1 1 1 1 1 1 1 1 1 1 1 1 1 1 1 1 1 1 1 1 0
MACRO       0  39  -1  -1   0 : 2
MACRO       0  40  -1  -1   0 : 3
MACRO       0  41  -1  -1   0 : 1 1 1 0
MACRO       0  42  -1  -1   0 : 15
MACRO       0  43  -1  -1   0 : 0 15 6 6 0
MACRO       0  44  -1  -1   0 : 0 15
MACRO       0  45  -1  -1   0 : 0 15 11 11 8 8 5 5 3 3 0
MACRO       0  46  -1  -1   0 : 0 13 13 13 6 0
MACRO       0  47  -1  -1   0 : 0 15 15 11 11 11 7 7 7 3 3 3 0
MACRO       0  48  -1  -1   0 : 0 14 14 14 13 13 13 13 12 12 12 12 11 11 11 11 10 10 10 10 9 9 9 9 8 8 8 8 7 7 7 7 6 6 6 6 5 5 5 5 4 4 4 4 3 3 3 3 2 2 2 2 1 1 1 1 0
MACRO       0  49  -1  -1   0 : 15 15 15 15 0
MACRO       0  50  -1  -1   0 : 1 0 1 1 1 0 1 0 1 0 1 1 1 0 1 1 1 1 0 1 1 1 1 0 1 1 1 1 1 1 1 1 0 2 1 2 2 2 1 2 2 2 1 2 2 1 2 2 2 2 2 2 1 2 2 2 2 2 2 3 3 3 3 2 3 3 3 3 3 2 3 3 3 3 3 3 3 2 3 3 3 3 3 3 3 3 3 3 2 3 3 3 3 3 3 3 3 3 2 2 2 2 2 1 2 2 2 2 2 2 2 2 2 1 2 2 2 2 2 2 1 2 2 1 1 1 1 1 1 1 1 1 1 1 1 1 1 1 1 1 1 1 0 1 1 1 1 1 0 1 1 0 1 1 0 1 1 0 1 0
MACRO       0  51  -1  -1   0 : 3 3 3 0 1 0 0 0 2 2 2 0 2 0 0 0 2 2 0 0 2 0 0 0 2 2 0 0 2 0
MACRO       0  52  -1  -1   0 : 1 2 3 2 1
MACRO       0  53  -1  -1   0 : 2 2 2 0
MACRO       0  54  -1  -1   0 : 15 15 15 0
MACRO       0  55  -1  -1   0 : 3 4 3 2
MACRO       0  56  -1  -1   0 : 2 2 2 2 1 1 1 1 1 1 1 1 1 1 1 0
MACRO       0  57  -1  -1   0 : 2 2 3 3 3 4 4 4 4 4 4 4 4 4 4 4 4 4 4 4 4 4 4 4 4 4 4 4 4 4 4 4 4 4 4 4 4 4 4 4 4 4 3 4 3 4 3 4 3 4 3 4 3 4 3 4 3 3 3 3 3 3 3 3 3 3 3 3 3 3 3 3 3 3 3 3 3 3 3 3 2 3 2 3 2 3 2 3 2 3 2 3 2 3 2 3 2 3 2 2 2 2 2 2 2 2 2 2 2 2 2 2 2 2 2 2 2 2 2 2 2 1 2 1 2 1 2 1 2 1 2 1 2 1 2 1 2 1 2 1 1 1 1 1 1 1 1 1 1 1 0 1 1 1 1 1 1 1 0 1 1 0 1 1 0 1 0 1 0 1 0 1 0 0 0 1 0 0 0 1 0 0 0 0 1 0
MACRO       0  58  -1  -1   0 : 4 2 1 1 1 1 1 0
MACRO       0  59  -1  -1   0 : 15 15 15 15 15 15 0
MACRO       0  60  -1  -1   0 : 15
MACRO       0  61  -1  -1   0 : 2 3 2 2
MACRO       0  62  -1  -1   0 : 15 15 0
MACRO       0  63  -1  -1   0 : 3 4 5 5 4 3 1 1 1 1 1 1 1 1 1 1 1 1 1 1 0
MACRO       0  64  -1  -1   0 : 1 2 2 1 1 1 1 0
MACRO       0  65  -1  -1   0 : 2 2 2 2 2 2 2 2 2 2 2 2 2 2 2 2 2 2 2 2 2 2 2 2 2 2 2 2 2 2 2 2 2 2 2 2 2 2 2 2 2 2 2 2 2 2 2 2 1 1 1 1 1 1 1 1 1 1 1 1 1 1 1 1 1 1 1 1 1 1 1 1 1 1 1 1 1 1 1 1 1 1 1 1 1 1 1 1 1 1 1 1 1 1 1 1 1 1 1 1 1 1 1 1 1 1 1 1 1 1 1 1 1 1 1 1 1 1 1 1 1 1 1 1 1 1 1 0
MACRO       0  66  -1  -1   0 : 2
MACRO       0  67  -1  -1   0 : 3
MACRO       0  68  -1  -1   0 : 1 1 1 0
MACRO       0  69  -1  -1   0 : 15
MACRO       0  70  -1  -1   0 : 7 6 6 5 5 4 4 3 3 3 3 3 3 2 2 2 2 2 2 2 2 2 2 2 2 2 2 2 2 1 1 1 1 1 1 1 1 1 1 1 1 0
MACRO       0  71  -1  -1   0 : 10 3 2 1 1 1 1 0
MACRO       0  72  -1  -1   0 : 9 7 6 5 4 4 3 3 2 2 2 2 2 2 2 2 1 1 1 1 1 1 1 0
MACRO       0  73  -1  -1   0 : 4 3 2 2 2 2 2 1 1 1 1 1 1 1 1 0
MACRO       0  74  -1  -1   0 : 0 0 0 0 0
MACRO       0  75  -1  -1   0 : 9 9 8 8 8 7 7 7 7 7 6 6 6 6 6 6 6 5 5 5 5 5 5 5 5 4 4 4 4 4 4 4 4 4 4 3 3 3 3 3 3 3 3 3 3 3 3 3 3 2 2 2 2 2 2 2 2 2 2 2 2 2 2 2 1 1 1 1 1 1 1 1 1 1 1 1 1 1 0
MACRO       0  76  -1  -1   0 : 15 15 0
MACRO       0  77  -1  -1   0 : 3 3 3 4 4 4 2 2 2 2 2 2 2 1 1 1 1 1 1 1 1 1 1 0
MACRO       0  78  -1  -1   0 : 15 15 15 0
MACRO       0  79  -1  -1   0 : 5 5 4 4 3 3 2 2 2 2 1 1 1 1 1 0
MACRO       0  80  -1  -1   0 : 2 2 2 2 2 2 2 1 1 1 1 1 1 1 1 0
MACRO       0  81  -1  -1   0 : 4 4 4 0
MACRO       0  82  -1  -1   0 : 15
MACRO       0  83  -1  -1   0 : 1 1 1 1 1 1 1 1 2 2 2 2 2 2 2 2 3 3 3 3 3 3 3 3 2 2 2 2 2 2 2 2 1 1 1 1 1 1 1 1 0
MACRO       0  84  -1  -1   0 : 4 5 6 6 5 4 3 2 2 2 2 1 1 1 1 0
MACRO       0  85  -1  -1   0 : 15
MACRO       0  86  -1  -1   0 : 7 6 6 5 5 4 4 3 3 3 3 3 3 2 2 2 2 2 2 2 2 2 2 2 2 2 2 2 2 1 1 1 1 1 1 1 1 1 1 1 1 0
MACRO       0  87  -1  -1   0 : 10 3 2 1 1 1 1 0
MACRO       0  88  -1  -1   0 : 9 7 6 5 4 4 3 3 2 2 2 2 2 2 2 2 1 1 1 1 1 1 1 0
MACRO       0  89  -1  -1   0 : 4 3 2 2 2 2 2 1 1 1 1 1 1 1 1 0
MACRO       0  90  -1  -1   0 : 0 0 0 0 0
MACRO       0  91  -1  -1   0 : 9 9 8 8 8 7 7 7 7 7 6 6 6 6 6 6 6 5 5 5 5 5 5 5 5 4 4 4 4 4 4 4 4 4 4 3 3 3 3 3 3 3 3 3 3 3 3 3 3 2 2 2 2 2 2 2 2 2 2 2 2 2 2 2 1 1 1 1 1 1 1 1 1 1 1 1 1 1 0
MACRO       0  92  -1  -1   0 : 15 15 0
MACRO       0  93  -1  -1   0 : 3 3 3 4 4 4 2 2 2 2 2 2 2 1 1 1 1 1 1 1 1 1 1 0
MACRO       0  94  -1  -1   0 : 15 15 15 0
MACRO       0  95  -1  -1   0 : 5 5 4 4 3 3 2 2 2 2 1 1 1 1 1 0
MACRO       0  96  -1  -1   0 : 2 2 2 2 2 2 2 1 1 1 1 1 1 1 1 0
MACRO       0  97  -1  -1   0 : 4 4 4 0
MACRO       0  98  -1  -1   0 : 15
MACRO       0  99  -1  -1   0 : 1 1 1 1 1 1 1 1 2 2 2 2 2 2 2 2 3 3 3 3 3 3 3 3 2 2 2 2 2 2 2 2 1 1 1 1 1 1 1 1 0
MACRO       0 100  -1  -1   0 : 4 5 6 6 5 4 3 2 2 2 2 1 1 1 1 0
MACRO       0 101  -1  -1   0 : 15 15 15 15 0
MACRO       0 102  -1  -1   0 : 1 0 1 1 1 0 1 0 1 0 1 1 1 0 1 1 1 1 0 1 1 1 1 0 1 1 1 1 1 1 1 1 0 2 1 2 2 2 1 2 2 2 1 2 2 1 2 2 2 2 2 2 1 2 2 2 2 2 2 3 3 3 3 2 3 3 3 3 3 2 3 3 3 3 3 3 3 2 3 3 3 3 3 3 3 3 3 3 2 3 3 3 3 3 3 3 3 3 2 2 2 2 2 1 2 2 2 2 2 2 2 2 2 1 2 2 2 2 2 2 1 2 2 1 1 1 1 1 1 1 1 1 1 1 1 1 1 1 1 1 1 1 0 1 1 1 1 1 0 1 1 0 1 1 0 1 1 0 1 0
MACRO       0 103  -1  -1   0 : 3 3 3 0 1 0 0 0 2 2 2 0 2 0 0 0 2 2 0 0 2 0 0 0 2 2 0 0 2 0
MACRO       0 104  -1  -1   0 : 1 2 3 2 1
MACRO       0 105  -1  -1   0 : 2 2 2 0
MACRO       0 106  -1  -1   0 : 15 15 15 0
MACRO       0 107  -1  -1   0 : 3 4 3 2
MACRO       0 108  -1  -1   0 : 2 2 2 2 1 1 1 1 1 1 1 1 1 1 1 0
MACRO       0 109  -1  -1   0 : 2 2 3 3 3 4 4 4 4 4 4 4 4 4 4 4 4 4 4 4 4 4 4 4 4 4 4 4 4 4 4 4 4 4 4 4 4 4 4 4 4 4 3 4 3 4 3 4 3 4 3 4 3 4 3 4 3 3 3 3 3 3 3 3 3 3 3 3 3 3 3 3 3 3 3 3 3 3 3 3 2 3 2 3 2 3 2 3 2 3 2 3 2 3 2 3 2 3 2 2 2 2 2 2 2 2 2 2 2 2 2 2 2 2 2 2 2 2 2 2 2 1 2 1 2 1 2 1 2 1 2 1 2 1 2 1 2 1 2 1 1 1 1 1 1 1 1 1 1 1 0 1 1 1 1 1 1 1 0 1 1 0 1 1 0 1 0 1 0 1 0 1 0 0 0 1 0 0 0 1 0 0 0 0 1 0
MACRO       0 110  -1  -1   0 : 4 2 1 1 1 1 1 0
MACRO       0 111  -1  -1   0 : 15 15 15 15 15 15 0
MACRO       0 112  -1  -1   0 : 15
MACRO       0 113  -1  -1   0 : 2 3 2 2
MACRO       0 114  -1  -1   0 : 15 15 0
MACRO       0 115  -1  -1   0 : 3 4 5 5 4 3 1 1 1 1 1 1 1 1 1 1 1 1 1 1 0
MACRO       0 116  -1  -1   0 : 1 2 2 1 1 1 1 0
MACRO       0 117  -1  -1   0 : 2 2 2 2 2 2 2 2 2 2 2 2 2 2 2 2 2 2 2 2 2 2 2 2 2 2 2 2 2 2 2 2 2 2 2 2 2 2 2 2 2 2 2 2 2 2 2 2 1 1 1 1 1 1 1 1 1 1 1 1 1 1 1 1 1 1 1 1 1 1 1 1 1 1 1 1 1 1 1 1 1 1 1 1 1 1 1 1 1 1 1 1 1 1 1 1 1 1 1 1 1 1 1 1 1 1 1 1 1 1 1 1 1 1 1 1 1 1 1 1 1 1 1 1 1 1 1 0
MACRO       0 118  -1  -1   0 : 2
MACRO       0 119  -1  -1   0 : 3
MACRO       0 120  -1  -1   0 : 1 1 1 0
MACRO       1   0  -1  -1   0 : 0 1 2 3 4 5 6
MACRO       1   1  -1  -1   0 : 0 0 -4 10 6
MACRO       1   2   0  -1   0 : 0 0 3 3 7 7
MACRO       1   3   0  -1   0 : 0 0 4 4 7 7
MACRO       1   4  -1  -1   0 : 12 0
MACRO       1   5  -1  -1   0 : 0 -3 -6
MACRO       1   6  -1  -1   0 : -3 -2 -1 0
MACRO       1   7  -1  -1   0 : -4 -4 -3 -3 -2 -2 -1 -1 0
MACRO       1   8  -1  -1   0 : 12 0
MACRO       1   9  -1  -1   0 : 0 1 2 3 4 5 6
MACRO       1  10  -1  -1   0 : 0 0 -4 10 6
MACRO       1  11  -1  -1   0 : 0 -3 -6
MACRO       1  12  -1  -1   0 : -3 -2 -1 0
MACRO       1  13  -1  -1   0 : -4 -4 -3 -3 -2 -2 -1 -1 0
MACRO       1  14  -1  -1   0 : 12 0
MACRO       1  15  -1  -1   0 : 6 0
MACRO       1  16  -1  -1   0 : 12 14 0
MACRO       1  17  -1  -1   0 : 18 12 0
MACRO       1  18  -1  -1   0 : 6 0
MACRO       1  19  -1  -1   0 : 12 14 0
MACRO       1  20  -1  -1   0 : 18 12 0
MACRO       1  21  -1  -1   0 : 0 -3 -6
MACRO       1  22  -1  -1   0 : -3 -2 -1 0
MACRO       1  23  -1  -1   0 : -4 -4 -3 -3 -2 -2 -1 -1 0
MACRO       1  24  -1  -1   0 : 12 0
MACRO       2   0  16  -1   0 : 0 0 0 0 0 0 0 0 0 0 0 0 0 0 0 0 1 0 1 0 -1 0 -1 0
MACRO       2   1  -1  -1   0 : 8 2 2 2
MACRO       2   2  -1  -1   0 : 10
MACRO       2   3   0  -1   0 : 1 0 1 0 1 0 1 0 1 0 1 0 -1 0 -1 0 -1 0 -1 0 -1 0 -1 0
MACRO       2   4  -1  -1   0 : 2
MACRO       2   5  18  -1   0 : 0 0 0 0 0 0 0 0 0 0 0 0 0 0 0 0 0 0 1 0 0 0 1 0 0 0 -1 0 0 0 -1 0 0 0
MACRO       2   6   0  -1   0 : 1 1 1 -1 -1 -1
MACRO       2   7  -1  -1   0 : -20 -10 -5 0
MACRO       2   8  -1  -1   0 : 10
MACRO       2   9   0  -1   0 : 1 0 1 0 1 0 1 0 1 0 1 0 -1 0 -1 0 -1 0 -1 0 -1 0 -1 0
MACRO       2  10  -1  -1   0 : 2
MACRO       2  11  18  -1   0 : 0 0 0 0 0 0 0 0 0 0 0 0 0 0 0 0 0 0 1 0 0 0 1 0 0 0 -1 0 0 0 -1 0 0 0
MACRO       2  12   0  -1   0 : 1 1 1 -1 -1 -1
MACRO       2  13  -1  -1   0 : -20 -10 -5 0
MACRO       2  14  11  -1   0 : 1 0 0 0 0 0 0 0 0 0 0 1 0 1 0 1 0 -1 0 -1 0 -1 0
MACRO       2  15  16  -1   0 : 0 0 0 0 0 0 0 0 0 0 0 0 0 0 0 0 1 1 1 1 1 1 -1 -1 -1 -1 -1 -1
MACRO       2  16  -1  -1   0 : 4
MACRO       2  17   0  -1   0 : 1 0 1 0 -1 0 -1 0
MACRO       2  18  11  -1   0 : 1 0 0 0 0 0 0 0 0 0 0 1 0 1 0 1 0 -1 0 -1 0 -1 0
MACRO       2  19  16  -1   0 : 0 0 0 0 0 0 0 0 0 0 0 0 0 0 0 0 1 1 1 1 1 1 -1 -1 -1 -1 -1 -1
MACRO       2  20  -1  -1   0 : 4
MACRO       2  21   0  -1   0 : 1 0 1 0 -1 0 -1 0
MACRO       2  22  -1  -1   0 : 10
MACRO       2  23   0  -1   0 : 1 0 1 0 1 0 1 0 1 0 1 0 -1 0 -1 0 -1 0 -1 0 -1 0 -1 0
MACRO       2  24  -1  -1   0 : 2
MACRO       2  25  18  -1   0 : 0 0 0 0 0 0 0 0 0 0 0 0 0 0 0 0 0 0 1 0 0 0 1 0 0 0 -1 0 0 0 -1 0 0 0
MACRO       2  26   0  -1   0 : 1 1 1 -1 -1 -1
MACRO       2  27  -1  -1   0 : -20 -10 -5 0
MACRO       4   0  -1  -1   0 : 0
MACRO       4   1  -1  -1   0 : 0
MACRO       4   2  -1  -1   0 : 1
MACRO       4   3  -1  -1   0 : 1
MACRO       4   4  -1  -1   0 : 1
MACRO       4   5  -1  -1   0 : 0
MACRO       4   6  -1  -1   0 : 2
MACRO       4   7  -1  -1   0 : 0
MACRO       4   8  -1  -1   0 : 2
MACRO       4   9  -1  -1   0 : 0
MACRO       4  10  -1  -1   0 : 0
MACRO       4  11  -1  -1   0 : 1
MACRO       4  12  -1  -1   0 : 0
MACRO       4  13  -1  -1   0 : 1
MACRO       4  14  -1  -1   0 : 1
MACRO       4  15  -1  -1   0 : 0
MACRO       4  16  -1  -1   0 : 0
MACRO       4  17  -1  -1   0 : 1
MACRO       4  18  -1  -1   0 : 1
MACRO       4  19  -1  -1   0 : 2
MACRO       4  20  -1  -1   0 : 0
MACRO       4  21  -1  -1   0 : 0
MACRO       4  22  -1  -1   0 : 1
MACRO       4  23  -1  -1   0 : 0
MACRO       4  24  -1  -1   0 : 1
MACRO       4  25  -1  -1   0 : 0
MACRO       4  26  -1  -1   0 : 1
MACRO       4  27  -1  -1   0 : 1
MACRO       4  28  -1  -1   0 : 0
MACRO       4  29  -1  -1   0 : 0
MACRO       4  30  -1  -1   0 : 1
MACRO       4  31  -1  -1   0 : 1
MACRO       4  32  -1  -1   0 : 2
MACRO       4  33  -1  -1   0 : 1
MACRO       4  34  -1  -1   0 : 2
MACRO       4  35  -1  -1   0 : 2
MACRO       4  36  -1  -1   0 : 0
MACRO       4  37  -1  -1   0 : 1
MACRO       4  38  -1  -1   0 : 0
MACRO       4  39  -1  -1   0 : 1
MACRO       4  40  -1  -1   0 : 2
MACRO       4  41  -1  -1   0 : 2
MACRO       4  42  -1  -1   0 : 0
MACRO       4  43  -1  -1   0 : 1
MACRO       4  44  -1  -1   0 : 0
MACRO       4  45  -1  -1   0 : 0
MACRO       4  46  -1  -1   0 : 1
MACRO       4  47  -1  -1   0 : 0
MACRO       4  48  -1  -1   0 : 1
MACRO       4  49  -1  -1   0 : 1
MACRO       4  50  -1  -1   0 : 0
MACRO       4  51  -1  -1   0 : 0
MACRO       4  52  -1  -1   0 : 1
MACRO       4  53  -1  -1   0 : 1
MACRO       4  54  -1  -1   0 : 2

# DPCM samples
DPCMDEF   0   193 "bde"
DPCM : A9 7E E9 3F FC 3F F0 0F 07 00 00 00 00 00 00 00 00 00 00 00 F8 FF FF FF FF FF FF FF AB AA AA AA
DPCM : AA AA AA AA 4A 42 88 08 82 10 10 01 05 4A 00 09 50 AD 24 09 00 00 80 DA 7B AD B6 AD B6 DB B6 B6
DPCM : AD 6D BB AD 7D EB 57 7B D5 4A 55 55 A5 52 92 24 24 92 54 92 24 49 49 29 A5 4A 55 95 56 55 AD 6A
DPCM : D5 6A AD D5 DA BA 6D B5 76 5B 6B DB 5A 6B 5B 5B AD 5A 55 55 55 2A 95 94 24 49 29 49 92 24 25 49
DPCM : 92 52 92 52 4A A9 AA AA AA AA D5 6A AD B5 B6 D6 D6 D6 5A B5 56 AB D5 AA AA 5A 55 A5 AA AA 4A 55
DPCM : A5 AA 54 55 AA 4A 55 55 A5 AA 54 55 AA 52 55 55 55 55 AB AA 55 AD 5A 55 55 AB 54 55 55 55 55 55
DPCM : 00
DPCMDEF   1   433 "s2"
DPCM : A9 AA 2A 2A C3 B7 9A E3 FF 1F 3D 60 00 78 18 0C 0B 02 00 40 DD D7 FD FF FF FF FF 3B F3 3E 26 A4
DPCM : 06 00 00 00 00 00 88 DB 36 7E 7E FE F3 FF FF FF 3F 17 80 00 0E 00 82 18 C3 01 83 09 F3 05 FF FF
DPCM : 7F D5 2D D6 C5 DE 93 EE 71 60 20 03 84 05 0E E3 09 A1 B1 47 F1 FD CF EF BF B8 37 06 E8 0F 58 F0
DPCM : 68 60 A6 C0 03 0C 83 F3 E6 3B 37 D5 8C 1D DF F3 E6 3B AF CA 1C 00 8C 30 20 8B 21 78 9C 86 F2 ED
DPCM : F7 4F 9F 5F 7C 88 FB 20 3E C6 81 03 47 40 88 B0 3A EC BA 65 B3 DF E9 F4 F9 49 6F 66 71 B0 98 10
DPCM : E4 98 40 58 E3 31 C7 62 FA FC F8 96 FF 06 6F 5D 68 B0 F3 40 C2 28 82 46 D1 38 57 E3 CE E5 78 8F
DPCM : 7A 07 EF 39 E7 50 60 66 0C 6B 4A E6 20 4B D8 C6 63 EA 9E D3 4D CF 79 1A 3A 3C F4 80 89 3E CA B2
DPCM : 8A C8 96 71 A9 F9 E4 74 6A D1 95 AD CB 61 1C C5 99 1A 57 B1 36 8A 66 91 D5 8C 97 3C 33 AB C5 87
DPCM : 6E E4 56 F2 28 AA 29 B5 B4 70 2B B3 AA A6 71 AA 2C A9 2D 2D B3 6A CA F2 68 3A 56 D5 A4 6A 1E A3
DPCM : AA AA 8A 71 59 52 CD 6A AB 9C AA A9 CA 66 B9 99 4A 33 AA AC A9 8E A3 32 29 CB 62 5D 65 AD A5 96
DPCM : AA AA 5A AD 6A 19 D3 A4 C9 32 A5 4E 55 B5 32 E6 92 B5 9A A6 6A AA 59 65 B3 9A 92 29 4B 2D AD B2
DPCM : AA 34 93 56 AD AA AA A9 AA 59 AA AA AA 65 55 99 AA AA E2 D4 AA AA AC AA D2 4C 55 CB AA 9A 3A D5
DPCM : A8 AA AA AA AA AA AA AA AA AA AA AA AA AA AA AA AA AA AA AA AA AA AA AA AA AA AA AA AA AA AA AA
DPCM : AA AA AA AA AA AA AA AA AA AA AA AA AA AA AA AA AA
DPCMDEF   2   545 "sd1"
DPCM : 09 00 5F BD 7F FF FF 7F 00 7F 00 00 00 00 00 00 FC 2F F6 FF FF FF FF FF FF BF 00 B8 00 00 F0 03
DPCM : 00 00 00 00 00 60 F9 8F FF FF FF FF FF FF 7F 00 7E 80 00 00 00 00 00 F8 2C 00 FC FF 80 BD FE FF
DPCM : FF FF FF FF 07 00 30 00 00 00 1C 00 03 F8 7F F8 FF FF 1F 10 FF FF F1 06 F4 03 00 8C C4 0F E0 3B
DPCM : FC 00 03 FE 01 FC 2F 55 07 F4 FF FF 29 A9 FF 04 14 00 1C A0 38 00 FF C0 3E F0 FF FF 1F F8 03 6E
DPCM : 02 CA 13 FF 0F 00 1C 8C 79 04 7E 9F A1 18 E5 C3 1F 5E FF 07 F8 F0 48 83 F8 2F 02 A1 1B 38 8B B8
DPCM : 8F 82 87 7F 70 D2 8B FF 77 0E 80 47 76 B8 EC 63 60 04 00 FF 0F DC C0 DF 2D 0F 93 72 DC F4 E8 97
DPCM : 8E 2F 80 8E 2B 06 11 FF 00 0B 1E 1F DE CE 56 8D 53 C7 FE 13 07 AA 62 1E 64 9E 52 8B 82 DE 13 70
DPCM : D8 FF 50 01 FE 77 80 6F DF AA 02 52 C7 B4 00 FE 59 47 25 AD 4D 15 C1 DF 1E 74 58 93 8A CA EF 16
DPCM : 07 F3 0E 14 87 7E FC 80 E0 43 27 AF 95 BD 06 D5 29 36 B6 34 59 55 2F A4 D6 52 55 CB 2E 14 5E 45
DPCM : 11 73 7E C7 4B D4 6B 30 55 4D EF 86 84 1E 50 B5 EA 35 75 69 44 6B 34 5B 5C 95 DA A9 17 34 B1 4D
DPCM : DD 81 4D 55 55 52 DA BD A8 34 A9 66 6C 0D F5 54 55 D5 54 55 75 56 5D B0 12 5E C1 9A B1 4D EB B4
DPCM : 43 17 69 75 2C 4B 95 D5 33 A8 5A 55 AD 52 4D 35 25 2B B2 66 57 55 55 71 55 8F 74 E3 64 B3 22 A9
DPCM : A5 D5 0A 76 6A 15 69 E8 57 D5 43 6A A5 B5 6A 9A 2B 76 4A 16 C5 16 57 95 56 74 25 2E 68 EB 55 55
DPCM : 55 4D 55 AD 6A E5 5A 94 AA 4B 4C A5 B4 D4 8A 96 34 59 6B 5D AD EA 8C DD A4 31 AD 18 33 55 55 89
DPCM : 4A 5B 67 A9 45 AB 95 A5 5A 55 35 8F 55 E9 A8 2A B5 AC A9 4A 55 32 19 B5 9D A4 5D 55 55 55 74 D3
DPCM : AA E9 AA 4A 54 55 6D 69 52 55 B4 54 95 AA 5A 57 55 55 35 55 4D ED A8 AA 5A 4A 65 55 B5 B4 52 55
DPCM : 69 45 69 AA B6 5A 55 55 55 AB 5C 6A AB 94 2A 55 59 55 55 55 55 55 55 A5 AA 6A 55 55 59 55 A5 AA
DPCM : 00
DPCMDEF   3   209 "tom2"
DPCM : A9 AA AA AA 0A 00 00 1C FF FC FF FF FF 7F 1F 0E 3C 14 02 00 00 60 00 00 A8 6A BB B7 BD FB FD FF
DPCM : FF FF 9F 2A A5 12 20 08 00 00 00 00 A8 9A AA FA FF FF FF FF FF FF D7 2C D5 12 00 00 00 00 00 00
DPCM : A0 AA DA 7B FF FF FF FF FF FF AD CA 0A 10 00 00 00 00 00 84 A8 AA ED BF FF FF FF FF 7F F7 B5 AA
DPCM : 02 01 02 04 21 51 AA AA B5 DD F7 EF EF B7 B7 DB AA 54 52 12 82 80 00 82 88 A4 D4 5A DB EE FB BD
DPCM : 02 01 02 04 21 51 AA AA B5 DD F7 EF EF B7 B7 DB AA 54 52 12 82 80 00 82 88 A4 D4 5A DB EE FB BD
DPCM : BD F7 BE AE 55 55 8A 84 44 10 0A 41 88 24 29 B5 AE F7 76 EF EA B6 5B 6B B5 AA 52 52 92 A4 A4 92
DPCM : 94 52 A5 66 55 AD 56 6B AB 5A 6B 55 55 55 AA AA 52
DPCMDEF   4   161 "bde"
DPCM : A9 6A 55 3B FC 15 F0 87 03 8A 0A 1E A8 AA AA AA AA AA AA AA BA DB AE E9 5F 51 57 55 55 55 55 55
DPCM : 55 55 55 55 55 A5 52 A9 94 4A A9 4A 95 4A 29 95 52 AD 54 A5 AA AA AA 55 AB 5A 55 AD AA 56 B5 AA
DPCM : 5A 55 AB AA 5A B5 56 D5 AA AA AA AA 52 55 95 AA 54 AA AA AA 54 95 AA 2A 55 55 55 55 55 55 55 55
DPCM : D5 AA AA AA 55 B5 AA AA 6A 55 B5 AA 5A 55 B5 AA AA 5A 55 55 55 AA AA 4A 55 A9 AA 54 95 AA AA 4A
DPCM : 55 A5 AA 52 55 55 55 55 55 55 55 55 AD AA 6A 55 D5 AA AA AA AA AA 55 55 55 55 55 55 55 55 55 55
DPCM : 70
DPCMDEF   5    81 "bde"
DPCM : AA 5A 55 0F FE 15 F8 C1 81 A2 82 0D AA AA AA AA AA AA AA AA 76 DB 6D EA 5F D4 55 55 55 55 55 55
DPCM : 55 55 55 55 55 A5 54 A9 94 4A A9 4A A5 4A 29 95 52 AD 54 A5 AA AA 6A 55 AB 5A 55 AD AA 56 B5 AA
DPCM : 5A 55 AB AA 5A B5 56 D5 AA AA AA AA 52 55 95 AA 55
DPCMDEF   6   161 "tom2"
DPCM : AA AA AA AA 0A 47 35 0F 2F 3E C7 E3 58 96 15 17 1E 2B 8B E1 42 79 A8 AA A6 AA 55 B5 AA 3A 3D 57
DPCM : 53 55 55 55 55 A5 2A 95 AA 52 4A A5 A6 9A AA 56 AD D6 AA D6 AA B5 D4 AC B4 52 A9 94 AA 94 4A 55
DPCM : A6 AA 5A 55 6B B5 AA D6 5A D5 AC 4A 4B 95 4A A9 2A 95 2A 55 A9 AA 56 AD 5A AB AA D5 AA 55 CD B2
DPCM : 52 A5 4A A5 4A A5 4A 55 65 56 55 B5 5A AD 6A B5 6A 55 55 55 95 AA 54 A9 AA 54 AA 52 55 55 B5 6A
DPCM : 55 AB AA 55 AD AA 55 55 95 2A 55 AA AA 54 A5 AA 52 55 B3 AA 55 AD AA 6A D5 AA AA 55 55 A9 AA 54
DPCM : 55
DPCMDEF   7   305 "bds"
DPCM : EA 54 35 9A 0F CF E6 F1 DB 9A 9C 89 07 80 00 0A 0C 46 55 55 55 55 55 7F BF EF 5E 5B 3D 2F AB 34
DPCM : 5D 10 07 1E 96 58 95 AD 95 5E 96 AA B4 2F B5 3D 15 0B 91 90 86 12 83 08 E3 41 D1 D4 D4 A3 7F BD
DPCM : 7E E5 1C CF 4A D7 A3 8C 33 2C 18 53 90 06 1D 47 13 D1 F0 C6 B2 FD 8E D7 9B 5A 9D 86 E9 0E 5C B2
DPCM : A9 32 4D 46 0B 1C A7 E5 E6 35 6B D6 34 3B EE B3 CE 5B AE A9 19 52 54 11 C9 14 63 F0 B0 0C E3 E9
DPCM : E5 9C 3A EE E8 94 F2 61 76 CC 51 4E 8E A2 92 B2 74 D8 B5 CA AA 2E C7 E9 74 A3 5C 9C D2 48 A5 70
DPCM : D0 21 29 D2 46 CB 54 C5 E5 79 71 6D BD 1A 9D 6B B1 B2 66 C9 A9 4A 15 9E 4A E3 56 CD 9A D3 D2 75
DPCM : EA 1C 9D D3 1C 63 A1 29 53 54 93 AA 32 55 52 8B 4D AD B9 AA 56 AD 66 D3 64 E5 A8 45 A6 72 A9 AA
DPCM : 2A 95 56 C6 A9 AA 33 D3 AA 4A AB AA 56 96 AA 2A CB AC B4 4A B5 32 59 95 AA 66 36 E5 AA AA AA 5A
DPCM : 6A A9 66 D5 4A A3 A6 AA AA A9 AA AA AA 6A 9A A6 AA AA AA AA A9 AA A5 AA A6 AA A9 AA 56 AA EA 54
DPCM : AA AA AA 52 4D 95 6A 55 B5 AA AA AA AA 6A AA 95 55
DPCMDEF   8    81 "bde"
DPCM : AA 5A 55 0F FE 15 F8 C1 81 A2 82 0D AA AA AA AA AA AA AA AA 76 DB 6D EA 5F D4 55 55 55 55 55 55
DPCM : 55 55 55 55 55 A5 54 A9 94 4A A9 4A A5 4A 29 95 52 AD 54 A5 AA AA 6A 55 AB 5A 55 AD AA 56 B5 AA
DPCM : 5A 55 AB AA 5A B5 56 D5 AA AA AA AA 52 55 95 AA 55
DPCMDEF   9   161 "tom2"
DPCM : AA AA AA AA 0A 47 35 0F 2F 3E C7 E3 58 96 15 17 1E 2B 8B E1 42 79 A8 AA A6 AA 55 B5 AA 3A 3D 57
DPCM : 53 55 55 55 55 A5 2A 95 AA 52 4A A5 A6 9A AA 56 AD D6 AA D6 AA B5 D4 AC B4 52 A9 94 AA 94 4A 55
DPCM : A6 AA 5A 55 6B B5 AA D6 5A D5 AC 4A 4B 95 4A A9 2A 95 2A 55 A9 AA 56 AD 5A AB AA D5 AA 55 CD B2
DPCM : 52 A5 4A A5 4A A5 4A 55 65 56 55 B5 5A AD 6A B5 6A 55 55 55 95 AA 54 A9 AA 54 AA 52 55 55 B5 6A
DPCM : 55 AB AA 55 AD AA 55 55 95 2A 55 AA AA 54 A5 AA 52 55 B3 AA 55 AD AA 6A D5 AA AA 55 55 A9 AA 54
DPCM : 55
DPCMDEF  10   305 "bds"
DPCM : EA 54 35 9A 0F CF E6 F1 DB 9A 9C 89 07 80 00 0A 0C 46 55 55 55 55 55 7F BF EF 5E 5B 3D 2F AB 34
DPCM : 5D 10 07 1E 96 58 95 AD 95 5E 96 AA B4 2F B5 3D 15 0B 91 90 86 12 83 08 E3 41 D1 D4 D4 A3 7F BD
DPCM : 7E E5 1C CF 4A D7 A3 8C 33 2C 18 53 90 06 1D 47 13 D1 F0 C6 B2 FD 8E D7 9B 5A 9D 86 E9 0E 5C B2
DPCM : A9 32 4D 46 0B 1C A7 E5 E6 35 6B D6 34 3B EE B3 CE 5B AE A9 19 52 54 11 C9 14 63 F0 B0 0C E3 E9
DPCM : E5 9C 3A EE E8 94 F2 61 76 CC 51 4E 8E A2 92 B2 74 D8 B5 CA AA 2E C7 E9 74 A3 5C 9C D2 48 A5 70
DPCM : D0 21 29 D2 46 CB 54 C5 E5 79 71 6D BD 1A 9D 6B B1 B2 66 C9 A9 4A 15 9E 4A E3 56 CD 9A D3 D2 75
DPCM : EA 1C 9D D3 1C 63 A1 29 53 54 93 AA 32 55 52 8B 4D AD B9 AA 56 AD 66 D3 64 E5 A8 45 A6 72 A9 AA
DPCM : 2A 95 56 C6 A9 AA 33 D3 AA 4A AB AA 56 96 AA 2A CB AC B4 4A B5 32 59 95 AA 66 36 E5 AA AA AA 5A
DPCM : 6A A9 66 D5 4A A3 A6 AA AA A9 AA AA AA 6A 9A A6 AA AA AA AA A9 AA A5 AA A6 AA A9 AA 56 AA EA 54
DPCM : AA AA AA 52 4D 95 6A 55 B5 AA AA AA AA 6A AA 95 55
DPCMDEF  11    81 "bde"
DPCM : AA 5A 55 0F FE 15 F8 C1 81 A2 82 0D AA AA AA AA AA AA AA AA 76 DB 6D EA 5F D4 55 55 55 55 55 55
DPCM : 55 55 55 55 55 A5 54 A9 94 4A A9 4A A5 4A 29 95 52 AD 54 A5 AA AA 6A 55 AB 5A 55 AD AA 56 B5 AA
DPCM : 5A 55 AB AA 5A B5 56 D5 AA AA AA AA 52 55 95 AA 55
DPCMDEF  12   161 "tom2"
DPCM : AA AA AA AA 0A 47 35 0F 2F 3E C7 E3 58 96 15 17 1E 2B 8B E1 42 79 A8 AA A6 AA 55 B5 AA 3A 3D 57
DPCM : 53 55 55 55 55 A5 2A 95 AA 52 4A A5 A6 9A AA 56 AD D6 AA D6 AA B5 D4 AC B4 52 A9 94 AA 94 4A 55
DPCM : A6 AA 5A 55 6B B5 AA D6 5A D5 AC 4A 4B 95 4A A9 2A 95 2A 55 A9 AA 56 AD 5A AB AA D5 AA 55 CD B2
DPCM : 52 A5 4A A5 4A A5 4A 55 65 56 55 B5 5A AD 6A B5 6A 55 55 55 95 AA 54 A9 AA 54 AA 52 55 55 B5 6A
DPCM : 55 AB AA 55 AD AA 55 55 95 2A 55 AA AA 54 A5 AA 52 55 B3 AA 55 AD AA 6A D5 AA AA 55 55 A9 AA 54
DPCM : 55
DPCMDEF  13   305 "bds"
DPCM : EA 54 35 9A 0F CF E6 F1 DB 9A 9C 89 07 80 00 0A 0C 46 55 55 55 55 55 7F BF EF 5E 5B 3D 2F AB 34
DPCM : 5D 10 07 1E 96 58 95 AD 95 5E 96 AA B4 2F B5 3D 15 0B 91 90 86 12 83 08 E3 41 D1 D4 D4 A3 7F BD
DPCM : 7E E5 1C CF 4A D7 A3 8C 33 2C 18 53 90 06 1D 47 13 D1 F0 C6 B2 FD 8E D7 9B 5A 9D 86 E9 0E 5C B2
DPCM : A9 32 4D 46 0B 1C A7 E5 E6 35 6B D6 34 3B EE B3 CE 5B AE A9 19 52 54 11 C9 14 63 F0 B0 0C E3 E9
DPCM : E5 9C 3A EE E8 94 F2 61 76 CC 51 4E 8E A2 92 B2 74 D8 B5 CA AA 2E C7 E9 74 A3 5C 9C D2 48 A5 70
DPCM : D0 21 29 D2 46 CB 54 C5 E5 79 71 6D BD 1A 9D 6B B1 B2 66 C9 A9 4A 15 9E 4A E3 56 CD 9A D3 D2 75
DPCM : EA 1C 9D D3 1C 63 A1 29 53 54 93 AA 32 55 52 8B 4D AD B9 AA 56 AD 66 D3 64 E5 A8 45 A6 72 A9 AA
DPCM : 2A 95 56 C6 A9 AA 33 D3 AA 4A AB AA 56 96 AA 2A CB AC B4 4A B5 32 59 95 AA 66 36 E5 AA AA AA 5A
DPCM : 6A A9 66 D5 4A A3 A6 AA AA A9 AA AA AA 6A 9A A6 AA AA AA AA A9 AA A5 AA A6 AA A9 AA 56 AA EA 54
DPCM : AA AA AA 52 4D 95 6A 55 B5 AA AA AA AA 6A AA 95 55

# Instruments
INST2A03   0    48  -1  -1  -1  22 "WilyStg1 Lead"
INST2A03   1    85  -1  19  -1  -1 "bass"
INST2A03   2    86  -1  -1  -1  39 "key1"
INST2A03   3    91  -1  18  -1  41 "key2"
INST2A03   4    87  -1  -1  -1  -1 "hat1"
INST2A03   5    88  -1  -1  -1  -1 "hat2"
INST2A03   6    89  -1  19  -1  40 "key2s"
INST2A03   7    91  -1  18  -1  42 "key3"
INST2A03   8    92  18  -1  -1  -1 "snaret"
INST2A03   9    93  19  -1  -1  -1 "snare_hat"
INST2A03  10    89  -1  -1  -1  42 "key3s"
INST2A03  11    94  -1  -1  -1  -1 "bass3"
INST2A03  12    95  -1  -1  -1  43 "bassp"
INST2A03  13    96  -1  -1  -1  43 "bassps"
INST2A03  14    97  19  -1  -1  -1 "snaren"
INST2A03  15    91  -1  -1  -1  41 "key2f"
INST2A03  16    89  -1  -1  -1  39 "key1s"
INST2A03  17    86  -1  20  -1  39 "key1p"
INST2A03  18    98  20  -1  -1  -1 "bass_snare"
INST2A03  19   100  -1  -1  -1  44 "key4"
INST2A03  20   101  -1  -1  -1  -1 "bass3"
KEYDPCM  20   3   0    11  15   0     0  -1
KEYDPCM  20   3   2    12  15   0     0  -1
KEYDPCM  20   3   4    13  15   0     0  -1
INST2A03  21   102  -1  23  -1  45 "slow1"
INST2A03  22   102  -1  22  -1  45 "slow2"
INST2A03  23   103  -1  -1  -1  49 "noise1"
INST2A03  24   104  -1  -1  -1  49 "noise2"
INST2A03  25   105  -1  -1  -1  49 "noise3"
INST2A03  26   107  -1  -1  -1  46 "arp1"
INST2A03  27   108  -1  -1  -1  47 "arp1echo"
INST2A03  28   113  -1  24  -1  46 "arp2"
INST2A03  29   108  -1  24  -1  47 "arp2echo"
INST2A03  30   109  -1  25  -1  48 "solo"
INST2A03  31   110  -1  -1  -1  50 "hat"
INST2A03  32   111  -1  26  -1  -1 "bass6"
INST2A03  33   112  -1  -1  -1  -1 "bass"
INST2A03  34   114  -1  -1  -1  -1 "bass2"
INST2A03  35   112  22  -1  -1  -1 "bassup"
INST2A03  36   109  23  25  -1  48 "soloup"
INST2A03  37   117  -1  25  -1  52 "solom"
INST2A03  38   118  -1  26  -1  53 "solotm"
INST2A03  39   119  -1  26  -1  53 "solots"
INST2A03  40   120  -1  -1  -1  49 "noise2m"

# Tracks

TRACK  64   6 140 "Derpy Kong (Title Card)"
COLUMNS : 1 1 1 1 1

ORDER 00 : 00 00 00 00 00

PATTERN 00
ROW 00 : G-2 00 . ... : ... .. . ... : C-3 00 . ... : ... .. . ... : ... .. . ...
ROW 01 : ... .. . ... : ... .. . ... : ... .. . ... : ... .. . ... : ... .. . ...
ROW 02 : ... .. . ... : ... .. . ... : ... .. . ... : ... .. . ... : ... .. . ...
ROW 03 : A-2 00 . ... : ... .. . ... : ... .. . ... : ... .. . ... : ... .. . ...
ROW 04 : --- .. . ... : ... .. . ... : G-2 00 . ... : ... .. . ... : ... .. . ...
ROW 05 : ... .. . ... : ... .. . ... : ... .. . ... : ... .. . ... : ... .. . ...
ROW 06 : C-3 00 . ... : ... .. . ... : ... .. . ... : ... .. . ... : ... .. . ...
ROW 07 : ... .. . ... : ... .. . ... : ... .. . ... : ... .. . ... : ... .. . ...
ROW 08 : ... .. . ... : ... .. . ... : C-3 00 . ... : ... .. . ... : ... .. . ...
ROW 09 : ... .. . ... : ... .. . ... : ... .. . ... : ... .. . ... : ... .. . ...
ROW 0A : A-2 00 . ... : ... .. . ... : ... .. . ... : ... .. . ... : ... .. . ...
ROW 0B : ... .. . ... : ... .. . ... : ... .. . ... : ... .. . ... : ... .. . ...
ROW 0C : G-2 00 . ... : ... .. . ... : G-2 00 . ... : ... .. . ... : ... .. . ...
ROW 0D : ... .. . ... : ... .. . ... : ... .. . ... : ... .. . ... : ... .. . ...
ROW 0E : A-2 00 . ... : ... .. . ... : ... .. . ... : ... .. . ... : ... .. . ...
ROW 0F : ... .. . ... : ... .. . ... : ... .. . ... : ... .. . ... : ... .. . ...
ROW 10 : F-2 00 . ... : ... .. . ... : F-2 00 . ... : ... .. . ... : ... .. . ...
ROW 11 : ... .. . ... : ... .. . ... : ... .. . ... : ... .. . ... : ... .. . ...
ROW 12 : ... .. . ... : ... .. . ... : G-2 00 . ... : ... .. . ... : ... .. . ...
ROW 13 : ... .. . ... : ... .. . ... : A-2 00 . ... : ... .. . ... : ... .. . ...
ROW 14 : ... .. . ... : ... .. . ... : B-2 00 . ... : ... .. . ... : ... .. . ...
ROW 15 : ... .. . ... : ... .. . ... : C-3 00 . ... : ... .. . ... : ... .. . ...
ROW 16 : ... .. . ... : ... .. . ... : D-3 00 . ... : ... .. . ... : ... .. . ...
ROW 17 : ... .. . ... : ... .. . ... : E-3 00 . ... : ... .. . ... : ... .. . ...
ROW 18 : ... .. . ... : ... .. . ... : F-3 00 . ... : ... .. . ... : ... .. . ...
ROW 19 : ... .. . ... : ... .. . ... : ... .. . ... : ... .. . ... : ... .. . ...
ROW 1A : ... .. . ... : ... .. . ... : ... .. . ... : ... .. . ... : ... .. . ...
ROW 1B : ... .. . ... : ... .. . ... : ... .. . ... : ... .. . ... : ... .. . ...
ROW 1C : --- .. . C00 : ... .. . ... : --- .. . C00 : ... .. . ... : ... .. . ...
ROW 1D : ... .. . ... : ... .. . ... : ... .. . ... : ... .. . ... : ... .. . ...
ROW 1E : ... .. . ... : ... .. . ... : ... .. . ... : ... .. . ... : ... .. . ...
ROW 1F : ... .. . ... : ... .. . ... : ... .. . ... : ... .. . ... : ... .. . ...
ROW 20 : ... .. . ... : ... .. . ... : ... .. . ... : ... .. . ... : ... .. . ...
ROW 21 : ... .. . ... : ... .. . ... : ... .. . ... : ... .. . ... : ... .. . ...
ROW 22 : ... .. . ... : ... .. . ... : ... .. . ... : ... .. . ... : ... .. . ...
ROW 23 : ... .. . ... : ... .. . ... : ... .. . ... : ... .. . ... : ... .. . ...
ROW 24 : ... .. . ... : ... .. . ... : ... .. . ... : ... .. . ... : ... .. . ...
ROW 25 : ... .. . ... : ... .. . ... : ... .. . ... : ... .. . ... : ... .. . ...
ROW 26 : ... .. . ... : ... .. . ... : ... .. . ... : ... .. . ... : ... .. . ...
ROW 27 : ... .. . ... : ... .. . ... : ... .. . ... : ... .. . ... : ... .. . ...
ROW 28 : ... .. . ... : ... .. . ... : ... .. . ... : ... .. . ... : ... .. . ...
ROW 29 : ... .. . ... : ... .. . ... : ... .. . ... : ... .. . ... : ... .. . ...
ROW 2A : ... .. . ... : ... .. . ... : ... .. . ... : ... .. . ... : ... .. . ...
ROW 2B : ... .. . ... : ... .. . ... : ... .. . ... : ... .. . ... : ... .. . ...
ROW 2C : ... .. . ... : ... .. . ... : ... .. . ... : ... .. . ... : ... .. . ...
ROW 2D : ... .. . ... : ... .. . ... : ... .. . ... : ... .. . ... : ... .. . ...
ROW 2E : ... .. . ... : ... .. . ... : ... .. . ... : ... .. . ... : ... .. . ...
ROW 2F : ... .. . ... : ... .. . ... : ... .. . ... : ... .. . ... : ... .. . ...
ROW 30 : ... .. . ... : ... .. . ... : ... .. . ... : ... .. . ... : ... .. . ...
ROW 31 : ... .. . ... : ... .. . ... : ... .. . ... : ... .. . ... : ... .. . ...
ROW 32 : ... .. . ... : ... .. . ... : ... .. . ... : ... .. . ... : ... .. . ...
ROW 33 : ... .. . ... : ... .. . ... : ... .. . ... : ... .. . ... : ... .. . ...
ROW 34 : ... .. . ... : ... .. . ... : ... .. . ... : ... .. . ... : ... .. . ...
ROW 35 : ... .. . ... : ... .. . ... : ... .. . ... : ... .. . ... : ... .. . ...
ROW 36 : ... .. . ... : ... .. . ... : ... .. . ... : ... .. . ... : ... .. . ...
ROW 37 : ... .. . ... : ... .. . ... : ... .. . ... : ... .. . ... : ... .. . ...
ROW 38 : ... .. . ... : ... .. . ... : ... .. . ... : ... .. . ... : ... .. . ...
ROW 39 : ... .. . ... : ... .. . ... : ... .. . ... : ... .. . ... : ... .. . ...
ROW 3A : ... .. . ... : ... .. . ... : ... .. . ... : ... .. . ... : ... .. . ...
ROW 3B : ... .. . ... : ... .. . ... : ... .. . ... : ... .. . ... : ... .. . ...
ROW 3C : ... .. . ... : ... .. . ... : ... .. . ... : ... .. . ... : ... .. . ...
ROW 3D : ... .. . ... : ... .. . ... : ... .. . ... : ... .. . ... : ... .. . ...
ROW 3E : ... .. . ... : ... .. . ... : ... .. . ... : ... .. . ... : ... .. . ...
ROW 3F : ... .. . ... : ... .. . ... : ... .. . ... : ... .. . ... : ... .. . ...

TRACK  64   5 150 "Title Screen"
COLUMNS : 1 1 1 1 1

ORDER 00 : 00 00 00 00 00
ORDER 01 : 01 01 01 01 01
ORDER 02 : 02 02 02 02 02
ORDER 03 : 03 03 03 03 03
ORDER 04 : 04 04 04 04 04
ORDER 05 : 05 05 05 05 05
ORDER 06 : 06 06 06 06 06
ORDER 07 : 07 07 07 07 07

PATTERN 00
ROW 00 : G-1 02 . ... : G-1 11 . ... : G-2 01 . ... : ... .. . ... : ... .. . F06
ROW 01 : ... .. . ... : ... .. . ... : ... .. . ... : ... .. . ... : ... .. . ...
ROW 02 : ... .. . ... : ... .. . ... : --- .. . ... : ... .. . ... : ... .. . F04
ROW 03 : ... .. . ... : ... .. . ... : ... .. . ... : ... .. . ... : ... .. . ...
ROW 04 : B-2 02 . ... : D-3 03 . ... : G-3 01 . ... : ... .. . ... : ... .. . F06
ROW 05 : ... .. . ... : ... .. . ... : --- .. . ... : ... .. . ... : ... .. . ...
ROW 06 : B-2 02 . ... : ... .. . ... : G-3 01 . ... : ... .. . ... : ... .. . F04
ROW 07 : ... .. . ... : --- .. . ... : --- .. . ... : ... .. . ... : ... .. . ...
ROW 08 : ... .. . ... : D-3 03 . ... : G-2 01 . ... : ... .. . ... : ... .. . F06
ROW 09 : ... .. . ... : --- 03 . ... : ... .. . ... : ... .. . ... : ... .. . ...
ROW 0A : D-3 06 . ... : ... .. . ... : --- .. . ... : ... .. . ... : ... .. . F04
ROW 0B : --- .. . ... : ... .. . ... : ... .. . ... : ... .. . ... : ... .. . ...
ROW 0C : B-2 02 . ... : C-3 03 . ... : G-3 01 . ... : ... .. . ... : ... .. . F06
ROW 0D : ... .. . ... : ... .. . ... : --- .. . ... : ... .. . ... : ... .. . ...
ROW 0E : C-3 06 . ... : D-3 03 . ... : ... .. . ... : ... .. . ... : ... .. . F04
ROW 0F : ... .. . ... : ... .. . ... : ... .. . ... : ... .. . ... : ... .. . ...
ROW 10 : F-1 02 . ... : F-1 11 . ... : F-2 01 . ... : ... .. . ... : ... .. . F06
ROW 11 : ... .. . ... : ... .. . ... : ... .. . ... : ... .. . ... : ... .. . ...
ROW 12 : ... .. . ... : ... .. . ... : --- .. . ... : ... .. . ... : ... .. . F04
ROW 13 : ... .. . ... : ... .. . ... : ... .. . ... : ... .. . ... : ... .. . ...
ROW 14 : A-2 02 . ... : ... .. . ... : F-3 01 . ... : ... .. . ... : ... .. . F06
ROW 15 : ... .. . ... : ... .. . ... : --- .. . ... : ... .. . ... : ... .. . ...
ROW 16 : A-2 02 . ... : D-2 03 . ... : F-3 01 . ... : ... .. . ... : ... .. . F04
ROW 17 : ... .. . ... : ... .. . ... : --- .. . ... : ... .. . ... : ... .. . ...
ROW 18 : D-2 06 . ... : F-2 03 . ... : F-2 01 . ... : ... .. . ... : ... .. . F06
ROW 19 : ... .. . ... : ... .. . ... : ... .. . ... : ... .. . ... : ... .. . ...
ROW 1A : F-2 06 . ... : ... .. . ... : --- .. . ... : ... .. . ... : ... .. . F04
ROW 1B : ... .. . ... : ... .. . ... : ... .. . ... : ... .. . ... : ... .. . ...
ROW 1C : A-2 02 . ... : A-2 03 . ... : F-3 01 . ... : ... .. . ... : ... .. . F06
ROW 1D : ... .. . ... : ... .. . ... : --- .. . ... : ... .. . ... : ... .. . ...
ROW 1E : A-2 06 . ... : D-3 03 . ... : ... .. . ... : ... .. . ... : ... .. . F04
ROW 1F : ... .. . ... : ... .. . ... : ... .. . ... : ... .. . ... : ... .. . ...
ROW 20 : C-1 02 . ... : ... .. . ... : C-2 01 . ... : ... .. . ... : ... .. . F06
ROW 21 : ... .. . ... : ... .. . ... : ... .. . ... : ... .. . ... : ... .. . ...
ROW 22 : ... .. . ... : ... .. . ... : --- .. . ... : ... .. . ... : ... .. . F04
ROW 23 : ... .. . ... : ... .. . ... : ... .. . ... : ... .. . ... : ... .. . ...
ROW 24 : E-2 02 . ... : C-3 03 . ... : C-3 01 . ... : ... .. . ... : ... .. . F06
ROW 25 : ... .. . ... : --- .. . ... : --- .. . ... : ... .. . ... : ... .. . ...
ROW 26 : E-2 02 . ... : ... .. . ... : C-3 01 . ... : ... .. . ... : ... .. . F04
ROW 27 : ... .. . ... : B-2 03 . ... : --- .. . ... : ... .. . ... : ... .. . ...
ROW 28 : ... .. . ... : C-3 03 . ... : C-2 01 . ... : ... .. . ... : ... .. . F06
ROW 29 : B-2 06 . ... : ... .. . ... : ... .. . ... : ... .. . ... : ... .. . ...
ROW 2A : C-3 06 . ... : D-3 03 . ... : --- .. . ... : ... .. . ... : ... .. . F04
ROW 2B : ... .. . ... : ... .. . ... : ... .. . ... : ... .. . ... : ... .. . ...
ROW 2C : E-2 02 . ... : ... .. . ... : C-3 01 . ... : ... .. . ... : ... .. . F06
ROW 2D : ... .. . ... : ... .. . ... : --- .. . ... : ... .. . ... : ... .. . ...
ROW 2E : D-3 06 . ... : ... .. . ... : ... .. . ... : ... .. . ... : ... .. . F04
ROW 2F : ... .. . ... : ... .. . ... : ... .. . ... : ... .. . ... : ... .. . ...
ROW 30 : C-1 02 . ... : G-2 03 . ... : C-2 01 . ... : ... .. . ... : ... .. . F06
ROW 31 : ... .. . ... : ... .. . ... : ... .. . ... : ... .. . ... : ... .. . ...
ROW 32 : G-2 06 . ... : ... .. . ... : --- .. . ... : ... .. . ... : ... .. . F04
ROW 33 : ... .. . ... : ... .. . ... : ... .. . ... : ... .. . ... : ... .. . ...
ROW 34 : E-2 02 . ... : ... .. . ... : C-3 01 . ... : ... .. . ... : ... .. . F06
ROW 35 : ... .. . ... : ... .. . ... : --- .. . ... : ... .. . ... : ... .. . ...
ROW 36 : E-2 02 . ... : ... .. . ... : C-3 01 . ... : ... .. . ... : ... .. . F04
ROW 37 : ... .. . ... : ... .. . ... : --- .. . ... : ... .. . ... : ... .. . ...
ROW 38 : G-2 06 . ... : ... .. . ... : C-2 01 . ... : ... .. . ... : ... .. . F06
ROW 39 : ... .. . ... : ... .. . ... : --- .. . ... : ... .. . ... : ... .. . ...
ROW 3A : ... .. . ... : ... .. . ... : C-2 01 . ... : ... .. . ... : ... .. . F04
ROW 3B : ... .. . ... : ... .. . ... : ... .. . ... : ... .. . ... : ... .. . ...
ROW 3C : E-2 02 . ... : ... .. . ... : E-2 01 . ... : ... .. . ... : ... .. . F06
ROW 3D : ... .. . ... : ... .. . ... : ... .. . ... : ... .. . ... : ... .. . ...
ROW 3E : ... .. . ... : ... .. . ... : C-2 01 . ... : ... .. . ... : ... .. . F04
ROW 3F : ... .. . ... : ... .. . ... : ... .. . ... : ... .. . ... : ... .. . ...

PATTERN 01
ROW 00 : G-1 02 . ... : G-1 11 . ... : G-2 01 . ... : ... .. . ... : ... .. . F06
ROW 01 : ... .. . ... : ... .. . ... : ... .. . ... : ... .. . ... : ... .. . ...
ROW 02 : ... .. . ... : ... .. . ... : --- .. . ... : ... .. . ... : ... .. . F04
ROW 03 : ... .. . ... : ... .. . ... : ... .. . ... : ... .. . ... : ... .. . ...
ROW 04 : B-2 02 . ... : D-3 03 . ... : G-3 01 . ... : ... .. . ... : ... .. . F06
ROW 05 : ... .. . ... : ... .. . ... : --- .. . ... : ... .. . ... : ... .. . ...
ROW 06 : B-2 02 . ... : ... .. . ... : G-3 01 . ... : ... .. . ... : ... .. . F04
ROW 07 : ... .. . ... : ... .. . ... : --- .. . ... : ... .. . ... : ... .. . ...
ROW 08 : ... .. . ... : D-3 03 . ... : G-2 01 . ... : ... .. . ... : ... .. . F06
ROW 09 : ... .. . ... : --- .. . ... : ... .. . ... : ... .. . ... : ... .. . ...
ROW 0A : D-3 06 . ... : ... .. . ... : --- .. . ... : ... .. . ... : ... .. . F04
ROW 0B : --- .. . ... : ... .. . ... : ... .. . ... : ... .. . ... : ... .. . ...
ROW 0C : B-2 02 . ... : C-3 03 . ... : G-3 01 . ... : ... .. . ... : ... .. . F06
ROW 0D : ... .. . ... : ... .. . ... : --- .. . ... : ... .. . ... : ... .. . ...
ROW 0E : C-3 06 . ... : D-3 03 . ... : ... .. . ... : ... .. . ... : ... .. . F04
ROW 0F : ... .. . ... : ... .. . ... : ... .. . ... : ... .. . ... : ... .. . ...
ROW 10 : F-1 02 . ... : F-1 11 . ... : F-2 01 . ... : ... .. . ... : ... .. . F06
ROW 11 : ... .. . ... : ... .. . ... : ... .. . ... : ... .. . ... : ... .. . ...
ROW 12 : ... .. . ... : ... .. . ... : --- .. . ... : ... .. . ... : ... .. . F04
ROW 13 : ... .. . ... : ... .. . ... : ... .. . ... : ... .. . ... : ... .. . ...
ROW 14 : A-2 02 . ... : ... .. . ... : F-3 01 . ... : ... .. . ... : ... .. . F06
ROW 15 : ... .. . ... : ... .. . ... : --- .. . ... : ... .. . ... : ... .. . ...
ROW 16 : A-2 02 . ... : F-3 03 . ... : F-3 01 . ... : ... .. . ... : ... .. . F04
ROW 17 : ... .. . ... : ... .. . ... : --- .. . ... : ... .. . ... : ... .. . ...
ROW 18 : F-3 06 . ... : E-3 03 . ... : F-2 01 . ... : ... .. . ... : ... .. . F06
ROW 19 : ... .. . ... : ... .. . ... : ... .. . ... : ... .. . ... : ... .. . ...
ROW 1A : E-3 06 . ... : ... .. . ... : --- .. . ... : ... .. . ... : ... .. . F04
ROW 1B : ... .. . ... : ... .. . ... : ... .. . ... : ... .. . ... : ... .. . ...
ROW 1C : A-2 02 . ... : C-3 03 . ... : F-3 01 . ... : ... .. . ... : ... .. . F06
ROW 1D : ... .. . ... : ... .. . ... : --- .. . ... : ... .. . ... : ... .. . ...
ROW 1E : C-3 06 . ... : ... .. . ... : ... .. . ... : ... .. . ... : ... .. . F04
ROW 1F : ... .. . ... : G#2 03 . ... : ... .. . ... : ... .. . ... : ... .. . ...
ROW 20 : D-1 02 . ... : A-2 03 . ... : D-2 01 . ... : ... .. . ... : ... .. . F06
ROW 21 : G#2 06 . ... : ... .. . ... : ... .. . ... : ... .. . ... : ... .. . ...
ROW 22 : A-2 06 . ... : B-2 03 . ... : --- .. . ... : ... .. . ... : ... .. . F04
ROW 23 : ... .. . ... : ... .. . ... : ... .. . ... : ... .. . ... : ... .. . ...
ROW 24 : F#2 02 . ... : ... .. . ... : D-3 01 . ... : ... .. . ... : ... .. . F06
ROW 25 : ... .. . ... : ... .. . ... : --- .. . ... : ... .. . ... : ... .. . ...
ROW 26 : F#2 02 . ... : ... .. . ... : D-3 01 . ... : ... .. . ... : ... .. . F04
ROW 27 : ... .. . ... : ... .. . ... : --- .. . ... : ... .. . ... : ... .. . ...
ROW 28 : B-2 06 . ... : ... .. . ... : D-2 01 . ... : ... .. . ... : ... .. . F06
ROW 29 : ... .. . ... : ... .. . ... : ... .. . ... : ... .. . ... : ... .. . ...
ROW 2A : ... .. . ... : ... .. . ... : --- .. . ... : ... .. . ... : ... .. . F04
ROW 2B : ... .. . ... : ... .. . ... : ... .. . ... : ... .. . ... : ... .. . ...
ROW 2C : F#2 02 . ... : ... .. . ... : D-3 01 . ... : ... .. . ... : ... .. . F06
ROW 2D : ... .. . ... : ... .. . ... : --- .. . ... : ... .. . ... : ... .. . ...
ROW 2E : ... .. . ... : ... .. . ... : D-3 01 . ... : ... .. . ... : ... .. . F04
ROW 2F : ... .. . ... : ... .. . ... : --- .. . ... : ... .. . ... : ... .. . ...
ROW 30 : D-1 02 . ... : D-1 11 . ... : D-2 01 . ... : ... .. . ... : ... .. . F06
ROW 31 : ... .. . ... : ... .. . ... : ... .. . ... : ... .. . ... : ... .. . ...
ROW 32 : ... .. . ... : ... .. . ... : ... .. . ... : ... .. . ... : ... .. . F04
ROW 33 : ... .. . ... : ... .. . ... : ... .. . ... : ... .. . ... : ... .. . ...
ROW 34 : F#2 02 . ... : ... .. . ... : D-3 01 . ... : ... .. . ... : ... .. . F06
ROW 35 : ... .. . ... : ... .. . ... : --- .. . ... : ... .. . ... : ... .. . ...
ROW 36 : F#2 02 . ... : ... .. . ... : D-3 01 . ... : ... .. . ... : ... .. . F04
ROW 37 : ... .. . ... : ... .. . ... : --- .. . ... : ... .. . ... : ... .. . ...
ROW 38 : ... .. . ... : ... .. . ... : D-2 01 . ... : ... .. . ... : ... .. . F06
ROW 39 : ... .. . ... : ... .. . ... : --- .. . ... : ... .. . ... : ... .. . ...
ROW 3A : D-2 02 . ... : D-1 11 . ... : D-2 01 . ... : ... .. . ... : ... .. . F04
ROW 3B : ... .. . ... : ... .. . ... : ... .. . ... : ... .. . ... : ... .. . ...
ROW 3C : F#2 02 . ... : F#1 11 . ... : F#2 01 . ... : ... .. . ... : ... .. . F06
ROW 3D : ... .. . ... : ... .. . ... : ... .. . ... : ... .. . ... : ... .. . ...
ROW 3E : D-2 02 . ... : D-1 11 . ... : D-2 01 . ... : ... .. . ... : ... .. . F04
ROW 3F : ... .. . ... : ... .. . ... : ... .. . ... : ... .. . ... : ... .. . ...

PATTERN 02
ROW 00 : G-1 02 . ... : G-1 11 . ... : G-2 01 . ... : ... .. . ... : ... .. . F06
ROW 01 : ... .. . ... : ... .. . ... : ... .. . ... : ... .. . ... : ... .. . ...
ROW 02 : ... .. . ... : ... .. . ... : --- .. . ... : ... .. . ... : ... .. . F04
ROW 03 : ... .. . ... : ... .. . ... : ... .. . ... : ... .. . ... : ... .. . ...
ROW 04 : B-2 02 . ... : D-3 03 . ... : G-3 01 . ... : ... .. . ... : ... .. . F06
ROW 05 : ... .. . ... : --- .. . ... : --- .. . ... : ... .. . ... : ... .. . ...
ROW 06 : B-2 02 . ... : ... .. . ... : G-3 01 . ... : ... .. . ... : ... .. . F04
ROW 07 : ... .. . ... : C#3 03 . ... : --- .. . ... : ... .. . ... : ... .. . ...
ROW 08 : ... .. . ... : D-3 03 . ... : G-2 01 . ... : ... .. . ... : ... .. . F06
ROW 09 : C#3 06 . ... : ... .. . ... : ... .. . ... : ... .. . ... : ... .. . ...
ROW 0A : D-3 06 . ... : ... .. . ... : --- .. . ... : ... .. . ... : ... .. . F04
ROW 0B : ... .. . ... : ... .. . ... : ... .. . ... : ... .. . ... : ... .. . ...
ROW 0C : B-2 02 . ... : C-3 03 . ... : G-3 01 . ... : ... .. . ... : ... .. . F06
ROW 0D : ... .. . ... : --- 03 . ... : --- .. . ... : ... .. . ... : ... .. . ...
ROW 0E : C-3 06 . ... : D-3 03 . ... : ... .. . ... : ... .. . ... : ... .. . F04
ROW 0F : --- .. . ... : ... .. . ... : ... .. . ... : ... .. . ... : ... .. . ...
ROW 10 : F-1 02 . ... : F-1 11 . ... : F-2 01 . ... : ... .. . ... : ... .. . F06
ROW 11 : ... .. . ... : ... .. . ... : ... .. . ... : ... .. . ... : ... .. . ...
ROW 12 : ... .. . ... : ... .. . ... : --- .. . ... : ... .. . ... : ... .. . F04
ROW 13 : ... .. . ... : ... .. . ... : ... .. . ... : ... .. . ... : ... .. . ...
ROW 14 : A-2 02 . ... : D-3 03 . ... : F-3 01 . ... : ... .. . ... : ... .. . F06
ROW 15 : ... .. . ... : ... .. . ... : --- .. . ... : ... .. . ... : ... .. . ...
ROW 16 : A-2 02 . ... : ... .. . ... : F-3 01 . ... : ... .. . ... : ... .. . F04
ROW 17 : ... .. . ... : ... .. . ... : --- .. . ... : ... .. . ... : ... .. . ...
ROW 18 : D-3 06 . ... : F-3 03 . ... : F-2 01 . ... : ... .. . ... : ... .. . F06
ROW 19 : ... .. . ... : ... .. . ... : ... .. . ... : ... .. . ... : ... .. . ...
ROW 1A : F-3 06 . ... : D-3 03 . ... : --- .. . ... : ... .. . ... : ... .. . F04
ROW 1B : ... .. . ... : ... .. . ... : ... .. . ... : ... .. . ... : ... .. . ...
ROW 1C : A-2 02 . ... : ... .. . ... : F-3 01 . ... : ... .. . ... : ... .. . F06
ROW 1D : ... .. . ... : ... .. . ... : --- .. . ... : ... .. . ... : ... .. . ...
ROW 1E : D-3 06 . ... : ... .. . ... : ... .. . ... : ... .. . ... : ... .. . F04
ROW 1F : ... .. . ... : B-3 03 . ... : ... .. . ... : ... .. . ... : ... .. . ...
ROW 20 : C-1 02 . ... : C-4 03 . ... : C-2 01 . ... : ... .. . ... : ... .. . F06
ROW 21 : ... .. . ... : ... .. . ... : ... .. . ... : ... .. . ... : ... .. . ...
ROW 22 : C-4 06 . ... : ... .. . ... : --- .. . ... : ... .. . ... : ... .. . F04
ROW 23 : ... .. . ... : ... .. . ... : ... .. . ... : ... .. . ... : ... .. . ...
ROW 24 : E-2 02 . ... : G-3 03 . ... : C-3 01 . ... : ... .. . ... : ... .. . F06
ROW 25 : ... .. . ... : ... .. . ... : --- .. . ... : ... .. . ... : ... .. . ...
ROW 26 : E-2 02 . ... : B-3 03 . ... : C-3 01 . ... : ... .. . ... : ... .. . F04
ROW 27 : ... .. . ... : ... .. . ... : --- .. . ... : ... .. . ... : ... .. . ...
ROW 28 : B-3 06 . ... : ... .. . ... : C-2 01 . ... : ... .. . ... : ... .. . F06
ROW 29 : ... .. . ... : ... .. . ... : ... .. . ... : ... .. . ... : ... .. . ...
ROW 2A : ... .. . ... : E-3 03 . ... : --- .. . ... : ... .. . ... : ... .. . F04
ROW 2B : ... .. . ... : ... .. . ... : ... .. . ... : ... .. . ... : ... .. . ...
ROW 2C : E-2 02 . ... : A-3 0F . ... : C-3 01 . ... : ... .. . ... : ... .. . F06
ROW 2D : ... .. . ... : ... .. . ... : --- .. . ... : ... .. . ... : ... .. . ...
ROW 2E : A-3 06 . ... : ... .. . ... : ... .. . ... : ... .. . ... : ... .. . F04
ROW 2F : ... .. . ... : ... .. . ... : ... .. . ... : ... .. . ... : ... .. . ...
ROW 30 : C-1 02 . ... : ... .. . ... : C-2 01 . ... : ... .. . ... : ... .. . F06
ROW 31 : ... .. . ... : ... .. . ... : ... .. . ... : ... .. . ... : ... .. . ...
ROW 32 : A-3 06 . ... : ... .. . ... : --- .. . ... : ... .. . ... : ... .. . F04
ROW 33 : ... .. . ... : ... .. . ... : ... .. . ... : ... .. . ... : ... .. . ...
ROW 34 : E-2 02 . ... : G-3 03 . ... : C-3 01 . ... : ... .. . ... : ... .. . F06
ROW 35 : ... .. . ... : ... .. . ... : --- .. . ... : ... .. . ... : ... .. . ...
ROW 36 : E-2 02 . ... : G-3 03 . ... : C-3 01 . ... : ... .. . ... : ... .. . F04
ROW 37 : ... .. . ... : ... .. . ... : --- .. . ... : ... .. . ... : ... .. . ...
ROW 38 : G-3 06 . ... : ... .. . ... : C-2 01 . ... : ... .. . ... : ... .. . F06
ROW 39 : ... .. . ... : ... .. . ... : --- .. . ... : ... .. . ... : ... .. . ...
ROW 3A : ... .. . ... : ... .. . ... : C-2 01 . ... : ... .. . ... : ... .. . F04
ROW 3B : ... .. . ... : ... .. . ... : ... .. . ... : ... .. . ... : ... .. . ...
ROW 3C : E-2 02 . ... : G-3 03 . ... : E-2 01 . ... : ... .. . ... : ... .. . F06
ROW 3D : ... .. . ... : ... .. . ... : ... .. . ... : ... .. . ... : ... .. . ...
ROW 3E : G-3 06 . ... : ... .. . ... : C-2 01 . ... : ... .. . ... : ... .. . F04
ROW 3F : ... .. . ... : ... .. . ... : ... .. . ... : ... .. . ... : ... .. . ...

PATTERN 03
ROW 00 : G-1 02 . ... : G-1 11 . ... : G-2 01 . ... : ... .. . ... : ... .. . F06
ROW 01 : ... .. . ... : ... .. . ... : ... .. . ... : ... .. . ... : ... .. . ...
ROW 02 : ... .. . ... : ... .. . ... : --- .. . ... : ... .. . ... : ... .. . F04
ROW 03 : ... .. . ... : ... .. . ... : ... .. . ... : ... .. . ... : ... .. . ...
ROW 04 : B-2 02 . ... : F-3 03 . ... : G-3 01 . ... : ... .. . ... : ... .. . F06
ROW 05 : ... .. . ... : ... .. . ... : --- .. . ... : ... .. . ... : ... .. . ...
ROW 06 : B-2 02 . ... : E-3 03 . ... : G-3 01 . ... : ... .. . ... : ... .. . F04
ROW 07 : ... .. . ... : --- .. . ... : --- .. . ... : ... .. . ... : ... .. . ...
ROW 08 : E-3 06 . ... : ... .. . ... : G-2 01 . ... : ... .. . ... : ... .. . F06
ROW 09 : --- .. . ... : ... .. . ... : ... .. . ... : ... .. . ... : ... .. . ...
ROW 0A : ... .. . ... : ... .. . ... : --- .. . ... : ... .. . ... : ... .. . F04
ROW 0B : ... .. . ... : ... .. . ... : ... .. . ... : ... .. . ... : ... .. . ...
ROW 0C : B-2 02 . ... : E-3 03 . ... : G-3 01 . ... : ... .. . ... : ... .. . F06
ROW 0D : ... .. . ... : ... .. . ... : --- .. . ... : ... .. . ... : ... .. . ...
ROW 0E : E-3 06 . ... : F-3 03 . ... : ... .. . ... : ... .. . ... : ... .. . F04
ROW 0F : ... .. . ... : ... .. . ... : ... .. . ... : ... .. . ... : ... .. . ...
ROW 10 : F-1 02 . ... : ... .. . ... : F-2 01 . ... : ... .. . ... : ... .. . F06
ROW 11 : ... .. . ... : ... .. . ... : ... .. . ... : ... .. . ... : ... .. . ...
ROW 12 : F-3 06 . ... : ... .. . ... : --- .. . ... : ... .. . ... : ... .. . F04
ROW 13 : ... .. . ... : ... .. . ... : ... .. . ... : ... .. . ... : ... .. . ...
ROW 14 : A-2 02 . ... : ... .. . ... : F-3 01 . ... : ... .. . ... : ... .. . F06
ROW 15 : ... .. . ... : ... .. . ... : --- .. . ... : ... .. . ... : ... .. . ...
ROW 16 : A-2 02 . ... : E-3 03 . ... : F-3 01 . ... : ... .. . ... : ... .. . F04
ROW 17 : ... .. . ... : ... .. . ... : --- .. . ... : ... .. . ... : ... .. . ...
ROW 18 : E-3 06 . ... : F-3 03 . ... : F-2 01 . ... : ... .. . ... : ... .. . F06
ROW 19 : ... .. . ... : ... .. . ... : ... .. . ... : ... .. . ... : ... .. . ...
ROW 1A : F-3 06 . ... : ... .. . ... : --- .. . ... : ... .. . ... : ... .. . F04
ROW 1B : ... .. . ... : ... .. . ... : ... .. . ... : ... .. . ... : ... .. . ...
ROW 1C : A-2 02 . ... : G-3 03 . ... : F-3 01 . ... : ... .. . ... : ... .. . F06
ROW 1D : ... .. . ... : ... .. . ... : --- .. . ... : ... .. . ... : ... .. . ...
ROW 1E : G-3 06 . ... : ... .. . ... : ... .. . ... : ... .. . ... : ... .. . F04
ROW 1F : ... .. . ... : B-3 03 . ... : ... .. . ... : ... .. . ... : ... .. . ...
ROW 20 : D-1 02 . ... : C-4 03 . ... : D-2 01 . ... : ... .. . ... : ... .. . F06
ROW 21 : B-3 06 . ... : ... .. . ... : ... .. . ... : ... .. . ... : ... .. . ...
ROW 22 : C-4 06 . ... : D-4 03 . ... : --- .. . ... : ... .. . ... : ... .. . F04
ROW 23 : ... .. . ... : ... .. . ... : ... .. . ... : ... .. . ... : ... .. . ...
ROW 24 : F#2 02 . ... : ... .. . ... : D-3 01 . ... : ... .. . ... : ... .. . F06
ROW 25 : ... .. . ... : ... .. . ... : --- .. . ... : ... .. . ... : ... .. . ...
ROW 26 : F#2 02 . ... : ... .. . ... : D-3 01 . ... : ... .. . ... : ... .. . F04
ROW 27 : ... .. . ... : ... .. . ... : --- .. . ... : ... .. . ... : ... .. . ...
ROW 28 : D-4 06 . ... : ... .. . ... : D-2 01 . ... : ... .. . ... : ... .. . F06
ROW 29 : ... .. . ... : ... .. . ... : ... .. . ... : ... .. . ... : ... .. . ...
ROW 2A : ... .. . ... : ... .. . ... : --- .. . ... : ... .. . ... : ... .. . F04
ROW 2B : ... .. . ... : ... .. . ... : ... .. . ... : ... .. . ... : ... .. . ...
ROW 2C : F#2 02 . ... : ... .. . ... : D-3 01 . ... : ... .. . ... : ... .. . F06
ROW 2D : ... .. . ... : ... .. . ... : --- .. . ... : ... .. . ... : ... .. . ...
ROW 2E : ... .. . ... : ... .. . ... : D-3 01 . ... : ... .. . ... : ... .. . F04
ROW 2F : ... .. . ... : ... .. . ... : --- .. . ... : ... .. . ... : ... .. . ...
ROW 30 : D-1 02 . ... : ... .. . ... : D-2 01 . ... : ... .. . ... : ... .. . F06
ROW 31 : ... .. . ... : ... .. . ... : ... .. . ... : ... .. . ... : ... .. . ...
ROW 32 : ... .. . ... : ... .. . ... : ... .. . ... : ... .. . ... : ... .. . F04
ROW 33 : ... .. . ... : ... .. . ... : ... .. . ... : ... .. . ... : ... .. . ...
ROW 34 : ... .. . ... : G-2 07 . ... : ... .. . ... : ... .. . ... : ... .. . F06
ROW 35 : ... .. . ... : ... .. . ... : ... .. . ... : ... .. . ... : ... .. . ...
ROW 36 : G-2 0A . ... : ... .. . ... : ... .. . ... : ... .. . ... : ... .. . F04
ROW 37 : ... .. . ... : G#2 07 . ... : G#2 01 . ... : ... .. . ... : ... .. . ...
ROW 38 : ... .. . ... : A-2 07 . ... : A-2 01 . ... : F-# 04 . ... : ... .. . F06
ROW 39 : G#2 0A . ... : ... .. . ... : ... .. . ... : ... .. . ... : ... .. . ...
ROW 3A : A-2 0A . ... : ... .. . ... : --- .. . ... : F-# 04 . ... : ... .. . F04
ROW 3B : ... .. . ... : ... .. . ... : ... .. . ... : ... .. . ... : ... .. . ...
ROW 3C : ... .. . ... : G-2 07 . ... : G-2 01 . ... : F-# 05 . ... : ... .. . F06
ROW 3D : ... .. . ... : ... .. . ... : ... .. . ... : ... .. . ... : ... .. . ...
ROW 3E : G-2 0A . ... : ... .. . ... : --- .. . ... : ... .. . ... : ... .. . F04
ROW 3F : ... .. . ... : ... .. . ... : ... .. . ... : ... .. . ... : ... .. . ...

PATTERN 04
ROW 00 : C-1 02 . ... : C-3 07 . ... : C-2 01 . ... : F-# 05 . ... : ... .. . F06
ROW 01 : ... .. . ... : ... .. . ... : ... .. . ... : ... .. . ... : ... .. . ...
ROW 02 : C-3 0A . ... : ... .. . ... : --- .. . ... : ... .. . ... : ... .. . F04
ROW 03 : ... .. . ... : ... .. . ... : ... .. . ... : ... .. . ... : ... .. . ...
ROW 04 : E-2 02 . ... : ... .. . ... : C-2 01 . ... : F-# 04 . ... : ... .. . F06
ROW 05 : ... .. . ... : ... .. . ... : --- .. . ... : ... .. . ... : ... .. . ...
ROW 06 : E-2 02 . ... : ... .. . ... : C-2 01 . ... : F-# 04 . ... : ... .. . F04
ROW 07 : ... .. . ... : ... .. . ... : --- .. . ... : ... .. . ... : ... .. . ...
ROW 08 : C-3 0A . ... : ... .. . ... : C-3 08 . ... : F-# 09 . ... : ... .. . F06
ROW 09 : ... .. . ... : ... .. . ... : ... .. . ... : ... .. . ... : ... .. . ...
ROW 0A : E-2 02 . ... : ... .. . ... : C-3 01 . ... : ... .. . ... : ... .. . F04
ROW 0B : ... .. . ... : ... .. . ... : --- .. . ... : ... .. . ... : ... .. . ...
ROW 0C : ... .. . ... : C-3 07 . ... : E-2 01 . ... : F-# 05 . ... : ... .. . F06
ROW 0D : ... .. . ... : ... .. . ... : ... .. . ... : ... .. . ... : ... .. . ...
ROW 0E : C-3 0A . ... : D-3 07 . ... : C-2 01 . ... : F-# 04 . ... : ... .. . F04
ROW 0F : ... .. . ... : ... .. . ... : --- .. . ... : ... .. . ... : ... .. . ...
ROW 10 : D-1 02 . ... : ... .. . ... : D-2 01 . ... : F-# 05 . ... : ... .. . F06
ROW 11 : ... .. . ... : ... .. . ... : ... .. . ... : ... .. . ... : ... .. . ...
ROW 12 : D-3 0A . ... : ... .. . ... : --- .. . ... : ... .. . ... : ... .. . F04
ROW 13 : ... .. . ... : ... .. . ... : ... .. . ... : ... .. . ... : ... .. . ...
ROW 14 : F#2 02 . ... : C-3 07 . ... : D-2 01 . ... : F-# 04 . ... : ... .. . F06
ROW 15 : ... .. . ... : ... .. . ... : --- .. . ... : ... .. . ... : ... .. . ...
ROW 16 : F#2 02 . ... : ... .. . ... : D-2 01 . ... : F-# 04 . ... : ... .. . F04
ROW 17 : ... .. . ... : ... .. . ... : --- .. . ... : ... .. . ... : ... .. . ...
ROW 18 : C-3 0A . ... : B-2 07 . ... : C-3 08 . ... : F-# 09 . ... : ... .. . F06
ROW 19 : ... .. . ... : ... .. . ... : ... .. . ... : ... .. . ... : ... .. . ...
ROW 1A : F#2 02 . ... : ... .. . ... : D-3 01 . ... : ... .. . ... : ... .. . F04
ROW 1B : ... .. . ... : ... .. . ... : --- .. . ... : ... .. . ... : ... .. . ...
ROW 1C : B-2 0A . ... : A-2 07 . ... : F#2 01 . ... : F-# 04 . ... : ... .. . F06
ROW 1D : ... .. . ... : ... .. . ... : ... .. . ... : ... .. . ... : ... .. . ...
ROW 1E : A-2 0A . ... : ... .. . ... : D-2 01 . ... : ... .. . ... : ... .. . F04
ROW 1F : ... .. . ... : A#2 07 . ... : --- 01 . ... : ... .. . ... : ... .. . ...
ROW 20 : G-1 02 . ... : B-2 07 . ... : G-2 01 . ... : F-# 05 . ... : ... .. . F06
ROW 21 : ... .. . ... : ... .. . ... : ... .. . ... : ... .. . ... : ... .. . ...
ROW 22 : B-2 0A . ... : ... .. . ... : --- .. . ... : ... .. . ... : ... .. . F04
ROW 23 : ... .. . ... : ... .. . ... : ... .. . ... : ... .. . ... : ... .. . ...
ROW 24 : B-2 02 . ... : ... .. . ... : G-2 01 . ... : F-# 04 . ... : ... .. . F06
ROW 25 : ... .. . ... : ... .. . ... : --- .. . ... : ... .. . ... : ... .. . ...
ROW 26 : B-2 02 . ... : ... .. . ... : G-2 01 . ... : F-# 04 . ... : ... .. . F04
ROW 27 : ... .. . ... : ... .. . ... : --- .. . ... : ... .. . ... : ... .. . ...
ROW 28 : B-2 0A . ... : A-2 07 . ... : C-3 08 . ... : F-# 09 . ... : ... .. . F06
ROW 29 : ... .. . ... : ... .. . ... : ... .. . ... : ... .. . ... : ... .. . ...
ROW 2A : B-2 02 . ... : ... .. . ... : G-3 01 . ... : ... .. . ... : ... .. . F04
ROW 2B : ... .. . ... : ... .. . ... : --- .. . ... : ... .. . ... : ... .. . ...
ROW 2C : A-2 0A . ... : ... .. . ... : E-3 01 . ... : F-# 05 . ... : ... .. . F06
ROW 2D : ... .. . ... : ... .. . ... : ... .. . ... : ... .. . ... : ... .. . ...
ROW 2E : ... .. . ... : ... .. . ... : G-2 01 . ... : F-# 04 . ... : ... .. . F04
ROW 2F : ... .. . ... : ... .. . ... : --- .. . ... : ... .. . ... : ... .. . ...
ROW 30 : E-1 02 . ... : G-2 07 . ... : E-2 01 . ... : F-# 05 . ... : ... .. . F06
ROW 31 : ... .. . ... : ... .. . ... : ... .. . ... : ... .. . ... : ... .. . ...
ROW 32 : G-2 0A . ... : ... .. . ... : --- .. . ... : ... .. . ... : ... .. . F04
ROW 33 : ... .. . ... : ... .. . ... : ... .. . ... : ... .. . ... : ... .. . ...
ROW 34 : G-2 02 . ... : ... .. . ... : E-2 01 . ... : F-# 04 . ... : ... .. . F06
ROW 35 : ... .. . ... : ... .. . ... : --- .. . ... : ... .. . ... : ... .. . ...
ROW 36 : G-2 02 . ... : ... .. . ... : E-2 01 . ... : F-# 04 . ... : ... .. . F04
ROW 37 : ... .. . ... : ... .. . ... : --- .. . ... : ... .. . ... : ... .. . ...
ROW 38 : G-2 0A . ... : ... .. . ... : C-3 08 . ... : F-# 09 . ... : ... .. . F06
ROW 39 : ... .. . ... : ... .. . ... : ... .. . ... : ... .. . ... : ... .. . ...
ROW 3A : G-2 02 . ... : ... .. . ... : E-3 01 . ... : ... .. . ... : ... .. . F04
ROW 3B : ... .. . ... : ... .. . ... : --- .. . ... : ... .. . ... : ... .. . ...
ROW 3C : ... .. . ... : A-2 07 . ... : G-2 01 . ... : F-# 04 . ... : ... .. . F06
ROW 3D : ... .. . ... : ... .. . ... : ... .. . ... : ... .. . ... : ... .. . ...
ROW 3E : A-2 0A . ... : ... .. . ... : E-2 01 . ... : ... .. . ... : ... .. . F04
ROW 3F : ... .. . ... : ... .. . ... : --- .. . ... : ... .. . ... : ... .. . ...

PATTERN 05
ROW 00 : C-1 02 . ... : C-3 07 . ... : C-2 01 . ... : F-# 05 . ... : ... .. . F06
ROW 01 : ... .. . ... : ... .. . ... : ... .. . ... : ... .. . ... : ... .. . ...
ROW 02 : C-3 0A . ... : ... .. . ... : --- .. . ... : ... .. . ... : ... .. . F04
ROW 03 : ... .. . ... : ... .. . ... : ... .. . ... : ... .. . ... : ... .. . ...
ROW 04 : E-2 02 . ... : ... .. . ... : C-2 01 . ... : F-# 04 . ... : ... .. . F06
ROW 05 : ... .. . ... : ... .. . ... : --- .. . ... : ... .. . ... : ... .. . ...
ROW 06 : E-2 02 . ... : ... .. . ... : C-2 01 . ... : F-# 04 . ... : ... .. . F04
ROW 07 : ... .. . ... : ... .. . ... : --- .. . ... : ... .. . ... : ... .. . ...
ROW 08 : C-3 0A . ... : ... .. . ... : C-3 08 . ... : F-# 09 . ... : ... .. . F06
ROW 09 : ... .. . ... : ... .. . ... : ... .. . ... : ... .. . ... : ... .. . ...
ROW 0A : E-2 02 . ... : ... .. . ... : C-3 01 . ... : ... .. . ... : ... .. . F04
ROW 0B : ... .. . ... : ... .. . ... : --- .. . ... : ... .. . ... : ... .. . ...
ROW 0C : ... .. . ... : C-3 07 . ... : E-2 01 . ... : F-# 05 . ... : ... .. . F06
ROW 0D : ... .. . ... : ... .. . ... : ... .. . ... : ... .. . ... : ... .. . ...
ROW 0E : C-3 0A . ... : D-3 07 . ... : C-2 01 . ... : F-# 04 . ... : ... .. . F04
ROW 0F : ... .. . ... : ... .. . ... : --- .. . ... : ... .. . ... : ... .. . ...
ROW 10 : D-1 02 . ... : ... .. . ... : D-2 01 . ... : F-# 05 . ... : ... .. . F06
ROW 11 : ... .. . ... : ... .. . ... : ... .. . ... : ... .. . ... : ... .. . ...
ROW 12 : D-3 0A . ... : ... .. . ... : --- .. . ... : ... .. . ... : ... .. . F04
ROW 13 : ... .. . ... : ... .. . ... : ... .. . ... : ... .. . ... : ... .. . ...
ROW 14 : F#2 02 . ... : C-3 07 . ... : D-2 01 . ... : F-# 04 . ... : ... .. . F06
ROW 15 : ... .. . ... : ... .. . ... : --- .. . ... : ... .. . ... : ... .. . ...
ROW 16 : F#2 02 . ... : ... .. . ... : D-2 01 . ... : F-# 04 . ... : ... .. . F04
ROW 17 : ... .. . ... : ... .. . ... : --- .. . ... : ... .. . ... : ... .. . ...
ROW 18 : C-3 0A . ... : B-2 07 . ... : C-3 08 . ... : F-# 09 . ... : ... .. . F06
ROW 19 : ... .. . ... : ... .. . ... : ... .. . ... : ... .. . ... : ... .. . ...
ROW 1A : F#2 02 . ... : ... .. . ... : D-3 01 . ... : ... .. . ... : ... .. . F04
ROW 1B : ... .. . ... : ... .. . ... : --- .. . ... : ... .. . ... : ... .. . ...
ROW 1C : B-2 0A . ... : F#2 07 . ... : F#2 01 . ... : F-# 04 . ... : ... .. . F06
ROW 1D : ... .. . ... : ... .. . ... : ... .. . ... : ... .. . ... : ... .. . ...
ROW 1E : F#2 0A . ... : G-2 07 . ... : D-2 01 . ... : ... .. . ... : ... .. . F04
ROW 1F : ... .. . ... : ... .. . ... : --- 01 . ... : ... .. . ... : ... .. . ...
ROW 20 : E-1 02 . ... : ... .. . ... : E-2 02 . ... : F-# 05 . ... : ... .. . F06
ROW 21 : ... .. . ... : ... .. . ... : ... .. . ... : ... .. . ... : ... .. . ...
ROW 22 : G-2 0A . ... : ... .. . ... : --- .. . ... : ... .. . ... : ... .. . F04
ROW 23 : ... .. . ... : ... .. . ... : ... .. . ... : ... .. . ... : ... .. . ...
ROW 24 : G-2 02 . ... : ... .. . ... : E-2 02 . ... : F-# 04 . ... : ... .. . F06
ROW 25 : ... .. . ... : ... .. . ... : --- .. . ... : ... .. . ... : ... .. . ...
ROW 26 : G-2 02 . ... : ... .. . ... : E-2 02 . ... : F-# 04 . ... : ... .. . F04
ROW 27 : ... .. . ... : ... .. . ... : --- .. . ... : ... .. . ... : ... .. . ...
ROW 28 : G-2 0A . ... : ... .. . ... : C-3 08 . ... : F-# 09 . ... : ... .. . F06
ROW 29 : ... .. . ... : ... .. . ... : ... .. . ... : ... .. . ... : ... .. . ...
ROW 2A : G-2 02 . ... : ... .. . ... : E-3 02 . ... : ... .. . ... : ... .. . F04
ROW 2B : ... .. . ... : ... .. . ... : --- .. . ... : ... .. . ... : ... .. . ...
ROW 2C : ... .. . ... : ... .. . ... : E-2 02 . ... : F-# 05 . ... : ... .. . F06
ROW 2D : ... .. . ... : ... .. . ... : ... .. . ... : ... .. . ... : ... .. . ...
ROW 2E : ... .. . ... : ... .. . ... : G-2 02 . ... : F-# 04 . ... : ... .. . F04
ROW 2F : ... .. . ... : ... .. . ... : --- .. . ... : ... .. . ... : ... .. . ...
ROW 30 : E-1 02 . ... : ... .. . ... : E-2 02 . ... : F-# 05 . ... : ... .. . F06
ROW 31 : ... .. . ... : ... .. . ... : ... .. . ... : ... .. . ... : ... .. . ...
ROW 32 : ... .. . ... : ... .. . ... : ... .. . ... : ... .. . ... : ... .. . F04
ROW 33 : ... .. . ... : ... .. . ... : ... .. . ... : ... .. . ... : ... .. . ...
ROW 34 : G-2 02 . ... : G-2 07 . ... : --- 02 . ... : F-# 04 . ... : ... .. . F06
ROW 35 : ... .. . ... : ... .. . ... : ... .. . ... : ... .. . ... : ... .. . ...
ROW 36 : G-2 0A . ... : ... .. . ... : ... .. . ... : F-# 04 . ... : ... .. . F04
ROW 37 : ... .. . ... : G#2 07 . ... : ... .. . ... : ... .. . ... : ... .. . ...
ROW 38 : E-1 02 . ... : A-2 07 . ... : C-3 08 . ... : F-# 09 . ... : ... .. . F06
ROW 39 : G#2 0A . ... : ... .. . ... : ... .. . ... : ... .. . ... : ... .. . ...
ROW 3A : A-2 0A . ... : ... .. . ... : E-2 01 . ... : ... .. . ... : ... .. . F04
ROW 3B : ... .. . ... : ... .. . ... : --- .. . ... : ... .. . ... : ... .. . ...
ROW 3C : D-1 02 . ... : G-2 07 . ... : D-3 01 . ... : F-# 04 . ... : ... .. . F06
ROW 3D : ... .. . ... : ... .. . ... : --- .. . ... : ... .. . ... : ... .. . ...
ROW 3E : G-2 0A . ... : ... .. . ... : D-2 01 . ... : ... .. . ... : ... .. . F04
ROW 3F : ... .. . ... : ... .. . ... : --- .. . ... : ... .. . ... : ... .. . ...

PATTERN 06
ROW 00 : C-1 02 . ... : C-3 07 . ... : C-2 01 . ... : F-# 05 . ... : ... .. . F06
ROW 01 : ... .. . ... : ... .. . ... : ... .. . ... : ... .. . ... : ... .. . ...
ROW 02 : C-3 0A . ... : ... .. . ... : --- .. . ... : ... .. . ... : ... .. . F04
ROW 03 : ... .. . ... : ... .. . ... : ... .. . ... : ... .. . ... : ... .. . ...
ROW 04 : E-2 02 . ... : ... .. . ... : C-2 01 . ... : F-# 04 . ... : ... .. . F06
ROW 05 : ... .. . ... : ... .. . ... : --- .. . ... : ... .. . ... : ... .. . ...
ROW 06 : E-2 02 . ... : ... .. . ... : C-2 01 . ... : F-# 04 . ... : ... .. . F04
ROW 07 : ... .. . ... : ... .. . ... : --- .. . ... : ... .. . ... : ... .. . ...
ROW 08 : C-3 0A . ... : ... .. . ... : C-3 08 . ... : F-# 09 . ... : ... .. . F06
ROW 09 : ... .. . ... : ... .. . ... : ... .. . ... : ... .. . ... : ... .. . ...
ROW 0A : E-2 02 . ... : ... .. . ... : C-3 01 . ... : ... .. . ... : ... .. . F04
ROW 0B : ... .. . ... : ... .. . ... : --- .. . ... : ... .. . ... : ... .. . ...
ROW 0C : ... .. . ... : C-3 07 . ... : E-2 01 . ... : F-# 05 . ... : ... .. . F06
ROW 0D : ... .. . ... : ... .. . ... : ... .. . ... : ... .. . ... : ... .. . ...
ROW 0E : C-3 0A . ... : D-3 07 . ... : C-2 01 . ... : F-# 04 . ... : ... .. . F04
ROW 0F : ... .. . ... : ... .. . ... : --- .. . ... : ... .. . ... : ... .. . ...
ROW 10 : D-1 02 . ... : ... .. . ... : D-2 01 . ... : F-# 05 . ... : ... .. . F06
ROW 11 : ... .. . ... : ... .. . ... : ... .. . ... : ... .. . ... : ... .. . ...
ROW 12 : D-3 0A . ... : ... .. . ... : --- .. . ... : ... .. . ... : ... .. . F04
ROW 13 : ... .. . ... : ... .. . ... : ... .. . ... : ... .. . ... : ... .. . ...
ROW 14 : F#2 02 . ... : C-3 07 . ... : D-2 01 . ... : F-# 04 . ... : ... .. . F06
ROW 15 : ... .. . ... : ... .. . ... : --- .. . ... : ... .. . ... : ... .. . ...
ROW 16 : F#2 02 . ... : ... .. . ... : D-2 01 . ... : F-# 04 . ... : ... .. . F04
ROW 17 : ... .. . ... : ... .. . ... : --- .. . ... : ... .. . ... : ... .. . ...
ROW 18 : C-3 0A . ... : B-2 07 . ... : C-3 08 . ... : F-# 09 . ... : ... .. . F06
ROW 19 : ... .. . ... : ... .. . ... : ... .. . ... : ... .. . ... : ... .. . ...
ROW 1A : F#2 02 . ... : ... .. . ... : D-3 01 . ... : ... .. . ... : ... .. . F04
ROW 1B : ... .. . ... : ... .. . ... : --- .. . ... : ... .. . ... : ... .. . ...
ROW 1C : B-2 0A . ... : A-2 07 . ... : F#2 01 . ... : F-# 04 . ... : ... .. . F06
ROW 1D : ... .. . ... : ... .. . ... : ... .. . ... : ... .. . ... : ... .. . ...
ROW 1E : A-2 0A . ... : B-2 07 . ... : D-2 01 . ... : ... .. . ... : ... .. . F04
ROW 1F : ... .. . ... : ... .. . ... : --- 01 . ... : ... .. . ... : ... .. . ...
ROW 20 : G-1 02 . ... : ... .. . ... : G-2 01 . ... : F-# 05 . ... : ... .. . F06
ROW 21 : ... .. . ... : ... .. . ... : ... .. . ... : ... .. . ... : ... .. . ...
ROW 22 : B-2 0A . ... : ... .. . ... : --- .. . ... : ... .. . ... : ... .. . F04
ROW 23 : ... .. . ... : ... .. . ... : ... .. . ... : ... .. . ... : ... .. . ...
ROW 24 : B-2 02 . ... : ... .. . ... : G-2 01 . ... : F-# 04 . ... : ... .. . F06
ROW 25 : ... .. . ... : ... .. . ... : --- .. . ... : ... .. . ... : ... .. . ...
ROW 26 : B-2 02 . ... : ... .. . ... : G-2 01 . ... : F-# 04 . ... : ... .. . F04
ROW 27 : ... .. . ... : ... .. . ... : --- .. . ... : ... .. . ... : ... .. . ...
ROW 28 : B-2 0A . ... : ... .. . ... : C-3 08 . ... : F-# 09 . ... : ... .. . F06
ROW 29 : ... .. . ... : ... .. . ... : ... .. . ... : ... .. . ... : ... .. . ...
ROW 2A : B-2 02 . ... : ... .. . ... : G-3 01 . ... : ... .. . ... : ... .. . F04
ROW 2B : ... .. . ... : ... .. . ... : --- .. . ... : ... .. . ... : ... .. . ...
ROW 2C : ... .. . ... : E-3 07 . ... : E-3 01 . ... : F-# 05 . ... : ... .. . F06
ROW 2D : ... .. . ... : ... .. . ... : ... .. . ... : ... .. . ... : ... .. . ...
ROW 2E : E-3 0A . ... : F-3 07 . ... : G-2 01 . ... : F-# 04 . ... : ... .. . F04
ROW 2F : ... .. . ... : ... .. . ... : --- .. . ... : ... .. . ... : ... .. . ...
ROW 30 : E-1 02 . ... : ... .. . ... : E-2 01 . ... : F-# 05 . ... : ... .. . F06
ROW 31 : ... .. . ... : ... .. . ... : ... .. . ... : ... .. . ... : ... .. . ...
ROW 32 : F-3 0A . ... : ... .. . ... : --- .. . ... : ... .. . ... : ... .. . F04
ROW 33 : ... .. . ... : ... .. . ... : ... .. . ... : ... .. . ... : ... .. . ...
ROW 34 : G-2 02 . ... : E-3 07 . ... : E-2 01 . ... : F-# 04 . ... : ... .. . F06
ROW 35 : ... .. . ... : ... .. . ... : --- .. . ... : ... .. . ... : ... .. . ...
ROW 36 : G-2 02 . ... : ... .. . ... : E-2 01 . ... : F-# 04 . ... : ... .. . F04
ROW 37 : ... .. . ... : ... .. . ... : --- .. . ... : ... .. . ... : ... .. . ...
ROW 38 : E-3 0A . ... : D-3 07 . ... : C-3 08 . ... : F-# 09 . ... : ... .. . F06
ROW 39 : ... .. . ... : ... .. . ... : ... .. . ... : ... .. . ... : ... .. . ...
ROW 3A : G-2 02 . ... : ... .. . ... : E-3 01 . ... : ... .. . ... : ... .. . F04
ROW 3B : ... .. . ... : ... .. . ... : --- .. . ... : ... .. . ... : ... .. . ...
ROW 3C : D-3 0A . ... : B-2 07 . ... : G-2 01 . ... : F-# 04 . ... : ... .. . F06
ROW 3D : ... .. . ... : ... .. . ... : ... .. . ... : ... .. . ... : ... .. . ...
ROW 3E : B-2 0A . ... : C-3 07 . ... : E-2 01 . ... : ... .. . ... : ... .. . F04
ROW 3F : ... .. . ... : ... .. . ... : --- .. . ... : ... .. . ... : ... .. . ...

PATTERN 07
ROW 00 : C-1 02 . ... : ... .. . ... : C-2 01 . ... : F-# 05 . ... : ... .. . F06
ROW 01 : ... .. . ... : ... .. . ... : ... .. . ... : ... .. . ... : ... .. . ...
ROW 02 : C-3 0A . ... : ... .. . ... : --- .. . ... : ... .. . ... : ... .. . F04
ROW 03 : ... .. . ... : ... .. . ... : ... .. . ... : ... .. . ... : ... .. . ...
ROW 04 : E-2 02 . ... : ... .. . ... : C-2 01 . ... : F-# 04 . ... : ... .. . F06
ROW 05 : ... .. . ... : ... .. . ... : --- .. . ... : ... .. . ... : ... .. . ...
ROW 06 : E-2 02 . ... : ... .. . ... : C-2 01 . ... : F-# 04 . ... : ... .. . F04
ROW 07 : ... .. . ... : ... .. . ... : --- .. . ... : ... .. . ... : ... .. . ...
ROW 08 : C-3 0A . ... : ... .. . ... : C-3 08 . ... : F-# 09 . ... : ... .. . F06
ROW 09 : ... .. . ... : ... .. . ... : ... .. . ... : ... .. . ... : ... .. . ...
ROW 0A : E-2 02 . ... : ... .. . ... : C-3 01 . ... : ... .. . ... : ... .. . F04
ROW 0B : ... .. . ... : ... .. . ... : --- .. . ... : ... .. . ... : ... .. . ...
ROW 0C : ... .. . ... : A-2 07 . ... : E-2 01 . ... : F-# 05 . ... : ... .. . F06
ROW 0D : ... .. . ... : ... .. . ... : ... .. . ... : ... .. . ... : ... .. . ...
ROW 0E : A-2 0A . ... : ... .. . ... : C-2 01 . ... : F-# 04 . ... : ... .. . F04
ROW 0F : ... .. . ... : A#2 07 . ... : --- .. . ... : ... .. . ... : ... .. . ...
ROW 10 : D-1 02 . ... : B-2 07 . ... : D-2 01 . ... : F-# 05 . ... : ... .. . F06
ROW 11 : A#2 0A . ... : ... .. . ... : ... .. . ... : ... .. . ... : ... .. . ...
ROW 12 : B-2 0A . ... : ... .. . ... : --- .. . ... : ... .. . ... : ... .. . F04
ROW 13 : ... .. . ... : ... .. . ... : ... .. . ... : ... .. . ... : ... .. . ...
ROW 14 : F#2 02 . ... : ... .. . ... : D-2 01 . ... : F-# 04 . ... : ... .. . F06
ROW 15 : ... .. . ... : ... .. . ... : --- .. . ... : ... .. . ... : ... .. . ...
ROW 16 : F#2 02 . ... : ... .. . ... : D-2 01 . ... : F-# 04 . ... : ... .. . F04
ROW 17 : ... .. . ... : ... .. . ... : --- .. . ... : ... .. . ... : ... .. . ...
ROW 18 : ... .. . ... : A-2 07 . ... : C-3 08 . ... : F-# 09 . ... : ... .. . F06
ROW 19 : ... .. . ... : ... .. . ... : ... .. . ... : ... .. . ... : ... .. . ...
ROW 1A : F#2 02 . ... : ... .. . ... : D-3 01 . ... : ... .. . ... : ... .. . F04
ROW 1B : ... .. . ... : ... .. . ... : --- .. . ... : ... .. . ... : ... .. . ...
ROW 1C : A-2 0A . ... : ... .. . ... : F#2 01 . ... : F-# 04 . ... : ... .. . F06
ROW 1D : ... .. . ... : ... .. . ... : ... .. . ... : ... .. . ... : ... .. . ...
ROW 1E : ... .. . ... : ... .. . ... : D-2 01 . ... : ... .. . ... : ... .. . F04
ROW 1F : ... .. . ... : ... .. . ... : --- 01 . ... : ... .. . ... : ... .. . ...
ROW 20 : G-1 02 . ... : G-2 07 . ... : G-2 01 . ... : F-# 05 . ... : ... .. . F06
ROW 21 : ... .. . ... : ... .. . ... : ... .. . ... : ... .. . ... : ... .. . ...
ROW 22 : G-2 0A . ... : ... .. . ... : --- .. . ... : ... .. . ... : ... .. . F04
ROW 23 : ... .. . ... : ... .. . ... : ... .. . ... : ... .. . ... : ... .. . ...
ROW 24 : B-2 02 . ... : ... .. . ... : G-2 01 . ... : F-# 04 . ... : ... .. . F06
ROW 25 : ... .. . ... : ... .. . ... : --- .. . ... : ... .. . ... : ... .. . ...
ROW 26 : B-2 02 . ... : ... .. . ... : G-2 01 . ... : F-# 04 . ... : ... .. . F04
ROW 27 : ... .. . ... : ... .. . ... : --- .. . ... : ... .. . ... : ... .. . ...
ROW 28 : G-2 0A . ... : ... .. . ... : C-3 08 . ... : F-# 09 . ... : ... .. . F06
ROW 29 : ... .. . ... : ... .. . ... : ... .. . ... : ... .. . ... : ... .. . ...
ROW 2A : B-2 02 . ... : ... .. . ... : G-3 01 . ... : ... .. . ... : ... .. . F04
ROW 2B : ... .. . ... : ... .. . ... : --- .. . ... : ... .. . ... : ... .. . ...
ROW 2C : ... .. . ... : ... .. . ... : B-2 01 . ... : F-# 05 . ... : ... .. . F06
ROW 2D : ... .. . ... : ... .. . ... : ... .. . ... : ... .. . ... : ... .. . ...
ROW 2E : ... .. . ... : ... .. . ... : G-2 01 . ... : F-# 04 . ... : ... .. . F04
ROW 2F : ... .. . ... : ... .. . ... : --- .. . ... : ... .. . ... : ... .. . ...
ROW 30 : G-1 02 . ... : ... .. . ... : G-2 01 . ... : F-# 05 . ... : ... .. . F06
ROW 31 : ... .. . ... : ... .. . ... : ... .. . ... : ... .. . ... : ... .. . ...
ROW 32 : ... .. . ... : ... .. . ... : ... .. . ... : ... .. . ... : ... .. . F04
ROW 33 : ... .. . ... : ... .. . ... : ... .. . ... : ... .. . ... : ... .. . ...
ROW 34 : ... .. . ... : ... .. . ... : ... .. . ... : ... .. . ... : ... .. . F06
ROW 35 : ... .. . ... : ... .. . ... : ... .. . ... : ... .. . ... : ... .. . ...
ROW 36 : ... .. . ... : ... .. . ... : ... .. . ... : ... .. . ... : ... .. . F04
ROW 37 : ... .. . ... : ... .. . ... : ... .. . ... : ... .. . ... : ... .. . ...
ROW 38 : ... .. . ... : ... .. . ... : --- 02 . ... : ... .. . ... : ... .. . F06
ROW 39 : ... .. . ... : ... .. . ... : ... .. . ... : ... .. . ... : ... .. . ...
ROW 3A : ... .. . ... : ... .. . ... : ... .. . ... : ... .. . ... : ... .. . F04
ROW 3B : ... .. . ... : ... .. . ... : ... .. . ... : ... .. . ... : ... .. . ...
ROW 3C : ... .. . ... : ... .. . ... : ... .. . ... : ... .. . ... : ... .. . F06
ROW 3D : ... .. . ... : ... .. . ... : ... .. . ... : ... .. . ... : ... .. . ...
ROW 3E : ... .. . ... : ... .. . ... : ... .. . ... : ... .. . ... : ... .. . F04
ROW 3F : ... .. . ... : ... .. . ... : ... .. . ... : ... .. . ... : ... .. . ...

TRACK  64   6 150 "Gameplay"
COLUMNS : 1 1 1 1 1

ORDER 00 : 00 00 00 00 00
ORDER 01 : 01 01 01 01 01
ORDER 02 : 02 02 02 02 02
ORDER 03 : 03 03 03 03 03
ORDER 04 : 04 04 04 04 04
ORDER 05 : 05 05 05 05 05
ORDER 06 : 06 06 06 06 06
ORDER 07 : 07 07 07 07 07
ORDER 08 : 06 06 06 06 06
ORDER 09 : 08 08 08 08 08

PATTERN 00
ROW 00 : G-1 0C . ... : ... .. . ... : G-2 0B . ... : ... .. . ... : ... .. . F06
ROW 01 : G-1 0D . ... : ... .. . ... : ... .. . ... : ... .. . ... : ... .. . ...
ROW 02 : G-1 0C . ... : ... .. . ... : G-2 0B . ... : ... .. . ... : ... .. . F04
ROW 03 : ... .. . ... : ... .. . ... : ... .. . ... : ... .. . ... : ... .. . ...
ROW 04 : G-1 0D . ... : ... .. . ... : ... .. . ... : F-# 04 . ... : ... .. . F06
ROW 05 : ... .. . ... : ... .. . ... : ... .. . ... : ... .. . ... : ... .. . ...
ROW 06 : C-2 0C . ... : ... .. . ... : C-3 0B . ... : ... .. . ... : ... .. . F04
ROW 07 : ... .. . ... : ... .. . ... : ... .. . ... : ... .. . ... : ... .. . ...
ROW 08 : C-2 0D . ... : ... .. . ... : ... .. . ... : ... .. . ... : ... .. . F06
ROW 09 : ... .. . ... : ... .. . ... : ... .. . ... : ... .. . ... : ... .. . ...
ROW 0A : C-2 0C . ... : ... .. . ... : C-3 0B . ... : ... .. . ... : ... .. . F04
ROW 0B : C-2 0D . ... : ... .. . ... : ... .. . ... : ... .. . ... : ... .. . ...
ROW 0C : B-1 0C . ... : ... .. . ... : B-2 0B . ... : F-# 04 . ... : ... .. . F06
ROW 0D : ... .. . ... : ... .. . ... : ... .. . ... : ... .. . ... : ... .. . ...
ROW 0E : B-1 0D . ... : ... .. . ... : ... .. . ... : ... .. . ... : ... .. . F04
ROW 0F : ... .. . ... : ... .. . ... : ... .. . ... : ... .. . ... : ... .. . ...
ROW 10 : G-1 0C . ... : ... .. . ... : G-2 0B . ... : ... .. . ... : ... .. . F06
ROW 11 : G-1 0D . ... : ... .. . ... : ... .. . ... : ... .. . ... : ... .. . ...
ROW 12 : G-1 0C . ... : ... .. . ... : G-2 0B . ... : ... .. . ... : ... .. . F04
ROW 13 : ... .. . ... : ... .. . ... : ... .. . ... : ... .. . ... : ... .. . ...
ROW 14 : B-1 0C . ... : ... .. . ... : B-2 0B . ... : F-# 04 . ... : ... .. . F06
ROW 15 : B-1 0D . ... : ... .. . ... : ... .. . ... : ... .. . ... : ... .. . ...
ROW 16 : G-1 0C . ... : ... .. . ... : G-2 0B . ... : ... .. . ... : ... .. . F04
ROW 17 : ... .. . ... : ... .. . ... : ... .. . ... : ... .. . ... : ... .. . ...
ROW 18 : G-1 0D . ... : ... .. . ... : ... .. . ... : ... .. . ... : ... .. . F06
ROW 19 : ... .. . ... : ... .. . ... : ... .. . ... : ... .. . ... : ... .. . ...
ROW 1A : ... .. . ... : ... .. . ... : ... .. . ... : ... .. . ... : ... .. . F04
ROW 1B : ... .. . ... : ... .. . ... : ... .. . ... : ... .. . ... : ... .. . ...
ROW 1C : ... .. . ... : ... .. . ... : ... .. . ... : F-# 05 . ... : ... .. . F06
ROW 1D : ... .. . ... : ... .. . ... : ... .. . ... : ... .. . ... : ... .. . ...
ROW 1E : ... .. . ... : ... .. . ... : ... .. . ... : ... .. . ... : ... .. . F04
ROW 1F : ... .. . ... : ... .. . ... : ... .. . ... : ... .. . ... : ... .. . ...
ROW 20 : G-1 0C . ... : ... .. . ... : G-2 0B . ... : ... .. . ... : ... .. . F06
ROW 21 : G-1 0D . ... : ... .. . ... : ... .. . ... : ... .. . ... : ... .. . ...
ROW 22 : G-1 0C . ... : ... .. . ... : G-2 0B . ... : ... .. . ... : ... .. . F04
ROW 23 : G-1 0D . ... : ... .. . ... : ... .. . ... : ... .. . ... : ... .. . ...
ROW 24 : G-1 0D . ... : ... .. . ... : ... .. . ... : F-# 04 . ... : ... .. . F06
ROW 25 : ... .. . ... : ... .. . ... : ... .. . ... : ... .. . ... : ... .. . ...
ROW 26 : C-2 0C . ... : ... .. . ... : C-3 0B . ... : ... .. . ... : ... .. . F04
ROW 27 : ... .. . ... : ... .. . ... : ... .. . ... : ... .. . ... : ... .. . ...
ROW 28 : C-2 0D . ... : ... .. . ... : ... .. . ... : ... .. . ... : ... .. . F06
ROW 29 : ... .. . ... : ... .. . ... : ... .. . ... : ... .. . ... : ... .. . ...
ROW 2A : B-1 0C . ... : ... .. . ... : B-2 0B . ... : ... .. . ... : ... .. . F04
ROW 2B : B-1 0D . ... : ... .. . ... : ... .. . ... : ... .. . ... : ... .. . ...
ROW 2C : C-2 0C . ... : ... .. . ... : C-3 0B . ... : F-# 04 . ... : ... .. . F06
ROW 2D : ... .. . ... : ... .. . ... : ... .. . ... : ... .. . ... : ... .. . ...
ROW 2E : C-2 0D . ... : ... .. . ... : ... .. . ... : ... .. . ... : ... .. . F04
ROW 2F : ... .. . ... : ... .. . ... : ... .. . ... : ... .. . ... : ... .. . ...
ROW 30 : F-1 0C . ... : ... .. . ... : F-2 01 . ... : ... .. . ... : ... .. . F06
ROW 31 : ... .. . ... : ... .. . ... : ... .. . ... : ... .. . ... : ... .. . ...
ROW 32 : F-1 0D . ... : ... .. . ... : --- 01 . ... : ... .. . ... : ... .. . F04
ROW 33 : ... .. . ... : ... .. . ... : ... .. . ... : ... .. . ... : ... .. . ...
ROW 34 : F-2 0C . ... : ... .. . ... : F-3 0B . ... : F-# 04 . ... : ... .. . F06
ROW 35 : F-2 0D . ... : ... .. . ... : ... .. . ... : ... .. . ... : ... .. . ...
ROW 36 : F-2 0C . ... : ... .. . ... : F-3 01 . ... : F-# 04 . ... : ... .. . F04
ROW 37 : ... .. . ... : ... .. . ... : ... .. . ... : ... .. . ... : ... .. . ...
ROW 38 : F-2 0D . ... : ... .. . ... : --- .. . ... : ... .. . ... : ... .. . F06
ROW 39 : ... .. . ... : ... .. . ... : ... .. . ... : ... .. . ... : ... .. . ...
ROW 3A : ... .. . ... : ... .. . ... : ... .. . ... : ... .. . ... : ... .. . F04
ROW 3B : ... .. . ... : ... .. . ... : ... .. . ... : ... .. . ... : ... .. . ...
ROW 3C : ... .. . ... : ... .. . ... : ... .. . ... : F-# 05 . ... : ... .. . F06
ROW 3D : ... .. . ... : ... .. . ... : ... .. . ... : ... .. . ... : ... .. . ...
ROW 3E : ... .. . ... : ... .. . ... : ... .. . ... : ... .. . ... : ... .. . F04
ROW 3F : ... .. . ... : ... .. . ... : ... .. . ... : ... .. . ... : ... .. . ...

PATTERN 01
ROW 00 : G-1 0C . ... : ... .. . ... : G-2 0B . ... : ... .. . ... : ... .. . F06
ROW 01 : G-1 0D . ... : ... .. . ... : ... .. . ... : ... .. . ... : ... .. . ...
ROW 02 : G-1 0C . ... : ... .. . ... : G-2 0B . ... : ... .. . ... : ... .. . F04
ROW 03 : ... .. . ... : ... .. . ... : ... .. . ... : ... .. . ... : ... .. . ...
ROW 04 : G-1 0D . ... : ... .. . ... : ... .. . ... : F-# 04 . ... : ... .. . F06
ROW 05 : ... .. . ... : ... .. . ... : ... .. . ... : ... .. . ... : ... .. . ...
ROW 06 : C-2 0C . ... : ... .. . ... : C-3 0B . ... : ... .. . ... : ... .. . F04
ROW 07 : ... .. . ... : ... .. . ... : ... .. . ... : ... .. . ... : ... .. . ...
ROW 08 : C-2 0D . ... : ... .. . ... : ... .. . ... : ... .. . ... : ... .. . F06
ROW 09 : ... .. . ... : ... .. . ... : ... .. . ... : ... .. . ... : ... .. . ...
ROW 0A : C-2 0C . ... : ... .. . ... : C-3 0B . ... : ... .. . ... : ... .. . F04
ROW 0B : C-2 0D . ... : ... .. . ... : ... .. . ... : ... .. . ... : ... .. . ...
ROW 0C : B-1 0C . ... : ... .. . ... : B-2 0B . ... : F-# 04 . ... : ... .. . F06
ROW 0D : ... .. . ... : ... .. . ... : ... .. . ... : ... .. . ... : ... .. . ...
ROW 0E : B-1 0D . ... : ... .. . ... : ... .. . ... : ... .. . ... : ... .. . F04
ROW 0F : ... .. . ... : ... .. . ... : ... .. . ... : ... .. . ... : ... .. . ...
ROW 10 : G-1 0C . ... : ... .. . ... : G-2 0B . ... : ... .. . ... : ... .. . F06
ROW 11 : G-1 0D . ... : ... .. . ... : ... .. . ... : ... .. . ... : ... .. . ...
ROW 12 : G-1 0C . ... : ... .. . ... : G-2 0B . ... : ... .. . ... : ... .. . F04
ROW 13 : ... .. . ... : ... .. . ... : ... .. . ... : ... .. . ... : ... .. . ...
ROW 14 : B-1 0C . ... : ... .. . ... : B-2 0B . ... : F-# 04 . ... : ... .. . F06
ROW 15 : B-1 0D . ... : ... .. . ... : ... .. . ... : ... .. . ... : ... .. . ...
ROW 16 : G-1 0C . ... : ... .. . ... : G-2 0B . ... : ... .. . ... : ... .. . F04
ROW 17 : ... .. . ... : ... .. . ... : ... .. . ... : ... .. . ... : ... .. . ...
ROW 18 : G-1 0D . ... : ... .. . ... : ... .. . ... : ... .. . ... : ... .. . F06
ROW 19 : ... .. . ... : ... .. . ... : ... .. . ... : ... .. . ... : ... .. . ...
ROW 1A : ... .. . ... : ... .. . ... : ... .. . ... : ... .. . ... : ... .. . F04
ROW 1B : ... .. . ... : ... .. . ... : ... .. . ... : ... .. . ... : ... .. . ...
ROW 1C : ... .. . ... : ... .. . ... : ... .. . ... : F-# 05 . ... : ... .. . F06
ROW 1D : ... .. . ... : ... .. . ... : ... .. . ... : ... .. . ... : ... .. . ...
ROW 1E : ... .. . ... : ... .. . ... : ... .. . ... : ... .. . ... : ... .. . F04
ROW 1F : ... .. . ... : ... .. . ... : ... .. . ... : ... .. . ... : ... .. . ...
ROW 20 : G-1 0C . ... : ... .. . ... : G-2 0B . ... : ... .. . ... : ... .. . F06
ROW 21 : G-1 0D . ... : ... .. . ... : ... .. . ... : ... .. . ... : ... .. . ...
ROW 22 : G-1 0C . ... : ... .. . ... : G-2 0B . ... : ... .. . ... : ... .. . F04
ROW 23 : ... .. . ... : ... .. . ... : ... .. . ... : ... .. . ... : ... .. . ...
ROW 24 : G-1 0D . ... : ... .. . ... : ... .. . ... : F-# 04 . ... : ... .. . F06
ROW 25 : ... .. . ... : ... .. . ... : ... .. . ... : ... .. . ... : ... .. . ...
ROW 26 : C-2 0C . ... : ... .. . ... : C-3 0B . ... : ... .. . ... : ... .. . F04
ROW 27 : ... .. . ... : ... .. . ... : ... .. . ... : ... .. . ... : ... .. . ...
ROW 28 : C-2 0D . ... : ... .. . ... : ... .. . ... : ... .. . ... : ... .. . F06
ROW 29 : ... .. . ... : ... .. . ... : ... .. . ... : ... .. . ... : ... .. . ...
ROW 2A : B-1 0C . ... : ... .. . ... : B-2 0B . ... : ... .. . ... : ... .. . F04
ROW 2B : B-1 0D . ... : ... .. . ... : ... .. . ... : ... .. . ... : ... .. . ...
ROW 2C : C-2 0C . ... : ... .. . ... : C-3 0B . ... : F-# 04 . ... : ... .. . F06
ROW 2D : ... .. . ... : ... .. . ... : ... .. . ... : ... .. . ... : ... .. . ...
ROW 2E : F-1 0C . ... : ... .. . ... : F-2 01 . ... : ... .. . ... : ... .. . F04
ROW 2F : ... .. . ... : ... .. . ... : ... .. . ... : ... .. . ... : ... .. . ...
ROW 30 : F-1 0D . ... : ... .. . ... : --- .. . ... : ... .. . ... : ... .. . F06
ROW 31 : ... .. . ... : ... .. . ... : ... .. . ... : ... .. . ... : ... .. . ...
ROW 32 : ... .. . ... : ... .. . ... : ... .. . ... : ... .. . ... : ... .. . F04
ROW 33 : ... .. . ... : ... .. . ... : ... .. . ... : ... .. . ... : ... .. . ...
ROW 34 : ... .. . ... : ... .. . ... : ... .. . ... : F-# 04 . ... : ... .. . F06
ROW 35 : ... .. . ... : ... .. . ... : ... .. . ... : ... .. . ... : ... .. . ...
ROW 36 : ... .. . ... : ... .. . ... : ... .. . ... : F-# 04 . ... : ... .. . F04
ROW 37 : ... .. . ... : ... .. . ... : ... .. . ... : ... .. . ... : ... .. . ...
ROW 38 : ... .. . ... : ... .. . ... : ... .. . ... : ... .. . ... : ... .. . F06
ROW 39 : ... .. . ... : ... .. . ... : ... .. . ... : ... .. . ... : ... .. . ...
ROW 3A : ... .. . ... : ... .. . ... : ... .. . ... : ... .. . ... : ... .. . F04
ROW 3B : ... .. . ... : ... .. . ... : ... .. . ... : ... .. . ... : ... .. . ...
ROW 3C : ... .. . ... : ... .. . ... : ... .. . ... : F-# 09 . ... : ... .. . F06
ROW 3D : ... .. . ... : ... .. . ... : ... .. . ... : ... .. . ... : ... .. . ...
ROW 3E : ... .. . ... : ... .. . ... : ... .. . ... : F-# 04 . ... : ... .. . F04
ROW 3F : ... .. . ... : ... .. . ... : ... .. . ... : ... .. . ... : ... .. . ...

PATTERN 02
ROW 00 : C-1 0C . ... : ... .. . ... : C-2 0B . ... : F-# 04 . ... : ... .. . F06
ROW 01 : C-1 0D . ... : ... .. . ... : ... .. . ... : ... .. . ... : ... .. . ...
ROW 02 : C-1 0C . ... : ... .. . ... : C-2 0B . ... : F-# 04 . ... : ... .. . F04
ROW 03 : ... .. . ... : ... .. . ... : ... .. . ... : ... .. . ... : ... .. . ...
ROW 04 : C-2 02 . ... : E-2 0C . ... : ... .. . ... : F-# 05 . ... : ... .. . F06
ROW 05 : ... .. . ... : ... .. . ... : ... .. . ... : ... .. . ... : ... .. . ...
ROW 06 : C-2 02 . ... : E-2 0C . ... : G-2 0B . ... : F-# 04 . ... : ... .. . F04
ROW 07 : ... .. . ... : ... .. . ... : ... .. . ... : ... .. . ... : ... .. . ...
ROW 08 : G-1 0D . ... : --- .. . ... : ... .. . ... : ... .. . ... : ... .. . F06
ROW 09 : ... .. . ... : ... .. . ... : ... .. . ... : ... .. . ... : ... .. . ...
ROW 0A : G-1 0C . ... : E-2 0D . ... : G-2 0B . ... : F-# 04 . ... : ... .. . F04
ROW 0B : G-1 0D . ... : --- .. . ... : ... .. . ... : ... .. . ... : ... .. . ...
ROW 0C : C-1 0C . ... : ... .. . ... : C-2 0B . ... : F-# 04 . ... : ... .. . F06
ROW 0D : ... .. . ... : ... .. . ... : ... .. . ... : ... .. . ... : ... .. . ...
ROW 0E : C-1 0D . ... : ... .. . ... : ... .. . ... : ... .. . ... : ... .. . F04
ROW 0F : ... .. . ... : ... .. . ... : ... .. . ... : ... .. . ... : ... .. . ...
ROW 10 : D-1 0C . ... : ... .. . ... : D-2 0B . ... : F-# 04 . ... : ... .. . F06
ROW 11 : D-1 0D . ... : ... .. . ... : ... .. . ... : ... .. . ... : ... .. . ...
ROW 12 : D-1 0C . ... : ... .. . ... : D-2 0B . ... : F-# 04 . ... : ... .. . F04
ROW 13 : ... .. . ... : ... .. . ... : ... .. . ... : ... .. . ... : ... .. . ...
ROW 14 : D-2 02 . ... : F#2 0C . ... : ... .. . ... : F-# 05 . ... : ... .. . F06
ROW 15 : ... .. . ... : ... .. . ... : ... .. . ... : ... .. . ... : ... .. . ...
ROW 16 : D-2 02 . ... : F#2 0C . ... : A-2 0B . ... : F-# 04 . ... : ... .. . F04
ROW 17 : ... .. . ... : ... .. . ... : ... .. . ... : ... .. . ... : ... .. . ...
ROW 18 : A-1 0D . ... : --- 10 . ... : ... .. . ... : ... .. . ... : ... .. . F06
ROW 19 : ... .. . ... : ... .. . ... : ... .. . ... : ... .. . ... : ... .. . ...
ROW 1A : A-1 0C . ... : F#2 0D . ... : A-2 0B . ... : F-# 04 . ... : ... .. . F04
ROW 1B : A-1 0D . ... : --- .. . ... : ... .. . ... : ... .. . ... : ... .. . ...
ROW 1C : D-1 0C . ... : ... .. . ... : D-2 0B . ... : F-# 04 . ... : ... .. . F06
ROW 1D : ... .. . ... : ... .. . ... : ... .. . ... : ... .. . ... : ... .. . ...
ROW 1E : D-1 0D . ... : ... .. . ... : ... .. . ... : ... .. . ... : ... .. . F04
ROW 1F : ... .. . ... : ... .. . ... : ... .. . ... : ... .. . ... : ... .. . ...
ROW 20 : G-1 0C . ... : G-1 11 . ... : G-2 0B . ... : F-# 05 . ... : ... .. . F06
ROW 21 : ... .. . ... : ... .. . ... : ... .. . ... : ... .. . ... : ... .. . ...
ROW 22 : G-1 0D . ... : ... .. . ... : ... .. . ... : F-# 04 . ... : ... .. . F04
ROW 23 : ... .. . ... : ... .. . ... : ... .. . ... : ... .. . ... : ... .. . ...
ROW 24 : G-2 02 . ... : B-2 0C . ... : G-2 0B . ... : F-# 05 . ... : ... .. . F06
ROW 25 : ... .. . ... : ... .. . ... : ... .. . ... : ... .. . ... : ... .. . ...
ROW 26 : G-1 0D . ... : --- 10 . ... : ... .. . ... : F-# 04 . ... : ... .. . F04
ROW 27 : ... .. . ... : ... .. . ... : ... .. . ... : ... .. . ... : ... .. . ...
ROW 28 : F#1 0C . ... : F#1 11 . ... : F#2 0B . ... : F-# 05 . ... : ... .. . F06
ROW 29 : ... .. . ... : ... .. . ... : ... .. . ... : ... .. . ... : ... .. . ...
ROW 2A : F#1 0D . ... : ... .. . ... : ... .. . ... : ... .. . ... : ... .. . F04
ROW 2B : ... .. . ... : ... .. . ... : ... .. . ... : ... .. . ... : ... .. . ...
ROW 2C : F#2 02 . ... : A-2 0C . ... : F#2 0B . ... : F-# 04 . ... : ... .. . F06
ROW 2D : ... .. . ... : ... .. . ... : ... .. . ... : ... .. . ... : ... .. . ...
ROW 2E : E-2 02 . ... : --- 02 . ... : E-2 0B . ... : F-# 05 . ... : ... .. . F04
ROW 2F : ... .. . ... : ... .. . ... : ... .. . ... : ... .. . ... : ... .. . ...
ROW 30 : E-1 0D . ... : ... .. . ... : ... .. . ... : F-# 04 . ... : ... .. . F06
ROW 31 : ... .. . ... : ... .. . ... : ... .. . ... : ... .. . ... : ... .. . ...
ROW 32 : E-1 0C . ... : ... .. . ... : E-2 0B . ... : F-# 04 . ... : ... .. . F04
ROW 33 : ... .. . ... : ... .. . ... : ... .. . ... : ... .. . ... : ... .. . ...
ROW 34 : E-1 0D . ... : ... .. . ... : ... .. . ... : F-# 05 . ... : ... .. . F06
ROW 35 : ... .. . ... : ... .. . ... : ... .. . ... : ... .. . ... : ... .. . ...
ROW 36 : B-1 0C . ... : ... .. . ... : B-2 0B . ... : F-# 04 . ... : ... .. . F04
ROW 37 : ... .. . ... : ... .. . ... : ... .. . ... : ... .. . ... : ... .. . ...
ROW 38 : B-1 0D . ... : ... .. . ... : ... .. . ... : ... .. . ... : ... .. . F06
ROW 39 : ... .. . ... : ... .. . ... : ... .. . ... : ... .. . ... : ... .. . ...
ROW 3A : B-1 0C . ... : ... .. . ... : B-2 0B . ... : F-# 04 . ... : ... .. . F04
ROW 3B : B-1 0D . ... : ... .. . ... : ... .. . ... : ... .. . ... : ... .. . ...
ROW 3C : E-1 0C . ... : ... .. . ... : E-2 0B . ... : F-# 04 . ... : ... .. . F06
ROW 3D : ... .. . ... : ... .. . ... : ... .. . ... : ... .. . ... : ... .. . ...
ROW 3E : E-1 0D . ... : ... .. . ... : ... .. . ... : ... .. . ... : ... .. . F04
ROW 3F : ... .. . ... : ... .. . ... : ... .. . ... : ... .. . ... : ... .. . ...

PATTERN 03
ROW 00 : C-1 0C . ... : ... .. . ... : C-2 0B . ... : F-# 04 . ... : ... .. . F06
ROW 01 : C-1 0D . ... : ... .. . ... : ... .. . ... : ... .. . ... : ... .. . ...
ROW 02 : C-1 0C . ... : ... .. . ... : C-2 0B . ... : F-# 04 . ... : ... .. . F04
ROW 03 : ... .. . ... : ... .. . ... : ... .. . ... : ... .. . ... : ... .. . ...
ROW 04 : C-2 02 . ... : E-2 0C . ... : ... .. . ... : F-# 05 . ... : ... .. . F06
ROW 05 : ... .. . ... : ... .. . ... : ... .. . ... : ... .. . ... : ... .. . ...
ROW 06 : C-2 02 . ... : E-2 0C . ... : G-2 0B . ... : F-# 04 . ... : ... .. . F04
ROW 07 : ... .. . ... : ... .. . ... : ... .. . ... : ... .. . ... : ... .. . ...
ROW 08 : G-1 0D . ... : --- 10 . ... : ... .. . ... : ... .. . ... : ... .. . F06
ROW 09 : ... .. . ... : ... .. . ... : ... .. . ... : ... .. . ... : ... .. . ...
ROW 0A : G-1 0C . ... : E-2 0D . ... : G-2 0B . ... : F-# 04 . ... : ... .. . F04
ROW 0B : G-1 0D . ... : --- .. . ... : ... .. . ... : ... .. . ... : ... .. . ...
ROW 0C : C-1 0C . ... : ... .. . ... : C-2 0B . ... : F-# 04 . ... : ... .. . F06
ROW 0D : ... .. . ... : ... .. . ... : ... .. . ... : ... .. . ... : ... .. . ...
ROW 0E : C-1 0D . ... : ... .. . ... : ... .. . ... : ... .. . ... : ... .. . F04
ROW 0F : ... .. . ... : ... .. . ... : ... .. . ... : ... .. . ... : ... .. . ...
ROW 10 : D-1 0C . ... : ... .. . ... : D-2 0B . ... : F-# 04 . ... : ... .. . F06
ROW 11 : D-1 0D . ... : ... .. . ... : ... .. . ... : ... .. . ... : ... .. . ...
ROW 12 : D-1 0C . ... : ... .. . ... : D-2 0B . ... : F-# 04 . ... : ... .. . F04
ROW 13 : ... .. . ... : ... .. . ... : ... .. . ... : ... .. . ... : ... .. . ...
ROW 14 : D-2 02 . ... : F#2 0C . ... : ... .. . ... : F-# 05 . ... : ... .. . F06
ROW 15 : ... .. . ... : ... .. . ... : ... .. . ... : ... .. . ... : ... .. . ...
ROW 16 : D-2 02 . ... : F#2 0C . ... : A-2 0B . ... : F-# 04 . ... : ... .. . F04
ROW 17 : ... .. . ... : ... .. . ... : ... .. . ... : ... .. . ... : ... .. . ...
ROW 18 : A-1 0D . ... : --- 10 . ... : ... .. . ... : ... .. . ... : ... .. . F06
ROW 19 : ... .. . ... : ... .. . ... : ... .. . ... : ... .. . ... : ... .. . ...
ROW 1A : A-1 0C . ... : F#2 0D . ... : A-2 0B . ... : F-# 04 . ... : ... .. . F04
ROW 1B : A-1 0D . ... : --- .. . ... : ... .. . ... : ... .. . ... : ... .. . ...
ROW 1C : D-1 0C . ... : ... .. . ... : D-2 0B . ... : F-# 04 . ... : ... .. . F06
ROW 1D : ... .. . ... : ... .. . ... : ... .. . ... : ... .. . ... : ... .. . ...
ROW 1E : D-1 0D . ... : ... .. . ... : ... .. . ... : ... .. . ... : ... .. . F04
ROW 1F : ... .. . ... : ... .. . ... : ... .. . ... : ... .. . ... : ... .. . ...
ROW 20 : G-1 0C . ... : ... .. . ... : G-2 0B . ... : F-# 04 . ... : ... .. . F06
ROW 21 : G-1 0D . ... : ... .. . ... : ... .. . ... : ... .. . ... : ... .. . ...
ROW 22 : G-1 0C . ... : ... .. . ... : G-2 0B . ... : F-# 04 . ... : ... .. . F04
ROW 23 : G-1 0D . ... : ... .. . ... : ... .. . ... : ... .. . ... : ... .. . ...
ROW 24 : G-2 02 . ... : B-2 0C . ... : D-3 0B . ... : F-# 05 . ... : ... .. . F06
ROW 25 : D-2 0D . ... : ... .. . ... : ... .. . ... : ... .. . ... : ... .. . ...
ROW 26 : G-2 02 . ... : B-2 0C . ... : D-3 0B . ... : F-# 04 . ... : ... .. . F04
ROW 27 : ... .. . ... : ... .. . ... : ... .. . ... : ... .. . ... : ... .. . ...
ROW 28 : D-2 0D . ... : --- 10 . ... : ... .. . ... : ... .. . ... : ... .. . F06
ROW 29 : ... .. . ... : ... .. . ... : ... .. . ... : ... .. . ... : ... .. . ...
ROW 2A : D-2 02 . ... : B-2 0C . ... : D-3 0B . ... : F-# 04 . ... : ... .. . F04
ROW 2B : D-2 0D . ... : ... .. . ... : ... .. . ... : ... .. . ... : ... .. . ...
ROW 2C : G-1 0C . ... : A-2 0C . ... : G-2 0B . ... : F-# 05 . ... : ... .. . F06
ROW 2D : ... .. . ... : ... .. . ... : ... .. . ... : ... .. . ... : ... .. . ...
ROW 2E : G-1 0D . ... : ... .. . ... : ... .. . ... : F-# 04 . ... : ... .. . F04
ROW 2F : ... .. . ... : ... .. . ... : ... .. . ... : ... .. . ... : ... .. . ...
ROW 30 : G-1 0C . ... : G-2 0C . ... : G-2 0B . ... : F-# 05 . ... : ... .. . F06
ROW 31 : ... .. . ... : ... .. . ... : ... .. . ... : ... .. . ... : ... .. . ...
ROW 32 : G-1 0D . ... : ... .. . ... : ... .. . ... : ... .. . ... : ... .. . F04
ROW 33 : ... .. . ... : ... .. . ... : ... .. . ... : ... .. . ... : ... .. . ...
ROW 34 : ... .. . ... : ... .. . ... : ... .. . ... : ... .. . ... : ... .. . F06
ROW 35 : ... .. . ... : ... .. . ... : ... .. . ... : ... .. . ... : ... .. . ...
ROW 36 : ... .. . ... : ... .. . ... : ... .. . ... : ... .. . ... : ... .. . F04
ROW 37 : ... .. . ... : ... .. . ... : ... .. . ... : ... .. . ... : ... .. . ...
ROW 38 : ... .. . ... : ... .. . ... : ... .. . ... : ... .. . ... : ... .. . F06
ROW 39 : ... .. . ... : ... .. . ... : ... .. . ... : ... .. . ... : ... .. . ...
ROW 3A : ... .. . ... : ... .. . ... : ... .. . ... : ... .. . ... : ... .. . F04
ROW 3B : ... .. . ... : ... .. . ... : ... .. . ... : ... .. . ... : ... .. . ...
ROW 3C : ... .. . ... : ... .. . ... : ... .. . ... : ... .. . ... : ... .. . F06
ROW 3D : ... .. . ... : ... .. . ... : ... .. . ... : ... .. . ... : ... .. . ...
ROW 3E : ... .. . ... : ... .. . ... : ... .. . ... : ... .. . ... : ... .. . F04
ROW 3F : ... .. . ... : ... .. . ... : ... .. . ... : ... .. . ... : ... .. . ...

PATTERN 04
ROW 00 : G-1 0C . ... : G-1 11 . ... : G-2 0B . ... : ... .. . ... : ... .. . F06
ROW 01 : G-1 0D . ... : ... .. . ... : ... .. . ... : ... .. . ... : ... .. . ...
ROW 02 : G-1 0C . ... : ... .. . ... : G-2 01 . ... : F-# 04 . ... : ... .. . F04
ROW 03 : ... .. . ... : ... .. . ... : ... .. . ... : ... .. . ... : ... .. . ...
ROW 04 : B-1 0C . ... : B-1 11 . ... : B-2 0B . ... : F-# 04 . ... : ... .. . F06
ROW 05 : B-1 0D . ... : ... .. . ... : ... .. . ... : ... .. . ... : ... .. . ...
ROW 06 : C-2 0C . ... : C-2 11 . ... : C-3 0B . ... : F-# 04 . ... : ... .. . F04
ROW 07 : ... .. . ... : ... .. . ... : ... .. . ... : ... .. . ... : ... .. . ...
ROW 08 : C-2 0D . ... : ... .. . ... : C-3 08 . ... : F-# 09 . ... : ... .. . F06
ROW 09 : ... .. . ... : ... .. . ... : ... .. . ... : ... .. . ... : ... .. . ...
ROW 0A : C-2 0C . ... : C-2 11 . ... : C-3 0B . ... : F-# 04 . ... : ... .. . F04
ROW 0B : C-2 0D . ... : ... .. . ... : ... .. . ... : ... .. . ... : ... .. . ...
ROW 0C : B-1 0C . ... : B-1 11 . ... : B-2 0B . ... : F-# 04 . ... : ... .. . F06
ROW 0D : ... .. . ... : ... .. . ... : ... .. . ... : ... .. . ... : ... .. . ...
ROW 0E : B-1 0D . ... : ... .. . ... : ... .. . ... : F-# 04 . ... : ... .. . F04
ROW 0F : ... .. . ... : ... .. . ... : ... .. . ... : ... .. . ... : ... .. . ...
ROW 10 : G-1 0C . ... : G-1 11 . ... : G-2 0B . ... : ... .. . ... : ... .. . F06
ROW 11 : G-1 0D . ... : ... .. . ... : ... .. . ... : ... .. . ... : ... .. . ...
ROW 12 : G-1 0C . ... : ... .. . ... : G-2 01 . ... : F-# 04 . ... : ... .. . F04
ROW 13 : ... .. . ... : ... .. . ... : ... .. . ... : ... .. . ... : ... .. . ...
ROW 14 : B-1 0C . ... : B-1 11 . ... : B-2 0B . ... : F-# 04 . ... : ... .. . F06
ROW 15 : B-1 0D . ... : ... .. . ... : ... .. . ... : ... .. . ... : ... .. . ...
ROW 16 : G-1 0C . ... : G-1 11 . ... : G-2 0B . ... : F-# 04 . ... : ... .. . F04
ROW 17 : ... .. . ... : ... .. . ... : ... .. . ... : ... .. . ... : ... .. . ...
ROW 18 : G-1 0D . ... : ... .. . ... : C-3 08 . ... : F-# 09 . ... : ... .. . F06
ROW 19 : ... .. . ... : ... .. . ... : ... .. . ... : ... .. . ... : ... .. . ...
ROW 1A : ... .. . ... : ... .. . ... : ... .. . ... : F-# 04 . ... : ... .. . F04
ROW 1B : ... .. . ... : ... .. . ... : ... .. . ... : ... .. . ... : ... .. . ...
ROW 1C : ... .. . ... : ... .. . ... : ... .. . ... : F-# 05 . ... : ... .. . F06
ROW 1D : ... .. . ... : ... .. . ... : ... .. . ... : ... .. . ... : ... .. . ...
ROW 1E : ... .. . ... : ... .. . ... : ... .. . ... : ... .. . ... : ... .. . F04
ROW 1F : ... .. . ... : ... .. . ... : ... .. . ... : ... .. . ... : ... .. . ...
ROW 20 : G-1 0C . ... : G-1 11 . ... : G-2 0B . ... : ... .. . ... : ... .. . F06
ROW 21 : G-1 0D . ... : ... .. . ... : ... .. . ... : ... .. . ... : ... .. . ...
ROW 22 : G-1 0C . ... : ... .. . ... : G-2 01 . ... : F-# 04 . ... : ... .. . F04
ROW 23 : G-1 0D . ... : ... .. . ... : ... .. . ... : ... .. . ... : ... .. . ...
ROW 24 : B-1 0C . ... : B-1 11 . ... : B-2 0B . ... : F-# 04 . ... : ... .. . F06
ROW 25 : B-1 0D . ... : ... .. . ... : ... .. . ... : ... .. . ... : ... .. . ...
ROW 26 : C-2 0C . ... : C-2 11 . ... : C-3 0B . ... : F-# 04 . ... : ... .. . F04
ROW 27 : ... .. . ... : ... .. . ... : ... .. . ... : ... .. . ... : ... .. . ...
ROW 28 : C-2 0D . ... : ... .. . ... : C-3 08 . ... : F-# 09 . ... : ... .. . F06
ROW 29 : ... .. . ... : ... .. . ... : ... .. . ... : ... .. . ... : ... .. . ...
ROW 2A : B-1 0C . ... : B-1 11 . ... : B-2 0B . ... : F-# 04 . ... : ... .. . F04
ROW 2B : B-1 0D . ... : ... .. . ... : ... .. . ... : ... .. . ... : ... .. . ...
ROW 2C : C-2 0C . ... : C-2 11 . ... : C-3 0B . ... : F-# 04 . ... : ... .. . F06
ROW 2D : ... .. . ... : ... .. . ... : ... .. . ... : ... .. . ... : ... .. . ...
ROW 2E : C-2 0D . ... : ... .. . ... : ... .. . ... : F-# 04 . ... : ... .. . F04
ROW 2F : ... .. . ... : ... .. . ... : ... .. . ... : ... .. . ... : ... .. . ...
ROW 30 : F-1 0C . ... : F-1 11 . ... : F-2 01 . ... : ... .. . ... : ... .. . F06
ROW 31 : ... .. . ... : ... .. . ... : ... .. . ... : ... .. . ... : ... .. . ...
ROW 32 : F-1 0D . ... : ... .. . ... : --- 01 . ... : F-# 04 . ... : ... .. . F04
ROW 33 : ... .. . ... : ... .. . ... : ... .. . ... : ... .. . ... : ... .. . ...
ROW 34 : F-2 0C . ... : ... .. . ... : F-3 0B . ... : F-# 04 . ... : ... .. . F06
ROW 35 : F-2 0D . ... : ... .. . ... : ... .. . ... : ... .. . ... : ... .. . ...
ROW 36 : F-2 0C . ... : ... .. . ... : F-3 0B . ... : F-# 04 . ... : ... .. . F04
ROW 37 : ... .. . ... : ... .. . ... : ... .. . ... : ... .. . ... : ... .. . ...
ROW 38 : F-2 0D . ... : ... .. . ... : C-3 08 . ... : F-# 09 . ... : ... .. . F06
ROW 39 : ... .. . ... : ... .. . ... : ... .. . ... : ... .. . ... : ... .. . ...
ROW 3A : ... .. . ... : ... .. . ... : ... .. . ... : F-# 04 . ... : ... .. . F04
ROW 3B : ... .. . ... : ... .. . ... : ... .. . ... : ... .. . ... : ... .. . ...
ROW 3C : ... .. . ... : ... .. . ... : ... .. . ... : F-# 05 . ... : ... .. . F06
ROW 3D : ... .. . ... : ... .. . ... : ... .. . ... : ... .. . ... : ... .. . ...
ROW 3E : ... .. . ... : ... .. . ... : ... .. . ... : ... .. . ... : ... .. . F04
ROW 3F : ... .. . ... : ... .. . ... : ... .. . ... : ... .. . ... : ... .. . ...

PATTERN 05
ROW 00 : G-1 0C . ... : G-1 11 . ... : G-2 0B . ... : ... .. . ... : ... .. . F06
ROW 01 : G-1 0D . ... : ... .. . ... : ... .. . ... : ... .. . ... : ... .. . ...
ROW 02 : G-1 0C . ... : ... .. . ... : G-2 01 . ... : F-# 04 . ... : ... .. . F04
ROW 03 : ... .. . ... : ... .. . ... : ... .. . ... : ... .. . ... : ... .. . ...
ROW 04 : B-1 0C . ... : B-1 11 . ... : B-2 0B . ... : F-# 04 . ... : ... .. . F06
ROW 05 : B-1 0D . ... : ... .. . ... : ... .. . ... : ... .. . ... : ... .. . ...
ROW 06 : C-2 0C . ... : C-2 11 . ... : C-3 0B . ... : F-# 04 . ... : ... .. . F04
ROW 07 : ... .. . ... : ... .. . ... : ... .. . ... : ... .. . ... : ... .. . ...
ROW 08 : C-2 0D . ... : ... .. . ... : C-3 08 . ... : F-# 09 . ... : ... .. . F06
ROW 09 : ... .. . ... : ... .. . ... : ... .. . ... : ... .. . ... : ... .. . ...
ROW 0A : C-2 0C . ... : C-2 11 . ... : C-3 0B . ... : F-# 04 . ... : ... .. . F04
ROW 0B : C-2 0D . ... : ... .. . ... : ... .. . ... : ... .. . ... : ... .. . ...
ROW 0C : B-1 0C . ... : B-1 11 . ... : B-2 0B . ... : F-# 04 . ... : ... .. . F06
ROW 0D : ... .. . ... : ... .. . ... : ... .. . ... : ... .. . ... : ... .. . ...
ROW 0E : B-1 0D . ... : ... .. . ... : ... .. . ... : F-# 04 . ... : ... .. . F04
ROW 0F : ... .. . ... : ... .. . ... : ... .. . ... : ... .. . ... : ... .. . ...
ROW 10 : G-1 0C . ... : G-1 11 . ... : G-2 0B . ... : ... .. . ... : ... .. . F06
ROW 11 : G-1 0D . ... : ... .. . ... : ... .. . ... : ... .. . ... : ... .. . ...
ROW 12 : G-1 0C . ... : ... .. . ... : G-2 01 . ... : F-# 04 . ... : ... .. . F04
ROW 13 : ... .. . ... : ... .. . ... : ... .. . ... : ... .. . ... : ... .. . ...
ROW 14 : B-1 0C . ... : B-1 11 . ... : B-2 0B . ... : F-# 04 . ... : ... .. . F06
ROW 15 : B-1 0D . ... : ... .. . ... : ... .. . ... : ... .. . ... : ... .. . ...
ROW 16 : G-1 0C . ... : G-1 11 . ... : G-2 0B . ... : F-# 04 . ... : ... .. . F04
ROW 17 : ... .. . ... : ... .. . ... : ... .. . ... : ... .. . ... : ... .. . ...
ROW 18 : G-1 0D . ... : ... .. . ... : C-3 08 . ... : F-# 09 . ... : ... .. . F06
ROW 19 : ... .. . ... : ... .. . ... : ... .. . ... : ... .. . ... : ... .. . ...
ROW 1A : ... .. . ... : ... .. . ... : ... .. . ... : F-# 04 . ... : ... .. . F04
ROW 1B : ... .. . ... : ... .. . ... : ... .. . ... : ... .. . ... : ... .. . ...
ROW 1C : ... .. . ... : ... .. . ... : ... .. . ... : F-# 05 . ... : ... .. . F06
ROW 1D : ... .. . ... : ... .. . ... : ... .. . ... : ... .. . ... : ... .. . ...
ROW 1E : ... .. . ... : ... .. . ... : ... .. . ... : F-# 04 . ... : ... .. . F04
ROW 1F : ... .. . ... : ... .. . ... : ... .. . ... : ... .. . ... : ... .. . ...
ROW 20 : G-1 0C . ... : G-1 11 . ... : G-2 0B . ... : ... .. . ... : ... .. . F06
ROW 21 : G-1 0D . ... : ... .. . ... : ... .. . ... : ... .. . ... : ... .. . ...
ROW 22 : G-1 0C . ... : ... .. . ... : G-2 01 . ... : F-# 04 . ... : ... .. . F04
ROW 23 : G-1 0D . ... : ... .. . ... : ... .. . ... : ... .. . ... : ... .. . ...
ROW 24 : B-1 0C . ... : B-1 11 . ... : B-2 0B . ... : F-# 04 . ... : ... .. . F06
ROW 25 : B-1 0D . ... : ... .. . ... : ... .. . ... : ... .. . ... : ... .. . ...
ROW 26 : C-2 0C . ... : C-2 11 . ... : C-3 0B . ... : F-# 04 . ... : ... .. . F04
ROW 27 : ... .. . ... : ... .. . ... : ... .. . ... : ... .. . ... : ... .. . ...
ROW 28 : C-2 0D . ... : ... .. . ... : C-3 08 . ... : F-# 09 . ... : ... .. . F06
ROW 29 : ... .. . ... : ... .. . ... : ... .. . ... : ... .. . ... : ... .. . ...
ROW 2A : B-1 0C . ... : B-1 11 . ... : B-2 0B . ... : F-# 04 . ... : ... .. . F04
ROW 2B : B-1 0D . ... : ... .. . ... : ... .. . ... : ... .. . ... : ... .. . ...
ROW 2C : C-2 0C . ... : C-2 11 . ... : C-3 0B . ... : F-# 04 . ... : ... .. . F06
ROW 2D : ... .. . ... : ... .. . ... : ... .. . ... : ... .. . ... : ... .. . ...
ROW 2E : C-2 0D . ... : ... .. . ... : ... .. . ... : F-# 04 . ... : ... .. . F04
ROW 2F : ... .. . ... : ... .. . ... : ... .. . ... : ... .. . ... : ... .. . ...
ROW 30 : F-1 0C . ... : F-1 11 . ... : F-2 01 . ... : ... .. . ... : ... .. . F06
ROW 31 : ... .. . ... : ... .. . ... : ... .. . ... : ... .. . ... : ... .. . ...
ROW 32 : F-1 0D . ... : ... .. . ... : --- 01 . ... : F-# 04 . ... : ... .. . F04
ROW 33 : ... .. . ... : ... .. . ... : ... .. . ... : ... .. . ... : ... .. . ...
ROW 34 : ... .. . ... : ... .. . ... : ... .. . ... : F-# 04 . ... : ... .. . F06
ROW 35 : ... .. . ... : ... .. . ... : ... .. . ... : ... .. . ... : ... .. . ...
ROW 36 : ... .. . ... : ... .. . ... : ... .. . ... : F-# 04 . ... : ... .. . F04
ROW 37 : ... .. . ... : ... .. . ... : ... .. . ... : ... .. . ... : ... .. . ...
ROW 38 : ... .. . ... : ... .. . ... : C-3 08 . ... : F-# 09 . ... : ... .. . F06
ROW 39 : ... .. . ... : ... .. . ... : ... .. . ... : ... .. . ... : ... .. . ...
ROW 3A : ... .. . ... : ... .. . ... : ... .. . ... : ... .. . ... : ... .. . F04
ROW 3B : ... .. . ... : ... .. . ... : ... .. . ... : ... .. . ... : ... .. . ...
ROW 3C : ... .. . ... : ... .. . ... : C-3 08 . ... : F-# 09 . ... : ... .. . F06
ROW 3D : ... .. . ... : ... .. . ... : ... .. . ... : ... .. . ... : ... .. . ...
ROW 3E : ... .. . ... : ... .. . ... : C-3 08 . ... : F-# 0E . ... : ... .. . F04
ROW 3F : ... .. . ... : ... .. . ... : ... .. . ... : ... .. . ... : ... .. . ...

PATTERN 06
ROW 00 : C-1 0C . ... : C-1 11 . ... : C-2 0B . ... : F-# 04 . ... : ... .. . F06
ROW 01 : C-1 0D . ... : ... .. . ... : ... .. . ... : ... .. . ... : ... .. . ...
ROW 02 : C-1 0C . ... : ... .. . ... : C-2 0B . ... : F-# 04 . ... : ... .. . F04
ROW 03 : C-1 0D . ... : ... .. . ... : ... .. . ... : ... .. . ... : ... .. . ...
ROW 04 : C-2 02 . ... : E-2 02 . ... : C-3 08 . ... : F-# 09 . ... : ... .. . F06
ROW 05 : ... .. . ... : ... .. . ... : ... .. . ... : ... .. . ... : ... .. . ...
ROW 06 : C-2 02 . ... : E-2 02 . ... : G-2 0B . ... : F-# 04 . ... : ... .. . F04
ROW 07 : ... .. . ... : ... .. . ... : ... .. . ... : ... .. . ... : ... .. . ...
ROW 08 : G-1 0D . ... : E-2 10 . ... : ... .. . ... : ... .. . ... : ... .. . F06
ROW 09 : ... .. . ... : ... .. . ... : ... .. . ... : ... .. . ... : ... .. . ...
ROW 0A : C-2 02 . ... : E-2 02 . ... : G-2 0B . ... : F-# 04 . ... : ... .. . F04
ROW 0B : ... .. . ... : ... .. . ... : ... .. . ... : ... .. . ... : ... .. . ...
ROW 0C : C-1 0C . ... : E-2 10 . ... : C-3 08 . ... : F-# 09 . ... : ... .. . F06
ROW 0D : ... .. . ... : ... .. . ... : ... .. . ... : ... .. . ... : ... .. . ...
ROW 0E : C-1 0D . ... : ... .. . ... : ... .. . ... : F-# 04 . ... : ... .. . F04
ROW 0F : ... .. . ... : ... .. . ... : ... .. . ... : ... .. . ... : ... .. . ...
ROW 10 : D-1 0C . ... : D-1 11 . ... : D-2 0B . ... : F-# 04 . ... : ... .. . F06
ROW 11 : D-1 0D . ... : ... .. . ... : ... .. . ... : ... .. . ... : ... .. . ...
ROW 12 : D-1 0C . ... : ... .. . ... : D-2 0B . ... : F-# 04 . ... : ... .. . F04
ROW 13 : D-1 0D . ... : ... .. . ... : ... .. . ... : ... .. . ... : ... .. . ...
ROW 14 : D-2 02 . ... : F#2 02 . ... : C-3 08 . ... : F-# 09 . ... : ... .. . F06
ROW 15 : ... .. . ... : ... .. . ... : ... .. . ... : ... .. . ... : ... .. . ...
ROW 16 : D-2 02 . ... : F#2 02 . ... : A-2 0B . ... : F-# 04 . ... : ... .. . F04
ROW 17 : ... .. . ... : ... .. . ... : ... .. . ... : ... .. . ... : ... .. . ...
ROW 18 : A-1 0D . ... : F#2 10 . ... : ... .. . ... : ... .. . ... : ... .. . F06
ROW 19 : ... .. . ... : ... .. . ... : ... .. . ... : ... .. . ... : ... .. . ...
ROW 1A : D-2 02 . ... : F#2 02 . ... : A-2 0B . ... : F-# 04 . ... : ... .. . F04
ROW 1B : ... .. . ... : ... .. . ... : ... .. . ... : ... .. . ... : ... .. . ...
ROW 1C : D-1 0C . ... : F#2 10 . ... : C-3 08 . ... : F-# 09 . ... : ... .. . F06
ROW 1D : ... .. . ... : ... .. . ... : ... .. . ... : ... .. . ... : ... .. . ...
ROW 1E : D-1 0D . ... : ... .. . ... : ... .. . ... : F-# 04 . ... : ... .. . F04
ROW 1F : ... .. . ... : ... .. . ... : ... .. . ... : ... .. . ... : ... .. . ...
ROW 20 : G-1 0C . ... : G-1 11 . ... : G-2 0B . ... : F-# 05 . ... : ... .. . F06
ROW 21 : ... .. . ... : ... .. . ... : ... .. . ... : ... .. . ... : ... .. . ...
ROW 22 : G-1 0D . ... : ... .. . ... : ... .. . ... : F-# 04 . ... : ... .. . F04
ROW 23 : ... .. . ... : ... .. . ... : ... .. . ... : ... .. . ... : ... .. . ...
ROW 24 : G-2 02 . ... : B-2 02 . ... : C-3 08 . ... : F-# 09 . ... : ... .. . F06
ROW 25 : ... .. . ... : ... .. . ... : ... .. . ... : ... .. . ... : ... .. . ...
ROW 26 : G-1 0D . ... : B-2 10 . ... : ... .. . ... : F-# 04 . ... : ... .. . F04
ROW 27 : ... .. . ... : ... .. . ... : ... .. . ... : ... .. . ... : ... .. . ...
ROW 28 : F#1 0C . ... : F#1 11 . ... : F#2 0B . ... : F-# 05 . ... : ... .. . F06
ROW 29 : ... .. . ... : ... .. . ... : ... .. . ... : ... .. . ... : ... .. . ...
ROW 2A : F#1 0D . ... : ... .. . ... : ... .. . ... : F-# 04 . ... : ... .. . F04
ROW 2B : ... .. . ... : ... .. . ... : ... .. . ... : ... .. . ... : ... .. . ...
ROW 2C : F#2 02 . ... : A-2 02 . ... : C-3 08 . ... : F-# 09 . ... : ... .. . F06
ROW 2D : ... .. . ... : ... .. . ... : ... .. . ... : ... .. . ... : ... .. . ...
ROW 2E : E-1 0C . ... : G-2 02 . ... : E-2 0B . ... : F-# 04 . ... : ... .. . F04
ROW 2F : ... .. . ... : ... .. . ... : ... .. . ... : ... .. . ... : ... .. . ...
ROW 30 : E-1 0D . ... : G-2 10 . ... : ... .. . ... : ... .. . ... : ... .. . F06
ROW 31 : ... .. . ... : ... .. . ... : ... .. . ... : ... .. . ... : ... .. . ...
ROW 32 : E-1 0C . ... : E-1 11 . ... : E-2 0B . ... : F-# 04 . ... : ... .. . F04
ROW 33 : E-1 0D . ... : ... .. . ... : ... .. . ... : ... .. . ... : ... .. . ...
ROW 34 : B-1 0C . ... : F#2 02 . ... : C-3 08 . ... : F-# 09 . ... : ... .. . F06
ROW 35 : B-1 0D . ... : ... .. . ... : ... .. . ... : ... .. . ... : ... .. . ...
ROW 36 : B-1 0C . ... : G-2 02 . ... : B-2 0B . ... : F-# 04 . ... : ... .. . F04
ROW 37 : ... .. . ... : ... .. . ... : ... .. . ... : ... .. . ... : ... .. . ...
ROW 38 : B-1 0D . ... : A-2 02 . ... : ... .. . ... : ... .. . ... : ... .. . F06
ROW 39 : ... .. . ... : ... .. . ... : ... .. . ... : ... .. . ... : ... .. . ...
ROW 3A : B-1 0C . ... : G-2 02 . ... : B-2 0B . ... : F-# 04 . ... : ... .. . F04
ROW 3B : B-1 0D . ... : ... .. . ... : ... .. . ... : ... .. . ... : ... .. . ...
ROW 3C : E-1 0C . ... : F#2 02 . ... : C-3 08 . ... : F-# 09 . ... : ... .. . F06
ROW 3D : ... .. . ... : ... .. . ... : ... .. . ... : ... .. . ... : ... .. . ...
ROW 3E : E-1 0D . ... : E-2 02 . ... : E-2 0B . ... : F-# 04 . ... : ... .. . F04
ROW 3F : ... .. . ... : ... .. . ... : ... .. . ... : ... .. . ... : ... .. . ...

PATTERN 07
ROW 00 : C-1 0C . ... : C-1 11 . ... : C-2 0B . ... : F-# 04 . ... : ... .. . F06
ROW 01 : C-1 0D . ... : ... .. . ... : ... .. . ... : ... .. . ... : ... .. . ...
ROW 02 : C-1 0C . ... : ... .. . ... : C-2 0B . ... : F-# 04 . ... : ... .. . F04
ROW 03 : C-1 0D . ... : ... .. . ... : ... .. . ... : ... .. . ... : ... .. . ...
ROW 04 : C-2 02 . ... : E-2 02 . ... : C-3 08 . ... : F-# 09 . ... : ... .. . F06
ROW 05 : ... .. . ... : ... .. . ... : ... .. . ... : ... .. . ... : ... .. . ...
ROW 06 : C-2 02 . ... : E-2 02 . ... : G-2 0B . ... : F-# 04 . ... : ... .. . F04
ROW 07 : ... .. . ... : ... .. . ... : ... .. . ... : ... .. . ... : ... .. . ...
ROW 08 : G-1 0D . ... : E-2 10 . ... : ... .. . ... : ... .. . ... : ... .. . F06
ROW 09 : ... .. . ... : ... .. . ... : ... .. . ... : ... .. . ... : ... .. . ...
ROW 0A : C-2 02 . ... : E-2 02 . ... : G-2 0B . ... : F-# 04 . ... : ... .. . F04
ROW 0B : ... .. . ... : ... .. . ... : ... .. . ... : ... .. . ... : ... .. . ...
ROW 0C : C-1 0C . ... : E-2 10 . ... : C-3 08 . ... : F-# 09 . ... : ... .. . F06
ROW 0D : ... .. . ... : ... .. . ... : ... .. . ... : ... .. . ... : ... .. . ...
ROW 0E : C-1 0D . ... : ... .. . ... : ... .. . ... : F-# 04 . ... : ... .. . F04
ROW 0F : ... .. . ... : ... .. . ... : ... .. . ... : ... .. . ... : ... .. . ...
ROW 10 : D-1 0C . ... : D-1 11 . ... : D-2 0B . ... : F-# 04 . ... : ... .. . F06
ROW 11 : D-1 0D . ... : ... .. . ... : ... .. . ... : ... .. . ... : ... .. . ...
ROW 12 : D-1 0C . ... : ... .. . ... : D-2 0B . ... : F-# 04 . ... : ... .. . F04
ROW 13 : D-1 0D . ... : ... .. . ... : ... .. . ... : ... .. . ... : ... .. . ...
ROW 14 : D-2 02 . ... : F#2 02 . ... : C-3 08 . ... : F-# 09 . ... : ... .. . F06
ROW 15 : ... .. . ... : ... .. . ... : ... .. . ... : ... .. . ... : ... .. . ...
ROW 16 : D-2 02 . ... : F#2 02 . ... : A-2 0B . ... : F-# 04 . ... : ... .. . F04
ROW 17 : ... .. . ... : ... .. . ... : ... .. . ... : ... .. . ... : ... .. . ...
ROW 18 : A-1 0D . ... : F#2 10 . ... : ... .. . ... : ... .. . ... : ... .. . F06
ROW 19 : ... .. . ... : ... .. . ... : ... .. . ... : ... .. . ... : ... .. . ...
ROW 1A : D-2 02 . ... : F#2 02 . ... : A-2 0B . ... : F-# 04 . ... : ... .. . F04
ROW 1B : ... .. . ... : ... .. . ... : ... .. . ... : ... .. . ... : ... .. . ...
ROW 1C : D-1 0C . ... : F#2 10 . ... : C-3 08 . ... : F-# 09 . ... : ... .. . F06
ROW 1D : ... .. . ... : ... .. . ... : ... .. . ... : ... .. . ... : ... .. . ...
ROW 1E : D-1 0D . ... : ... .. . ... : ... .. . ... : F-# 04 . ... : ... .. . F04
ROW 1F : ... .. . ... : ... .. . ... : ... .. . ... : ... .. . ... : ... .. . ...
ROW 20 : E-1 0C . ... : E-1 0C . ... : E-2 0B . ... : F-# 04 . ... : ... .. . F06
ROW 21 : ... .. . ... : ... .. . ... : ... .. . ... : ... .. . ... : ... .. . ...
ROW 22 : E-1 0C . ... : ... .. . ... : E-2 0B . ... : F-# 04 . ... : ... .. . F04
ROW 23 : ... .. . ... : ... .. . ... : ... .. . ... : ... .. . ... : ... .. . ...
ROW 24 : E-2 02 . ... : G-2 02 . ... : C-3 08 . ... : F-# 09 . ... : ... .. . F06
ROW 25 : ... .. . ... : ... .. . ... : ... .. . ... : ... .. . ... : ... .. . ...
ROW 26 : E-2 02 . ... : G-2 02 . ... : E-2 0B . ... : F-# 04 . ... : ... .. . F04
ROW 27 : ... .. . ... : ... .. . ... : ... .. . ... : ... .. . ... : ... .. . ...
ROW 28 : E-1 0C . ... : G-2 10 . ... : ... .. . ... : ... .. . ... : ... .. . F06
ROW 29 : ... .. . ... : ... .. . ... : ... .. . ... : ... .. . ... : ... .. . ...
ROW 2A : E-2 02 . ... : G-2 02 . ... : E-2 0B . ... : F-# 04 . ... : ... .. . F04
ROW 2B : ... .. . ... : ... .. . ... : ... .. . ... : ... .. . ... : ... .. . ...
ROW 2C : E-1 0C . ... : G-2 10 . ... : C-3 08 . ... : F-# 09 . ... : ... .. . F06
ROW 2D : ... .. . ... : ... .. . ... : ... .. . ... : ... .. . ... : ... .. . ...
ROW 2E : E-1 0C . ... : ... .. . ... : ... .. . ... : F-# 04 . ... : ... .. . F04
ROW 2F : ... .. . ... : ... .. . ... : ... .. . ... : ... .. . ... : ... .. . ...
ROW 30 : E-2 02 . ... : G-2 02 . ... : E-2 0B . ... : F-# 05 . ... : ... .. . F06
ROW 31 : ... .. . ... : ... .. . ... : ... .. . ... : ... .. . ... : ... .. . ...
ROW 32 : E-1 0C . ... : ... .. . ... : ... .. . ... : ... .. . ... : ... .. . F04
ROW 33 : ... .. . ... : ... .. . ... : ... .. . ... : ... .. . ... : ... .. . ...
ROW 34 : F#1 0C . ... : A-2 0C . ... : G-3 0B . ... : F-# 05 . ... : ... .. . F06
ROW 35 : G-1 0C . ... : B-2 0C . ... : ... .. . ... : ... .. . ... : ... .. . ...
ROW 36 : --- .. . ... : --- .. . ... : ... .. . ... : ... .. . ... : ... .. . F04
ROW 37 : ... .. . ... : ... .. . ... : ... .. . ... : ... .. . ... : ... .. . ...
ROW 38 : G-1 0C . ... : B-2 0C . ... : G-3 0B . ... : F-# 05 . ... : ... .. . F06
ROW 39 : ... .. . ... : ... .. . ... : ... .. . ... : ... .. . ... : ... .. . ...
ROW 3A : F#1 0C . ... : A-2 0C . ... : F#3 01 . ... : F-# 04 . ... : ... .. . F04
ROW 3B : ... .. . ... : ... .. . ... : --- .. . ... : ... .. . ... : ... .. . ...
ROW 3C : ... .. . ... : ... .. . ... : ... .. . ... : ... .. . ... : ... .. . F06
ROW 3D : ... .. . ... : ... .. . ... : ... .. . ... : ... .. . ... : ... .. . ...
ROW 3E : ... .. . ... : ... .. . ... : ... .. . ... : ... .. . ... : ... .. . F04
ROW 3F : ... .. . ... : ... .. . ... : ... .. . ... : ... .. . ... : ... .. . ...

PATTERN 08
ROW 00 : C-1 0C . ... : C-1 11 . ... : C-2 0B . ... : F-# 04 . ... : ... .. . F06
ROW 01 : C-1 0D . ... : ... .. . ... : ... .. . ... : ... .. . ... : ... .. . ...
ROW 02 : C-1 0C . ... : ... .. . ... : C-2 0B . ... : F-# 04 . ... : ... .. . F04
ROW 03 : C-1 0D . ... : ... .. . ... : ... .. . ... : ... .. . ... : ... .. . ...
ROW 04 : C-2 02 . ... : E-2 02 . ... : C-3 08 . ... : F-# 09 . ... : ... .. . F06
ROW 05 : ... .. . ... : ... .. . ... : ... .. . ... : ... .. . ... : ... .. . ...
ROW 06 : C-2 02 . ... : E-2 02 . ... : G-2 0B . ... : F-# 04 . ... : ... .. . F04
ROW 07 : ... .. . ... : ... .. . ... : ... .. . ... : ... .. . ... : ... .. . ...
ROW 08 : G-1 0D . ... : E-2 10 . ... : ... .. . ... : ... .. . ... : ... .. . F06
ROW 09 : ... .. . ... : ... .. . ... : ... .. . ... : ... .. . ... : ... .. . ...
ROW 0A : C-2 02 . ... : E-2 02 . ... : G-2 0B . ... : F-# 04 . ... : ... .. . F04
ROW 0B : ... .. . ... : ... .. . ... : ... .. . ... : ... .. . ... : ... .. . ...
ROW 0C : C-1 0C . ... : E-2 10 . ... : C-3 08 . ... : F-# 09 . ... : ... .. . F06
ROW 0D : ... .. . ... : ... .. . ... : ... .. . ... : ... .. . ... : ... .. . ...
ROW 0E : C-1 0D . ... : ... .. . ... : ... .. . ... : F-# 04 . ... : ... .. . F04
ROW 0F : ... .. . ... : ... .. . ... : ... .. . ... : ... .. . ... : ... .. . ...
ROW 10 : D-1 0C . ... : D-1 11 . ... : D-2 0B . ... : F-# 04 . ... : ... .. . F06
ROW 11 : D-1 0D . ... : ... .. . ... : ... .. . ... : ... .. . ... : ... .. . ...
ROW 12 : D-1 0C . ... : ... .. . ... : D-2 0B . ... : F-# 04 . ... : ... .. . F04
ROW 13 : D-1 0D . ... : ... .. . ... : ... .. . ... : ... .. . ... : ... .. . ...
ROW 14 : D-2 02 . ... : F#2 02 . ... : C-3 08 . ... : F-# 09 . ... : ... .. . F06
ROW 15 : ... .. . ... : ... .. . ... : ... .. . ... : ... .. . ... : ... .. . ...
ROW 16 : D-2 02 . ... : F#2 02 . ... : A-2 0B . ... : F-# 04 . ... : ... .. . F04
ROW 17 : ... .. . ... : ... .. . ... : ... .. . ... : ... .. . ... : ... .. . ...
ROW 18 : A-1 0D . ... : F#2 10 . ... : ... .. . ... : ... .. . ... : ... .. . F06
ROW 19 : ... .. . ... : ... .. . ... : ... .. . ... : ... .. . ... : ... .. . ...
ROW 1A : D-2 02 . ... : F#2 02 . ... : A-2 0B . ... : F-# 04 . ... : ... .. . F04
ROW 1B : ... .. . ... : ... .. . ... : ... .. . ... : ... .. . ... : ... .. . ...
ROW 1C : D-1 0C . ... : F#2 10 . ... : C-3 08 . ... : F-# 09 . ... : ... .. . F06
ROW 1D : ... .. . ... : ... .. . ... : ... .. . ... : ... .. . ... : ... .. . ...
ROW 1E : D-1 0D . ... : ... .. . ... : ... .. . ... : F-# 04 . ... : ... .. . F04
ROW 1F : ... .. . ... : ... .. . ... : ... .. . ... : ... .. . ... : ... .. . ...
ROW 20 : G-1 0C . ... : G-1 11 . ... : G-2 0B . ... : F-# 04 . ... : ... .. . F06
ROW 21 : G-1 0D . ... : ... .. . ... : ... .. . ... : ... .. . ... : ... .. . ...
ROW 22 : G-1 0C . ... : ... .. . ... : G-2 0B . ... : F-# 04 . ... : ... .. . F04
ROW 23 : G-1 0D . ... : B-2 02 . ... : ... .. . ... : ... .. . ... : ... .. . ...
ROW 24 : D-2 0C . ... : C-3 02 . ... : C-3 08 . ... : F-# 09 . ... : ... .. . F06
ROW 25 : D-2 0D . ... : ... .. . ... : ... .. . ... : ... .. . ... : ... .. . ...
ROW 26 : D-2 0C . ... : C-3 10 . ... : D-3 0B . ... : F-# 04 . ... : ... .. . F04
ROW 27 : ... .. . ... : ... .. . ... : ... .. . ... : ... .. . ... : ... .. . ...
ROW 28 : D-2 0D . ... : C-3 02 . ... : ... .. . ... : ... .. . ... : ... .. . F06
ROW 29 : ... .. . ... : ... .. . ... : ... .. . ... : ... .. . ... : ... .. . ...
ROW 2A : D-2 0C . ... : B-2 02 . ... : D-3 0B . ... : F-# 04 . ... : ... .. . F04
ROW 2B : D-2 0D . ... : ... .. . ... : ... .. . ... : ... .. . ... : ... .. . ...
ROW 2C : G-1 0C . ... : B-2 10 . ... : C-3 08 . ... : F-# 09 . ... : ... .. . F06
ROW 2D : ... .. . ... : ... .. . ... : ... .. . ... : ... .. . ... : ... .. . ...
ROW 2E : G-1 0D . ... : ... .. . ... : ... .. . ... : F-# 04 . ... : ... .. . F04
ROW 2F : ... .. . ... : ... .. . ... : ... .. . ... : ... .. . ... : ... .. . ...
ROW 30 : G-1 0C . ... : G-2 02 . ... : G-2 0B . ... : F-# 05 . ... : ... .. . F06
ROW 31 : ... .. . ... : ... .. . ... : ... .. . ... : ... .. . ... : ... .. . ...
ROW 32 : G-1 0D . ... : ... .. . ... : ... .. . ... : ... .. . ... : ... .. . F04
ROW 33 : ... .. . ... : ... .. . ... : ... .. . ... : ... .. . ... : ... .. . ...
ROW 34 : ... .. . ... : ... .. . ... : ... .. . ... : ... .. . ... : ... .. . F06
ROW 35 : ... .. . ... : ... .. . ... : ... .. . ... : ... .. . ... : ... .. . ...
ROW 36 : ... .. . ... : ... .. . ... : ... .. . ... : ... .. . ... : ... .. . F04
ROW 37 : ... .. . ... : ... .. . ... : ... .. . ... : ... .. . ... : ... .. . ...
ROW 38 : ... .. . ... : ... .. . ... : ... .. . ... : ... .. . ... : ... .. . F06
ROW 39 : ... .. . ... : ... .. . ... : ... .. . ... : ... .. . ... : ... .. . ...
ROW 3A : ... .. . ... : ... .. . ... : ... .. . ... : ... .. . ... : ... .. . F04
ROW 3B : ... .. . ... : ... .. . ... : ... .. . ... : ... .. . ... : ... .. . ...
ROW 3C : ... .. . ... : ... .. . ... : ... .. . ... : ... .. . ... : ... .. . F06
ROW 3D : ... .. . ... : ... .. . ... : ... .. . ... : ... .. . ... : ... .. . ...
ROW 3E : ... .. . ... : ... .. . ... : ... .. . ... : ... .. . ... : ... .. . F04
ROW 3F : ... .. . ... : ... .. . ... : ... .. . ... : ... .. . ... : ... .. . ...

TRACK  32   6 150 "Level Clear"
COLUMNS : 1 1 1 1 1

ORDER 00 : 00 00 00 00 00
ORDER 01 : 01 01 01 01 01

PATTERN 00
ROW 00 : C-1 0C . ... : C-2 07 . ... : C-2 0B . ... : F-# 04 . ... : ... .. . F06
ROW 01 : C-1 0D . ... : C-2 0A . ... : ... .. . ... : ... .. . ... : ... .. . ...
ROW 02 : C-1 0C . ... : C-3 07 . ... : C-2 0B . ... : F-# 04 . ... : ... .. . F04
ROW 03 : C-1 0D . ... : C-2 0A . ... : ... .. . ... : ... .. . ... : ... .. . ...
ROW 04 : C-1 0C . ... : G-3 07 . ... : C-3 08 . ... : F-# 09 . ... : ... .. . F06
ROW 05 : C-1 0D . ... : C-3 0A . ... : ... .. . ... : ... .. . ... : ... .. . ...
ROW 06 : C-1 0C . ... : C-4 07 . ... : C-2 0B . ... : F-# 04 . ... : ... .. . F04
ROW 07 : C-1 0D . ... : G-3 0A . ... : ... .. . ... : ... .. . ... : ... .. . ...
ROW 08 : F-1 0C . ... : F-2 07 . ... : F-2 0B . ... : F-# 04 . ... : ... .. . F06
ROW 09 : F-1 0D . ... : C-4 0A . ... : ... .. . ... : ... .. . ... : ... .. . ...
ROW 0A : F-1 0C . ... : F-3 07 . ... : F-2 0B . ... : F-# 04 . ... : ... .. . F04
ROW 0B : F-1 0D . ... : F-2 0A . ... : ... .. . ... : ... .. . ... : ... .. . ...
ROW 0C : F-1 0C . ... : A-3 07 . ... : C-3 08 . ... : F-# 09 . ... : ... .. . F06
ROW 0D : F-1 0D . ... : F-3 0A . ... : ... .. . ... : ... .. . ... : ... .. . ...
ROW 0E : F-1 0C . ... : C-4 07 . ... : F-2 0B . ... : F-# 04 . ... : ... .. . F04
ROW 0F : F-1 0D . ... : A-3 0A . ... : ... .. . ... : ... .. . ... : ... .. . ...
ROW 10 : A-1 0C . ... : E-4 07 . ... : A-2 0B . ... : F-# 04 . ... : ... .. . F06
ROW 11 : A-1 0D . ... : C-4 0A . ... : ... .. . ... : ... .. . ... : ... .. . ...
ROW 12 : A-1 0C . ... : D-4 07 . ... : A-2 0B . ... : F-# 04 . ... : ... .. . F04
ROW 13 : A-1 0D . ... : E-4 0A . ... : ... .. . ... : ... .. . ... : ... .. . ...
ROW 14 : G-1 0C . ... : B-3 07 . ... : C-3 08 . ... : F-# 09 . ... : ... .. . F06
ROW 15 : G-1 0D . ... : D-4 0A . ... : ... .. . ... : ... .. . ... : ... .. . ...
ROW 16 : C-1 0C . ... : C-4 07 . ... : C-2 01 . ... : F-# 04 . ... : ... .. . F04
ROW 17 : ... .. . ... : ... .. . ... : ... .. . ... : ... .. . ... : ... .. . ...
ROW 18 : C-1 0D . ... : ... .. . ... : ... .. . ... : ... .. . ... : ... .. . F06
ROW 19 : ... .. . ... : ... .. . ... : ... .. . ... : ... .. . ... : ... .. . ...
ROW 1A : ... .. . ... : C-4 0A . ... : --- .. . ... : ... .. . ... : ... .. . F04
ROW 1B : ... .. . ... : ... .. . ... : ... .. . ... : ... .. . ... : ... .. . ...
ROW 1C : ... .. . ... : ... .. . ... : ... .. . ... : ... .. . ... : ... .. . F06
ROW 1D : ... .. . ... : ... .. . ... : ... .. . ... : ... .. . ... : ... .. . ...
ROW 1E : ... .. . ... : ... .. . ... : ... .. . ... : ... .. . ... : ... .. . F04
ROW 1F : ... .. . ... : ... .. . ... : ... .. . ... : ... .. . ... : ... .. . ...

PATTERN 01
ROW 00 : ... .. . ... : ... .. . ... : ... .. . ... : ... .. . ... : ... .. . ...
ROW 01 : ... .. . ... : ... .. . ... : ... .. . ... : ... .. . ... : ... .. . ...
ROW 02 : ... .. . ... : ... .. . ... : ... .. . ... : ... .. . ... : ... .. . ...
ROW 03 : ... .. . ... : ... .. . ... : ... .. . ... : ... .. . ... : ... .. . ...
ROW 04 : ... .. . ... : ... .. . ... : ... .. . ... : ... .. . ... : ... .. . ...
ROW 05 : ... .. . ... : ... .. . ... : ... .. . ... : ... .. . ... : ... .. . ...
ROW 06 : ... .. . ... : ... .. . ... : ... .. . ... : ... .. . ... : ... .. . ...
ROW 07 : ... .. . ... : ... .. . ... : ... .. . ... : ... .. . ... : ... .. . ...
ROW 08 : ... .. . ... : ... .. . ... : ... .. . ... : ... .. . ... : ... .. . ...
ROW 09 : ... .. . ... : ... .. . ... : ... .. . ... : ... .. . ... : ... .. . ...
ROW 0A : ... .. . ... : ... .. . ... : ... .. . ... : ... .. . ... : ... .. . ...
ROW 0B : ... .. . ... : ... .. . ... : ... .. . ... : ... .. . ... : ... .. . ...
ROW 0C : ... .. . ... : ... .. . ... : ... .. . ... : ... .. . ... : ... .. . ...
ROW 0D : ... .. . ... : ... .. . ... : ... .. . ... : ... .. . ... : ... .. . ...
ROW 0E : ... .. . ... : ... .. . ... : ... .. . ... : ... .. . ... : ... .. . ...
ROW 0F : ... .. . ... : ... .. . ... : ... .. . ... : ... .. . ... : ... .. . ...
ROW 10 : ... .. . ... : ... .. . ... : ... .. . ... : ... .. . ... : ... .. . ...
ROW 11 : ... .. . ... : ... .. . ... : ... .. . ... : ... .. . ... : ... .. . ...
ROW 12 : ... .. . ... : ... .. . ... : ... .. . ... : ... .. . ... : ... .. . ...
ROW 13 : ... .. . ... : ... .. . ... : ... .. . ... : ... .. . ... : ... .. . ...
ROW 14 : ... .. . ... : ... .. . ... : ... .. . ... : ... .. . ... : ... .. . ...
ROW 15 : ... .. . ... : ... .. . ... : ... .. . ... : ... .. . ... : ... .. . ...
ROW 16 : ... .. . ... : ... .. . ... : ... .. . ... : ... .. . ... : ... .. . ...
ROW 17 : ... .. . ... : ... .. . ... : ... .. . ... : ... .. . ... : ... .. . ...
ROW 18 : ... .. . ... : ... .. . ... : ... .. . ... : ... .. . ... : ... .. . ...
ROW 19 : ... .. . ... : ... .. . ... : ... .. . ... : ... .. . ... : ... .. . ...
ROW 1A : ... .. . ... : ... .. . ... : ... .. . ... : ... .. . ... : ... .. . ...
ROW 1B : ... .. . ... : ... .. . ... : ... .. . ... : ... .. . ... : ... .. . ...
ROW 1C : ... .. . ... : ... .. . ... : ... .. . ... : ... .. . ... : ... .. . ...
ROW 1D : ... .. . ... : ... .. . ... : ... .. . ... : ... .. . ... : ... .. . ...
ROW 1E : ... .. . ... : ... .. . ... : ... .. . ... : ... .. . ... : ... .. . ...
ROW 1F : ... .. . B01 : ... .. . ... : ... .. . ... : ... .. . ... : ... .. . ...

TRACK  32   6 150 "Out"
COLUMNS : 1 1 1 1 1

ORDER 00 : 00 00 00 00 00
ORDER 01 : 01 01 01 01 01

PATTERN 00
ROW 00 : G-1 0C . ... : B-2 03 . ... : G-2 0B . ... : F-# 04 . ... : ... .. . F06
ROW 01 : G-1 0D . ... : B-2 06 . ... : ... .. . ... : ... .. . ... : ... .. . ...
ROW 02 : G-1 0C . ... : B-2 03 . ... : G-2 0B . ... : F-# 04 . ... : ... .. . F04
ROW 03 : G-1 0D . ... : B-2 06 . ... : ... .. . ... : ... .. . ... : ... .. . ...
ROW 04 : F-1 0C . ... : A-2 03 . ... : C-3 08 . ... : F-# 09 . ... : ... .. . F06
ROW 05 : F-1 0D . ... : B-2 06 . ... : ... .. . ... : ... .. . ... : ... .. . ...
ROW 06 : G-1 0C . ... : B-2 03 . ... : G-2 0B . ... : F-# 04 . ... : ... .. . F04
ROW 07 : G-1 0D . ... : A-2 06 . ... : ... .. . ... : ... .. . ... : ... .. . ...
ROW 08 : F-1 0C . ... : A-2 03 . ... : F-2 0B . ... : F-# 04 . ... : ... .. . F06
ROW 09 : F-1 0D . ... : B-2 06 . ... : ... .. . ... : ... .. . ... : ... .. . ...
ROW 0A : F-1 0C . ... : A-2 03 . ... : F-2 0B . ... : F-# 04 . ... : ... .. . F04
ROW 0B : F-1 0D . ... : A-2 06 . ... : ... .. . ... : ... .. . ... : ... .. . ...
ROW 0C : E-1 0C . ... : G-2 03 . ... : C-3 08 . ... : F-# 09 . ... : ... .. . F06
ROW 0D : E-1 0D . ... : A-2 06 . ... : ... .. . ... : ... .. . ... : ... .. . ...
ROW 0E : F-1 0C . ... : A-2 03 . ... : F-2 0B . ... : F-# 04 . ... : ... .. . F04
ROW 0F : F-1 0D . ... : G-2 06 . ... : ... .. . ... : ... .. . ... : ... .. . ...
ROW 10 : C-1 0C . ... : E-2 03 . ... : C-2 0B . ... : F-# 04 . ... : ... .. . F06
ROW 11 : ... .. . ... : ... .. . ... : ... .. . ... : ... .. . ... : ... .. . ...
ROW 12 : ... .. . ... : ... .. . ... : ... .. . ... : ... .. . ... : ... .. . F04
ROW 13 : ... .. . ... : ... .. . ... : ... .. . ... : ... .. . ... : ... .. . ...
ROW 14 : C-1 0D . ... : E-2 06 . ... : ... .. . ... : ... .. . ... : ... .. . F06
ROW 15 : ... .. . ... : ... .. . ... : ... .. . ... : ... .. . ... : ... .. . ...
ROW 16 : ... .. . ... : ... .. . ... : ... .. . ... : ... .. . ... : ... .. . F04
ROW 17 : ... .. . ... : ... .. . ... : ... .. . ... : ... .. . ... : ... .. . ...
ROW 18 : C-1 0C . ... : ... .. . ... : C-2 01 . ... : ... .. . ... : ... .. . F06
ROW 19 : ... .. . ... : ... .. . ... : ... .. . ... : ... .. . ... : ... .. . ...
ROW 1A : ... .. . ... : ... .. . ... : ... .. . ... : ... .. . ... : ... .. . F04
ROW 1B : ... .. . ... : ... .. . ... : ... .. . ... : ... .. . ... : ... .. . ...
ROW 1C : C-1 0D . ... : ... .. . ... : --- .. . ... : ... .. . ... : ... .. . F06
ROW 1D : ... .. . ... : ... .. . ... : ... .. . ... : ... .. . ... : ... .. . ...
ROW 1E : ... .. . ... : ... .. . ... : ... .. . ... : ... .. . ... : ... .. . F04
ROW 1F : ... .. . ... : ... .. . ... : ... .. . ... : ... .. . ... : ... .. . ...

PATTERN 01
ROW 00 : ... .. . ... : ... .. . ... : ... .. . ... : ... .. . ... : ... .. . ...
ROW 01 : ... .. . ... : ... .. . ... : ... .. . ... : ... .. . ... : ... .. . ...
ROW 02 : ... .. . ... : ... .. . ... : ... .. . ... : ... .. . ... : ... .. . ...
ROW 03 : ... .. . ... : ... .. . ... : ... .. . ... : ... .. . ... : ... .. . ...
ROW 04 : ... .. . ... : ... .. . ... : ... .. . ... : ... .. . ... : ... .. . ...
ROW 05 : ... .. . ... : ... .. . ... : ... .. . ... : ... .. . ... : ... .. . ...
ROW 06 : ... .. . ... : ... .. . ... : ... .. . ... : ... .. . ... : ... .. . ...
ROW 07 : ... .. . ... : ... .. . ... : ... .. . ... : ... .. . ... : ... .. . ...
ROW 08 : ... .. . ... : ... .. . ... : ... .. . ... : ... .. . ... : ... .. . ...
ROW 09 : ... .. . ... : ... .. . ... : ... .. . ... : ... .. . ... : ... .. . ...
ROW 0A : ... .. . ... : ... .. . ... : ... .. . ... : ... .. . ... : ... .. . ...
ROW 0B : ... .. . ... : ... .. . ... : ... .. . ... : ... .. . ... : ... .. . ...
ROW 0C : ... .. . ... : ... .. . ... : ... .. . ... : ... .. . ... : ... .. . ...
ROW 0D : ... .. . ... : ... .. . ... : ... .. . ... : ... .. . ... : ... .. . ...
ROW 0E : ... .. . ... : ... .. . ... : ... .. . ... : ... .. . ... : ... .. . ...
ROW 0F : ... .. . ... : ... .. . ... : ... .. . ... : ... .. . ... : ... .. . ...
ROW 10 : ... .. . ... : ... .. . ... : ... .. . ... : ... .. . ... : ... .. . ...
ROW 11 : ... .. . ... : ... .. . ... : ... .. . ... : ... .. . ... : ... .. . ...
ROW 12 : ... .. . ... : ... .. . ... : ... .. . ... : ... .. . ... : ... .. . ...
ROW 13 : ... .. . ... : ... .. . ... : ... .. . ... : ... .. . ... : ... .. . ...
ROW 14 : ... .. . ... : ... .. . ... : ... .. . ... : ... .. . ... : ... .. . ...
ROW 15 : ... .. . ... : ... .. . ... : ... .. . ... : ... .. . ... : ... .. . ...
ROW 16 : ... .. . ... : ... .. . ... : ... .. . ... : ... .. . ... : ... .. . ...
ROW 17 : ... .. . ... : ... .. . ... : ... .. . ... : ... .. . ... : ... .. . ...
ROW 18 : ... .. . ... : ... .. . ... : ... .. . ... : ... .. . ... : ... .. . ...
ROW 19 : ... .. . ... : ... .. . ... : ... .. . ... : ... .. . ... : ... .. . ...
ROW 1A : ... .. . ... : ... .. . ... : ... .. . ... : ... .. . ... : ... .. . ...
ROW 1B : ... .. . ... : ... .. . ... : ... .. . ... : ... .. . ... : ... .. . ...
ROW 1C : ... .. . ... : ... .. . ... : ... .. . ... : ... .. . ... : ... .. . ...
ROW 1D : ... .. . ... : ... .. . ... : ... .. . ... : ... .. . ... : ... .. . ...
ROW 1E : ... .. . ... : ... .. . ... : ... .. . ... : ... .. . ... : ... .. . ...
ROW 1F : ... .. . B01 : ... .. . ... : ... .. . ... : ... .. . ... : ... .. . ...

TRACK  64   6 150 "Credits"
COLUMNS : 1 1 1 1 1

ORDER 00 : 00 00 00 00 00
ORDER 01 : 01 01 01 01 01
ORDER 02 : 00 00 00 00 00
ORDER 03 : 04 04 04 04 04
ORDER 04 : 02 02 02 02 02
ORDER 05 : 03 03 03 03 03
ORDER 06 : 05 05 05 05 05
ORDER 07 : 06 06 06 06 06

PATTERN 00
ROW 00 : D-1 02 . ... : D-1 03 . ... : D-2 0B . ... : F-# 04 . ... : ... .. . F06
ROW 01 : ... .. . ... : ... .. . ... : ... .. . ... : ... .. . ... : ... .. . ...
ROW 02 : D-1 02 . ... : ... .. . ... : D-2 0B . ... : ... .. . ... : ... .. . F04
ROW 03 : ... .. . ... : ... .. . ... : ... .. . ... : ... .. . ... : ... .. . ...
ROW 04 : F#2 02 . ... : ... .. . ... : D-3 0B . ... : F-# 05 . ... : ... .. . F06
ROW 05 : ... .. . ... : ... .. . ... : ... .. . ... : ... .. . ... : ... .. . ...
ROW 06 : F#2 02 . ... : ... .. . ... : ... .. . ... : ... .. . ... : ... .. . F04
ROW 07 : --- .. . ... : ... .. . ... : ... .. . ... : ... .. . ... : ... .. . ...
ROW 08 : D-1 02 . ... : ... .. . ... : C-3 08 . ... : F-# 09 . ... : ... .. . F06
ROW 09 : ... .. . ... : ... .. . ... : ... .. . ... : ... .. . ... : ... .. . ...
ROW 0A : --- .. . ... : ... .. . ... : ... .. . ... : ... .. . ... : ... .. . F04
ROW 0B : ... .. . ... : ... .. . ... : ... .. . ... : ... .. . ... : ... .. . ...
ROW 0C : F#2 02 . ... : B-2 07 . ... : D-2 0B . ... : F-# 05 . ... : ... .. . F06
ROW 0D : --- .. . ... : --- .. . ... : ... .. . ... : ... .. . ... : ... .. . ...
ROW 0E : F#2 10 . ... : B-2 07 . ... : D-3 0B . ... : ... .. . ... : ... .. . F04
ROW 0F : B-2 0A . ... : C-3 07 . ... : ... .. . ... : ... .. . ... : ... .. . ...
ROW 10 : C-1 02 . ... : ... .. . ... : C-2 0B . ... : F-# 04 . ... : ... .. . F06
ROW 11 : C-3 0A . ... : ... .. . ... : ... .. . ... : ... .. . ... : ... .. . ...
ROW 12 : C-1 02 . ... : ... .. . ... : C-2 0B . ... : ... .. . ... : ... .. . F04
ROW 13 : C-3 0A . ... : ... .. . ... : ... .. . ... : ... .. . ... : ... .. . ...
ROW 14 : G-2 02 . ... : B-2 07 . ... : C-3 0B . ... : F-# 05 . ... : ... .. . F06
ROW 15 : ... .. . ... : ... .. . ... : ... .. . ... : ... .. . ... : ... .. . ...
ROW 16 : G-2 02 . ... : ... .. . ... : ... .. . ... : ... .. . ... : ... .. . F04
ROW 17 : B-2 0A . ... : ... .. . ... : ... .. . ... : ... .. . ... : ... .. . ...
ROW 18 : C-1 02 . ... : G-2 07 . ... : C-3 08 . ... : F-# 09 . ... : ... .. . F06
ROW 19 : ... .. . ... : ... .. . ... : ... .. . ... : ... .. . ... : ... .. . ...
ROW 1A : G-2 0A . ... : ... .. . ... : ... .. . ... : ... .. . ... : ... .. . F04
ROW 1B : ... .. . ... : ... .. . ... : ... .. . ... : ... .. . ... : ... .. . ...
ROW 1C : G-2 02 . ... : F#2 07 . ... : C-2 0B . ... : F-# 05 . ... : ... .. . F06
ROW 1D : ... .. . ... : ... .. . ... : ... .. . ... : ... .. . ... : ... .. . ...
ROW 1E : G-2 10 . ... : G-2 07 . ... : C-3 0B . ... : ... .. . ... : ... .. . F04
ROW 1F : G-2 0A . ... : ... .. . ... : ... .. . ... : ... .. . ... : ... .. . ...
ROW 20 : G-1 02 . ... : ... .. . ... : G-1 0B . ... : F-# 04 . ... : ... .. . F06
ROW 21 : G-2 0A . ... : ... .. . ... : ... .. . ... : ... .. . ... : ... .. . ...
ROW 22 : G-1 02 . ... : ... .. . ... : G-1 0B . ... : ... .. . ... : ... .. . F04
ROW 23 : G-2 0A . ... : ... .. . ... : ... .. . ... : ... .. . ... : ... .. . ...
ROW 24 : B-2 02 . ... : ... .. . ... : G-2 0B . ... : F-# 05 . ... : ... .. . F06
ROW 25 : ... .. . ... : ... .. . ... : ... .. . ... : ... .. . ... : ... .. . ...
ROW 26 : B-2 02 . ... : ... .. . ... : ... .. . ... : ... .. . ... : ... .. . F04
ROW 27 : --- .. . ... : ... .. . ... : ... .. . ... : ... .. . ... : ... .. . ...
ROW 28 : G-1 02 . ... : ... .. . ... : C-3 08 . ... : F-# 09 . ... : ... .. . F06
ROW 29 : ... .. . ... : ... .. . ... : ... .. . ... : ... .. . ... : ... .. . ...
ROW 2A : --- 02 . ... : ... .. . ... : ... .. . ... : ... .. . ... : ... .. . F04
ROW 2B : ... .. . ... : ... .. . ... : ... .. . ... : ... .. . ... : ... .. . ...
ROW 2C : B-2 02 . ... : ... .. . ... : G-1 0B . ... : F-# 05 . ... : ... .. . F06
ROW 2D : --- .. . ... : ... .. . ... : ... .. . ... : ... .. . ... : ... .. . ...
ROW 2E : B-2 10 . ... : ... .. . ... : G-2 0B . ... : ... .. . ... : ... .. . F04
ROW 2F : ... .. . ... : ... .. . ... : ... .. . ... : ... .. . ... : ... .. . ...
ROW 30 : G-1 02 . ... : ... .. . ... : G-1 0B . ... : F-# 04 . ... : ... .. . F06
ROW 31 : ... .. . ... : ... .. . ... : ... .. . ... : ... .. . ... : ... .. . ...
ROW 32 : G-1 02 . ... : ... .. . ... : G-1 0B . ... : ... .. . ... : ... .. . F04
ROW 33 : ... .. . ... : ... .. . ... : ... .. . ... : ... .. . ... : ... .. . ...
ROW 34 : B-2 02 . ... : ... .. . ... : G-2 0B . ... : F-# 05 . ... : ... .. . F06
ROW 35 : ... .. . ... : ... .. . ... : ... .. . ... : ... .. . ... : ... .. . ...
ROW 36 : B-2 02 . ... : ... .. . ... : ... .. . ... : ... .. . ... : ... .. . F04
ROW 37 : --- .. . ... : ... .. . ... : ... .. . ... : ... .. . ... : ... .. . ...
ROW 38 : G-1 02 . ... : ... .. . ... : C-3 08 . ... : F-# 09 . ... : ... .. . F06
ROW 39 : ... .. . ... : ... .. . ... : ... .. . ... : ... .. . ... : ... .. . ...
ROW 3A : --- 02 . ... : E-1 03 . ... : ... .. . ... : ... .. . ... : ... .. . F04
ROW 3B : ... .. . ... : ... .. . ... : ... .. . ... : ... .. . ... : ... .. . ...
ROW 3C : B-2 02 . ... : G-1 03 . ... : G-1 0B . ... : F-# 05 . ... : ... .. . F06
ROW 3D : --- .. . ... : ... .. . ... : ... .. . ... : ... .. . ... : ... .. . ...
ROW 3E : B-2 10 . ... : C-1 03 . ... : G-2 0B . ... : ... .. . ... : ... .. . F04
ROW 3F : ... .. . ... : ... .. . ... : ... .. . ... : ... .. . ... : ... .. . ...

PATTERN 01
ROW 00 : D-1 02 . ... : D-1 03 . ... : D-2 0B . ... : F-# 04 . ... : ... .. . F06
ROW 01 : ... .. . ... : ... .. . ... : ... .. . ... : ... .. . ... : ... .. . ...
ROW 02 : D-1 02 . ... : ... .. . ... : D-2 0B . ... : ... .. . ... : ... .. . F04
ROW 03 : ... .. . ... : ... .. . ... : ... .. . ... : ... .. . ... : ... .. . ...
ROW 04 : F#2 02 . ... : ... .. . ... : D-3 0B . ... : F-# 05 . ... : ... .. . F06
ROW 05 : ... .. . ... : ... .. . ... : ... .. . ... : ... .. . ... : ... .. . ...
ROW 06 : F#2 02 . ... : ... .. . ... : ... .. . ... : ... .. . ... : ... .. . F04
ROW 07 : --- .. . ... : ... .. . ... : ... .. . ... : ... .. . ... : ... .. . ...
ROW 08 : D-1 02 . ... : ... .. . ... : C-3 08 . ... : F-# 09 . ... : ... .. . F06
ROW 09 : ... .. . ... : ... .. . ... : ... .. . ... : ... .. . ... : ... .. . ...
ROW 0A : --- 02 . ... : ... .. . ... : ... .. . ... : ... .. . ... : ... .. . F04
ROW 0B : ... .. . ... : ... .. . ... : ... .. . ... : ... .. . ... : ... .. . ...
ROW 0C : F#2 02 . ... : B-2 07 . ... : D-2 0B . ... : F-# 05 . ... : ... .. . F06
ROW 0D : --- .. . ... : --- 07 . ... : ... .. . ... : ... .. . ... : ... .. . ...
ROW 0E : F#2 10 . ... : B-2 07 . ... : D-3 0B . ... : ... .. . ... : ... .. . F04
ROW 0F : B-2 0A . ... : C-3 07 . ... : ... .. . ... : ... .. . ... : ... .. . ...
ROW 10 : C-1 02 . ... : ... .. . ... : C-2 0B . ... : F-# 04 . ... : ... .. . F06
ROW 11 : C-3 0A . ... : ... .. . ... : ... .. . ... : ... .. . ... : ... .. . ...
ROW 12 : C-1 02 . ... : ... .. . ... : C-2 0B . ... : ... .. . ... : ... .. . F04
ROW 13 : C-3 0A . ... : ... .. . ... : ... .. . ... : ... .. . ... : ... .. . ...
ROW 14 : G-2 02 . ... : B-2 07 . ... : C-3 0B . ... : F-# 05 . ... : ... .. . F06
ROW 15 : ... .. . ... : ... .. . ... : ... .. . ... : ... .. . ... : ... .. . ...
ROW 16 : G-2 02 . ... : G-2 07 . ... : ... .. . ... : ... .. . ... : ... .. . F04
ROW 17 : B-2 0A . ... : ... .. . ... : ... .. . ... : ... .. . ... : ... .. . ...
ROW 18 : C-1 02 . ... : ... .. . ... : C-3 08 . ... : F-# 09 . ... : ... .. . F06
ROW 19 : ... .. . ... : ... .. . ... : ... .. . ... : ... .. . ... : ... .. . ...
ROW 1A : G-2 0A . ... : ... .. . ... : ... .. . ... : ... .. . ... : ... .. . F04
ROW 1B : ... .. . ... : ... .. . ... : ... .. . ... : ... .. . ... : ... .. . ...
ROW 1C : G-2 02 . ... : D-2 07 . ... : C-2 0B . ... : F-# 05 . ... : ... .. . F06
ROW 1D : --- .. . ... : ... .. . ... : ... .. . ... : ... .. . ... : ... .. . ...
ROW 1E : G-2 10 . ... : ... .. . ... : C-3 0B . ... : ... .. . ... : ... .. . F04
ROW 1F : D-2 0A . ... : ... .. . ... : ... .. . ... : ... .. . ... : ... .. . ...
ROW 20 : G-1 02 . ... : A-2 07 . ... : G-2 0B . ... : F-# 04 . ... : ... .. . F06
ROW 21 : ... .. . ... : ... .. . ... : ... .. . ... : ... .. . ... : ... .. . ...
ROW 22 : G-1 02 . ... : B-2 07 . ... : G-2 0B . ... : ... .. . ... : ... .. . F04
ROW 23 : A-2 0A . ... : ... .. . ... : ... .. . ... : ... .. . ... : ... .. . ...
ROW 24 : B-2 02 . ... : ... .. . ... : G-3 0B . ... : F-# 05 . ... : ... .. . F06
ROW 25 : B-2 0A . ... : ... .. . ... : ... .. . ... : ... .. . ... : ... .. . ...
ROW 26 : B-2 02 . ... : ... .. . ... : ... .. . ... : ... .. . ... : ... .. . F04
ROW 27 : B-2 0A . ... : ... .. . ... : ... .. . ... : ... .. . ... : ... .. . ...
ROW 28 : G-1 02 . ... : ... .. . ... : C-3 08 . ... : F-# 09 . ... : ... .. . F06
ROW 29 : ... .. . ... : ... .. . ... : ... .. . ... : ... .. . ... : ... .. . ...
ROW 2A : B-2 0A . ... : ... .. . ... : ... .. . ... : ... .. . ... : ... .. . F04
ROW 2B : ... .. . ... : ... .. . ... : ... .. . ... : ... .. . ... : ... .. . ...
ROW 2C : B-2 02 . ... : ... .. . ... : G-2 0B . ... : F-# 05 . ... : ... .. . F06
ROW 2D : --- .. . ... : ... .. . ... : ... .. . ... : ... .. . ... : ... .. . ...
ROW 2E : B-2 10 . ... : ... .. . ... : G-3 0B . ... : ... .. . ... : ... .. . F04
ROW 2F : ... .. . ... : ... .. . ... : ... .. . ... : ... .. . ... : ... .. . ...
ROW 30 : G-1 02 . ... : ... .. . ... : G-2 0B . ... : F-# 04 . ... : ... .. . F06
ROW 31 : ... .. . ... : ... .. . ... : ... .. . ... : ... .. . ... : ... .. . ...
ROW 32 : G-1 02 . ... : ... .. . ... : G-2 0B . ... : ... .. . ... : ... .. . F04
ROW 33 : ... .. . ... : ... .. . ... : ... .. . ... : ... .. . ... : ... .. . ...
ROW 34 : B-2 02 . ... : ... .. . ... : G-3 0B . ... : F-# 05 . ... : ... .. . F06
ROW 35 : ... .. . ... : ... .. . ... : ... .. . ... : ... .. . ... : ... .. . ...
ROW 36 : B-2 02 . ... : ... .. . ... : ... .. . ... : ... .. . ... : ... .. . F04
ROW 37 : --- .. . ... : ... .. . ... : ... .. . ... : ... .. . ... : ... .. . ...
ROW 38 : G-1 02 . ... : G-1 03 . ... : C-3 08 . ... : F-# 09 . ... : ... .. . F06
ROW 39 : ... .. . ... : ... .. . ... : ... .. . ... : ... .. . ... : ... .. . ...
ROW 3A : ... .. . ... : ... .. . ... : ... .. . ... : ... .. . ... : ... .. . F04
ROW 3B : ... .. . ... : ... .. . ... : ... .. . ... : ... .. . ... : ... .. . ...
ROW 3C : F#1 02 . ... : F#1 03 . ... : F#2 0B . ... : F-# 09 . ... : ... .. . F06
ROW 3D : ... .. . ... : ... .. . ... : ... .. . ... : ... .. . ... : ... .. . ...
ROW 3E : ... .. . ... : ... .. . ... : ... .. . ... : ... .. . ... : ... .. . F04
ROW 3F : ... .. . ... : ... .. . ... : ... .. . ... : ... .. . ... : ... .. . ...

PATTERN 02
ROW 00 : F-1 02 . ... : ... .. . ... : F-1 0B . ... : F-# 04 . ... : ... .. . F06
ROW 01 : ... .. . ... : ... .. . ... : ... .. . ... : ... .. . ... : ... .. . ...
ROW 02 : F-1 02 . ... : D-2 03 . ... : F-1 0B . ... : F-# 04 . ... : ... .. . F04
ROW 03 : ... .. . ... : ... .. . ... : ... .. . ... : ... .. . ... : ... .. . ...
ROW 04 : A-2 02 . ... : E-2 03 . ... : F-2 0B . ... : F-# 05 . ... : ... .. . F06
ROW 05 : D-2 06 . ... : ... .. . ... : ... .. . ... : ... .. . ... : ... .. . ...
ROW 06 : A-2 02 . ... : G-2 03 . ... : F-2 0B . ... : F-# 04 . ... : ... .. . F04
ROW 07 : E-2 06 . ... : ... .. . ... : ... .. . ... : ... .. . ... : ... .. . ...
ROW 08 : A-2 10 . ... : A-2 03 . ... : C-3 08 . ... : F-# 09 . ... : ... .. . F06
ROW 09 : G-2 06 . ... : ... .. . ... : ... .. . ... : ... .. . ... : ... .. . ...
ROW 0A : F-1 02 . ... : ... .. . ... : F-1 0B . ... : F-# 04 . ... : ... .. . F04
ROW 0B : A-2 06 . ... : ... .. . ... : ... .. . ... : ... .. . ... : ... .. . ...
ROW 0C : A-2 02 . ... : B-2 03 . ... : F-2 0B . ... : F-# 05 . ... : ... .. . F06
ROW 0D : ... .. . ... : --- .. . ... : ... .. . ... : ... .. . ... : ... .. . ...
ROW 0E : A-2 10 . ... : B-2 03 . ... : F-2 0B . ... : F-# 04 . ... : ... .. . F04
ROW 0F : B-2 06 . ... : C-3 03 . ... : ... .. . ... : ... .. . ... : ... .. . ...
ROW 10 : C-1 02 . ... : ... .. . ... : C-2 0B . ... : F-# 04 . ... : ... .. . F06
ROW 11 : C-3 06 . ... : ... .. . ... : ... .. . ... : ... .. . ... : ... .. . ...
ROW 12 : C-1 02 . ... : ... .. . ... : C-2 0B . ... : F-# 04 . ... : ... .. . F04
ROW 13 : C-3 06 . ... : ... .. . ... : ... .. . ... : ... .. . ... : ... .. . ...
ROW 14 : E-2 02 . ... : B-2 03 . ... : C-3 0B . ... : F-# 05 . ... : ... .. . F06
ROW 15 : ... .. . ... : ... .. . ... : ... .. . ... : ... .. . ... : ... .. . ...
ROW 16 : E-2 02 . ... : ... .. . ... : C-3 0B . ... : F-# 04 . ... : ... .. . F04
ROW 17 : B-2 06 . ... : ... .. . ... : ... .. . ... : ... .. . ... : ... .. . ...
ROW 18 : E-2 10 . ... : A-2 03 . ... : C-3 08 . ... : F-# 09 . ... : ... .. . F06
ROW 19 : ... .. . ... : ... .. . ... : ... .. . ... : ... .. . ... : ... .. . ...
ROW 1A : C-1 02 . ... : ... .. . ... : C-2 0B . ... : F-# 04 . ... : ... .. . F04
ROW 1B : A-2 06 . ... : ... .. . ... : ... .. . ... : ... .. . ... : ... .. . ...
ROW 1C : E-2 02 . ... : G-2 03 . ... : C-3 0B . ... : F-# 05 . ... : ... .. . F06
ROW 1D : ... .. . ... : ... .. . ... : ... .. . ... : ... .. . ... : ... .. . ...
ROW 1E : E-2 10 . ... : A-2 03 . ... : C-3 0B . ... : F-# 04 . ... : ... .. . F04
ROW 1F : G-2 06 . ... : ... .. . ... : ... .. . ... : ... .. . ... : ... .. . ...
ROW 20 : G-1 02 . ... : ... .. . ... : G-1 0B . ... : F-# 04 . ... : ... .. . F06
ROW 21 : A-2 06 . ... : ... .. . ... : ... .. . ... : ... .. . ... : ... .. . ...
ROW 22 : G-1 02 . ... : ... .. . ... : G-1 0B . ... : F-# 04 . ... : ... .. . F04
ROW 23 : ... .. . ... : ... .. . ... : ... .. . ... : ... .. . ... : ... .. . ...
ROW 24 : B-2 02 . ... : B-2 03 . ... : G-2 0B . ... : F-# 05 . ... : ... .. . F06
ROW 25 : ... .. . ... : ... .. . ... : ... .. . ... : ... .. . ... : ... .. . ...
ROW 26 : B-2 02 . ... : ... .. . ... : G-2 0B . ... : F-# 04 . ... : ... .. . F04
ROW 27 : B-2 06 . ... : ... .. . ... : ... .. . ... : ... .. . ... : ... .. . ...
ROW 28 : B-2 10 . ... : ... .. . ... : C-3 08 . ... : F-# 09 . ... : ... .. . F06
ROW 29 : B-2 06 . ... : ... .. . ... : ... .. . ... : ... .. . ... : ... .. . ...
ROW 2A : G-1 02 . ... : ... .. . ... : G-1 0B . ... : F-# 04 . ... : ... .. . F04
ROW 2B : B-2 06 . ... : ... .. . ... : ... .. . ... : ... .. . ... : ... .. . ...
ROW 2C : B-2 02 . ... : ... .. . ... : G-2 0B . ... : F-# 05 . ... : ... .. . F06
ROW 2D : ... .. . ... : ... .. . ... : ... .. . ... : ... .. . ... : ... .. . ...
ROW 2E : B-2 10 . ... : ... .. . ... : G-2 0B . ... : F-# 04 . ... : ... .. . F04
ROW 2F : ... .. . ... : C#3 03 . ... : ... .. . ... : ... .. . ... : ... .. . ...
ROW 30 : D-1 02 . ... : D-3 03 . ... : D-2 0B . ... : F-# 04 . ... : ... .. . F06
ROW 31 : C#3 06 . ... : ... .. . ... : ... .. . ... : ... .. . ... : ... .. . ...
ROW 32 : D-1 02 . ... : ... .. . ... : D-2 0B . ... : F-# 04 . ... : ... .. . F04
ROW 33 : D-3 06 . ... : --- .. . ... : ... .. . ... : ... .. . ... : ... .. . ...
ROW 34 : F#2 02 . ... : C-3 03 . ... : D-3 0B . ... : F-# 05 . ... : ... .. . F06
ROW 35 : D-3 06 . ... : ... .. . ... : ... .. . ... : ... .. . ... : ... .. . ...
ROW 36 : F#2 02 . ... : B-2 03 . ... : D-3 0B . ... : F-# 04 . ... : ... .. . F04
ROW 37 : C-3 06 . ... : ... .. . ... : ... .. . ... : ... .. . ... : ... .. . ...
ROW 38 : F#2 10 . ... : ... .. . ... : C-3 08 . ... : F-# 09 . ... : ... .. . F06
ROW 39 : B-2 06 . ... : ... .. . ... : ... .. . ... : ... .. . ... : ... .. . ...
ROW 3A : D-1 02 . ... : G-2 03 . ... : D-2 0B . ... : F-# 04 . ... : ... .. . F04
ROW 3B : B-2 06 . ... : ... .. . ... : ... .. . ... : ... .. . ... : ... .. . ...
ROW 3C : F#2 02 . ... : A-2 03 . ... : D-3 0B . ... : F-# 05 . ... : ... .. . F06
ROW 3D : G-2 06 . ... : ... .. . ... : ... .. . ... : ... .. . ... : ... .. . ...
ROW 3E : F#2 10 . ... : ... .. . ... : D-3 0B . ... : F-# 04 . ... : ... .. . F04
ROW 3F : A-2 06 . ... : ... .. . ... : ... .. . ... : ... .. . ... : ... .. . ...

PATTERN 03
ROW 00 : F-1 02 . ... : ... .. . ... : F-1 0B . ... : F-# 04 . ... : ... .. . F06
ROW 01 : ... .. . ... : ... .. . ... : ... .. . ... : ... .. . ... : ... .. . ...
ROW 02 : F-1 02 . ... : A-2 03 . ... : F-1 0B . ... : F-# 04 . ... : ... .. . F04
ROW 03 : ... .. . ... : ... .. . ... : ... .. . ... : ... .. . ... : ... .. . ...
ROW 04 : A-2 02 . ... : G-2 03 . ... : F-2 0B . ... : F-# 05 . ... : ... .. . F06
ROW 05 : A-2 06 . ... : ... .. . ... : ... .. . ... : ... .. . ... : ... .. . ...
ROW 06 : A-2 02 . ... : E-2 03 . ... : F-2 0B . ... : F-# 04 . ... : ... .. . F04
ROW 07 : G-2 06 . ... : ... .. . ... : ... .. . ... : ... .. . ... : ... .. . ...
ROW 08 : A-2 10 . ... : D-2 03 . ... : C-3 08 . ... : F-# 09 . ... : ... .. . F06
ROW 09 : E-2 06 . ... : ... .. . ... : ... .. . ... : ... .. . ... : ... .. . ...
ROW 0A : F-1 02 . ... : ... .. . ... : F-1 0B . ... : F-# 04 . ... : ... .. . F04
ROW 0B : D-2 06 . ... : ... .. . ... : ... .. . ... : ... .. . ... : ... .. . ...
ROW 0C : A-2 02 . ... : D-2 03 . ... : F-2 0B . ... : F-# 05 . ... : ... .. . F06
ROW 0D : ... .. . ... : ... .. . ... : ... .. . ... : ... .. . ... : ... .. . ...
ROW 0E : A-2 10 . ... : A-2 03 . ... : F-2 0B . ... : F-# 04 . ... : ... .. . F04
ROW 0F : D-2 06 . ... : ... .. . ... : ... .. . ... : ... .. . ... : ... .. . ...
ROW 10 : C-1 02 . ... : ... .. . ... : C-2 0B . ... : F-# 04 . ... : ... .. . F06
ROW 11 : A-2 06 . ... : ... .. . ... : ... .. . ... : ... .. . ... : ... .. . ...
ROW 12 : C-1 02 . ... : ... .. . ... : C-2 0B . ... : F-# 04 . ... : ... .. . F04
ROW 13 : ... .. . ... : ... .. . ... : ... .. . ... : ... .. . ... : ... .. . ...
ROW 14 : E-2 02 . ... : A-2 03 . ... : C-3 0B . ... : F-# 05 . ... : ... .. . F06
ROW 15 : ... .. . ... : ... .. . ... : ... .. . ... : ... .. . ... : ... .. . ...
ROW 16 : E-2 02 . ... : ... .. . ... : C-3 0B . ... : F-# 04 . ... : ... .. . F04
ROW 17 : A-2 06 . ... : ... .. . ... : ... .. . ... : ... .. . ... : ... .. . ...
ROW 18 : E-2 10 . ... : G-2 03 . ... : C-3 08 . ... : F-# 09 . ... : ... .. . F06
ROW 19 : ... .. . ... : ... .. . ... : ... .. . ... : ... .. . ... : ... .. . ...
ROW 1A : C-1 02 . ... : ... .. . ... : C-2 0B . ... : F-# 04 . ... : ... .. . F04
ROW 1B : G-2 06 . ... : ... .. . ... : ... .. . ... : ... .. . ... : ... .. . ...
ROW 1C : E-2 02 . ... : E-2 03 . ... : C-3 0B . ... : F-# 05 . ... : ... .. . F06
ROW 1D : ... .. . ... : ... .. . ... : ... .. . ... : ... .. . ... : ... .. . ...
ROW 1E : E-2 10 . ... : G-2 03 . ... : C-3 0B . ... : F-# 04 . ... : ... .. . F04
ROW 1F : E-2 06 . ... : ... .. . ... : ... .. . ... : ... .. . ... : ... .. . ...
ROW 20 : G-1 02 . ... : ... .. . ... : G-1 0B . ... : F-# 04 . ... : ... .. . F06
ROW 21 : G-2 06 . ... : ... .. . ... : ... .. . ... : ... .. . ... : ... .. . ...
ROW 22 : G-1 02 . ... : ... .. . ... : G-1 0B . ... : F-# 04 . ... : ... .. . F04
ROW 23 : G-2 06 . ... : ... .. . ... : ... .. . ... : ... .. . ... : ... .. . ...
ROW 24 : B-2 02 . ... : ... .. . ... : G-2 0B . ... : F-# 05 . ... : ... .. . F06
ROW 25 : G-2 06 . ... : ... .. . ... : ... .. . ... : ... .. . ... : ... .. . ...
ROW 26 : B-2 02 . ... : ... .. . ... : G-2 0B . ... : F-# 04 . ... : ... .. . F04
ROW 27 : ... .. . ... : ... .. . ... : ... .. . ... : ... .. . ... : ... .. . ...
ROW 28 : B-2 10 . ... : ... .. . ... : C-3 08 . ... : F-# 09 . ... : ... .. . F06
ROW 29 : ... .. . ... : ... .. . ... : ... .. . ... : ... .. . ... : ... .. . ...
ROW 2A : G-1 02 . ... : ... .. . ... : G-1 0B . ... : F-# 04 . ... : ... .. . F04
ROW 2B : ... .. . ... : ... .. . ... : ... .. . ... : ... .. . ... : ... .. . ...
ROW 2C : B-2 02 . ... : ... .. . ... : G-2 0B . ... : F-# 05 . ... : ... .. . F06
ROW 2D : ... .. . ... : ... .. . ... : ... .. . ... : ... .. . ... : ... .. . ...
ROW 2E : B-2 10 . ... : ... .. . ... : G-2 0B . ... : F-# 04 . ... : ... .. . F04
ROW 2F : ... .. . ... : ... .. . ... : ... .. . ... : ... .. . ... : ... .. . ...
ROW 30 : G-1 02 . ... : B-2 07 . ... : G-1 0B . ... : F-# 04 . ... : ... .. . F06
ROW 31 : ... .. . ... : --- .. . ... : ... .. . ... : ... .. . ... : ... .. . ...
ROW 32 : G-1 02 . ... : ... .. . ... : G-1 0B . ... : F-# 04 . ... : ... .. . F04
ROW 33 : B-2 0A . ... : ... .. . ... : ... .. . ... : ... .. . ... : ... .. . ...
ROW 34 : B-2 02 . ... : A-2 07 . ... : G-2 0B . ... : F-# 05 . ... : ... .. . F06
ROW 35 : ... .. . ... : --- .. . ... : ... .. . ... : ... .. . ... : ... .. . ...
ROW 36 : B-2 02 . ... : ... .. . ... : G-2 0B . ... : F-# 04 . ... : ... .. . F04
ROW 37 : A-2 0A . ... : ... .. . ... : ... .. . ... : ... .. . ... : ... .. . ...
ROW 38 : G-1 02 . ... : B-2 07 . ... : C-3 08 . ... : F-# 09 . ... : ... .. . F06
ROW 39 : ... .. . ... : ... .. . ... : ... .. . ... : ... .. . ... : ... .. . ...
ROW 3A : B-2 0A . ... : A-2 07 . ... : ... .. . ... : F-# 04 . ... : ... .. . F04
ROW 3B : ... .. . ... : ... .. . ... : ... .. . ... : ... .. . ... : ... .. . ...
ROW 3C : C-1 02 . ... : ... .. . ... : ... .. . ... : F-# 05 . ... : ... .. . F06
ROW 3D : ... .. . ... : ... .. . ... : ... .. . ... : ... .. . ... : ... .. . ...
ROW 3E : A-2 0A . ... : C-3 07 . ... : ... .. . ... : F-# 04 . ... : ... .. . F04
ROW 3F : ... .. . ... : ... .. . ... : ... .. . ... : ... .. . ... : ... .. . ...

PATTERN 04
ROW 00 : D-1 02 . ... : D-1 03 . ... : D-2 0B . ... : F-# 04 . ... : ... .. . F06
ROW 01 : ... .. . ... : ... .. . ... : ... .. . ... : ... .. . ... : ... .. . ...
ROW 02 : D-1 02 . ... : ... .. . ... : D-2 0B . ... : ... .. . ... : ... .. . F04
ROW 03 : ... .. . ... : ... .. . ... : ... .. . ... : ... .. . ... : ... .. . ...
ROW 04 : F#2 02 . ... : ... .. . ... : D-3 0B . ... : F-# 05 . ... : ... .. . F06
ROW 05 : ... .. . ... : ... .. . ... : ... .. . ... : ... .. . ... : ... .. . ...
ROW 06 : F#2 02 . ... : ... .. . ... : D-3 0B . ... : ... .. . ... : ... .. . F04
ROW 07 : --- .. . ... : ... .. . ... : ... .. . ... : ... .. . ... : ... .. . ...
ROW 08 : D-1 02 . ... : ... .. . ... : C-3 08 . ... : F-# 09 . ... : ... .. . F06
ROW 09 : ... .. . ... : ... .. . ... : ... .. . ... : ... .. . ... : ... .. . ...
ROW 0A : D-1 02 . ... : ... .. . ... : D-2 0B . ... : ... .. . ... : ... .. . F04
ROW 0B : ... .. . ... : B-2 07 . ... : ... .. . ... : ... .. . ... : ... .. . ...
ROW 0C : F#2 02 . ... : C-3 07 . ... : D-3 0B . ... : F-# 05 . ... : ... .. . F06
ROW 0D : B-2 0A . ... : ... .. . ... : ... .. . ... : ... .. . ... : ... .. . ...
ROW 0E : F#2 10 . ... : B-2 07 . ... : D-3 0B . ... : ... .. . ... : ... .. . F04
ROW 0F : C-3 0A . ... : ... .. . ... : ... .. . ... : ... .. . ... : ... .. . ...
ROW 10 : C-1 02 . ... : ... .. . ... : C-2 0B . ... : F-# 04 . ... : ... .. . F06
ROW 11 : B-2 0A . ... : ... .. . ... : ... .. . ... : ... .. . ... : ... .. . ...
ROW 12 : C-1 02 . ... : ... .. . ... : C-2 0B . ... : ... .. . ... : ... .. . F04
ROW 13 : B-2 0A . ... : ... .. . ... : ... .. . ... : ... .. . ... : ... .. . ...
ROW 14 : G-2 02 . ... : A-2 07 . ... : C-3 0B . ... : F-# 05 . ... : ... .. . F06
ROW 15 : ... .. . ... : ... .. . ... : ... .. . ... : ... .. . ... : ... .. . ...
ROW 16 : G-2 02 . ... : D-2 07 . ... : C-3 0B . ... : ... .. . ... : ... .. . F04
ROW 17 : A-2 0A . ... : ... .. . ... : ... .. . ... : ... .. . ... : ... .. . ...
ROW 18 : C-1 02 . ... : --- .. . ... : C-3 08 . ... : F-# 09 . ... : ... .. . F06
ROW 19 : D-2 0A . ... : ... .. . ... : ... .. . ... : ... .. . ... : ... .. . ...
ROW 1A : C-1 02 . ... : ... .. . ... : C-2 0B . ... : ... .. . ... : ... .. . F04
ROW 1B : ... .. . ... : ... .. . ... : ... .. . ... : ... .. . ... : ... .. . ...
ROW 1C : G-2 02 . ... : G-2 07 . ... : C-3 0B . ... : F-# 05 . ... : ... .. . F06
ROW 1D : --- .. . ... : ... .. . ... : ... .. . ... : ... .. . ... : ... .. . ...
ROW 1E : G-2 10 . ... : ... .. . ... : C-3 0B . ... : ... .. . ... : ... .. . F04
ROW 1F : G-2 0A . ... : ... .. . ... : ... .. . ... : ... .. . ... : ... .. . ...
ROW 20 : G-1 02 . ... : F#2 07 . ... : G-2 0B . ... : F-# 04 . ... : ... .. . F06
ROW 21 : G-2 0A . ... : ... .. . ... : ... .. . ... : ... .. . ... : ... .. . ...
ROW 22 : G-1 02 . ... : G-2 07 . ... : G-2 0B . ... : ... .. . ... : ... .. . F04
ROW 23 : F#2 0A . ... : ... .. . ... : ... .. . ... : ... .. . ... : ... .. . ...
ROW 24 : B-2 02 . ... : ... .. . ... : G-3 0B . ... : F-# 05 . ... : ... .. . F06
ROW 25 : G-2 0A . ... : ... .. . ... : ... .. . ... : ... .. . ... : ... .. . ...
ROW 26 : B-2 02 . ... : ... .. . ... : G-3 0B . ... : ... .. . ... : ... .. . F04
ROW 27 : G-2 0A . ... : ... .. . ... : ... .. . ... : ... .. . ... : ... .. . ...
ROW 28 : G-1 02 . ... : ... .. . ... : C-3 08 . ... : F-# 09 . ... : ... .. . F06
ROW 29 : G-2 0A . ... : ... .. . ... : ... .. . ... : ... .. . ... : ... .. . ...
ROW 2A : G-1 02 . ... : ... .. . ... : G-2 0B . ... : ... .. . ... : ... .. . F04
ROW 2B : G-2 0A . ... : ... .. . ... : ... .. . ... : ... .. . ... : ... .. . ...
ROW 2C : B-2 02 . ... : ... .. . ... : G-3 0B . ... : F-# 05 . ... : ... .. . F06
ROW 2D : --- .. . ... : ... .. . ... : ... .. . ... : ... .. . ... : ... .. . ...
ROW 2E : B-2 10 . ... : ... .. . ... : G-3 0B . ... : ... .. . ... : ... .. . F04
ROW 2F : ... .. . ... : ... .. . ... : ... .. . ... : ... .. . ... : ... .. . ...
ROW 30 : G-1 02 . ... : ... .. . ... : G-2 0B . ... : F-# 04 . ... : ... .. . F06
ROW 31 : ... .. . ... : ... .. . ... : ... .. . ... : ... .. . ... : ... .. . ...
ROW 32 : G-1 02 . ... : ... .. . ... : G-2 0B . ... : ... .. . ... : ... .. . F04
ROW 33 : ... .. . ... : ... .. . ... : ... .. . ... : ... .. . ... : ... .. . ...
ROW 34 : B-2 02 . ... : ... .. . ... : G-3 0B . ... : F-# 05 . ... : ... .. . F06
ROW 35 : ... .. . ... : ... .. . ... : ... .. . ... : ... .. . ... : ... .. . ...
ROW 36 : B-2 02 . ... : ... .. . ... : G-3 0B . ... : ... .. . ... : ... .. . F04
ROW 37 : --- .. . ... : ... .. . ... : ... .. . ... : ... .. . ... : ... .. . ...
ROW 38 : G-1 02 . ... : ... .. . ... : C-3 08 . ... : F-# 09 . ... : ... .. . F06
ROW 39 : ... .. . ... : ... .. . ... : ... .. . ... : ... .. . ... : ... .. . ...
ROW 3A : G-1 10 . ... : ... .. . ... : ... .. . ... : ... .. . ... : ... .. . F04
ROW 3B : ... .. . ... : ... .. . ... : ... .. . ... : ... .. . ... : ... .. . ...
ROW 3C : ... .. . ... : ... .. . ... : ... .. . ... : ... .. . ... : ... .. . F06
ROW 3D : ... .. . ... : ... .. . ... : ... .. . ... : ... .. . ... : ... .. . ...
ROW 3E : ... .. . ... : ... .. . ... : ... .. . ... : ... .. . ... : ... .. . F04
ROW 3F : ... .. . ... : ... .. . ... : ... .. . ... : ... .. . ... : ... .. . ...

PATTERN 05
ROW 00 : F-1 02 . ... : --- 07 . ... : F-1 0B . ... : F-# 04 . ... : ... .. . F06
ROW 01 : C-3 0A . ... : ... .. . ... : ... .. . ... : ... .. . ... : ... .. . ...
ROW 02 : F-1 02 . ... : D-2 03 . ... : F-1 0B . ... : F-# 04 . ... : ... .. . F04
ROW 03 : ... .. . ... : ... .. . ... : ... .. . ... : ... .. . ... : ... .. . ...
ROW 04 : A-2 02 . ... : E-2 03 . ... : F-2 0B . ... : F-# 05 . ... : ... .. . F06
ROW 05 : D-2 06 . ... : ... .. . ... : ... .. . ... : ... .. . ... : ... .. . ...
ROW 06 : A-2 02 . ... : G-2 03 . ... : F-2 0B . ... : F-# 04 . ... : ... .. . F04
ROW 07 : E-2 06 . ... : ... .. . ... : ... .. . ... : ... .. . ... : ... .. . ...
ROW 08 : A-2 10 . ... : A-2 03 . ... : C-3 08 . ... : F-# 09 . ... : ... .. . F06
ROW 09 : G-2 06 . ... : ... .. . ... : ... .. . ... : ... .. . ... : ... .. . ...
ROW 0A : F-1 02 . ... : ... .. . ... : F-1 0B . ... : F-# 04 . ... : ... .. . F04
ROW 0B : A-2 06 . ... : ... .. . ... : ... .. . ... : ... .. . ... : ... .. . ...
ROW 0C : A-2 02 . ... : C-3 03 . ... : F-2 0B . ... : F-# 05 . ... : ... .. . F06
ROW 0D : ... .. . ... : ... .. . ... : ... .. . ... : ... .. . ... : ... .. . ...
ROW 0E : A-2 10 . ... : D-3 03 . ... : F-2 0B . ... : F-# 04 . ... : ... .. . F04
ROW 0F : C-3 06 . ... : ... .. . ... : ... .. . ... : ... .. . ... : ... .. . ...
ROW 10 : C-1 02 . ... : ... .. . ... : C-2 0B . ... : F-# 04 . ... : ... .. . F06
ROW 11 : D-3 06 . ... : ... .. . ... : ... .. . ... : ... .. . ... : ... .. . ...
ROW 12 : C-1 02 . ... : C-3 03 . ... : C-2 0B . ... : F-# 04 . ... : ... .. . F04
ROW 13 : ... .. . ... : ... .. . ... : ... .. . ... : ... .. . ... : ... .. . ...
ROW 14 : E-2 02 . ... : --- .. . ... : C-3 0B . ... : F-# 05 . ... : ... .. . F06
ROW 15 : C-3 06 . ... : ... .. . ... : ... .. . ... : ... .. . ... : ... .. . ...
ROW 16 : E-2 02 . ... : ... .. . ... : C-3 0B . ... : F-# 04 . ... : ... .. . F04
ROW 17 : ... .. . ... : ... .. . ... : ... .. . ... : ... .. . ... : ... .. . ...
ROW 18 : E-2 10 . ... : D-3 03 . ... : C-3 08 . ... : F-# 09 . ... : ... .. . F06
ROW 19 : ... .. . ... : --- .. . ... : ... .. . ... : ... .. . ... : ... .. . ...
ROW 1A : C-1 02 . ... : ... .. . ... : C-2 0B . ... : F-# 04 . ... : ... .. . F04
ROW 1B : D-3 06 . ... : ... .. . ... : ... .. . ... : ... .. . ... : ... .. . ...
ROW 1C : E-2 02 . ... : C-3 03 . ... : C-3 0B . ... : F-# 05 . ... : ... .. . F06
ROW 1D : ... .. . ... : --- .. . ... : ... .. . ... : ... .. . ... : ... .. . ...
ROW 1E : E-2 10 . ... : ... .. . ... : C-3 0B . ... : F-# 04 . ... : ... .. . F04
ROW 1F : C-3 06 . ... : B-2 03 . ... : ... .. . ... : ... .. . ... : ... .. . ...
ROW 20 : G-1 02 . ... : C-3 03 . ... : G-1 0B . ... : F-# 04 . ... : ... .. . F06
ROW 21 : B-2 06 . ... : ... .. . ... : ... .. . ... : ... .. . ... : ... .. . ...
ROW 22 : G-1 02 . ... : ... .. . ... : G-1 0B . ... : F-# 04 . ... : ... .. . F04
ROW 23 : C-3 06 . ... : ... .. . ... : ... .. . ... : ... .. . ... : ... .. . ...
ROW 24 : B-2 02 . ... : D-3 03 . ... : G-2 0B . ... : F-# 05 . ... : ... .. . F06
ROW 25 : ... .. . ... : ... .. . ... : ... .. . ... : ... .. . ... : ... .. . ...
ROW 26 : B-2 02 . ... : ... .. . ... : G-2 0B . ... : F-# 04 . ... : ... .. . F04
ROW 27 : D-3 06 . ... : ... .. . ... : ... .. . ... : ... .. . ... : ... .. . ...
ROW 28 : B-2 10 . ... : ... .. . ... : C-3 08 . ... : F-# 09 . ... : ... .. . F06
ROW 29 : D-3 06 . ... : ... .. . ... : ... .. . ... : ... .. . ... : ... .. . ...
ROW 2A : G-1 02 . ... : ... .. . ... : G-1 0B . ... : F-# 04 . ... : ... .. . F04
ROW 2B : D-3 06 . ... : ... .. . ... : ... .. . ... : ... .. . ... : ... .. . ...
ROW 2C : B-2 02 . ... : ... .. . ... : G-2 0B . ... : F-# 05 . ... : ... .. . F06
ROW 2D : ... .. . ... : ... .. . ... : ... .. . ... : ... .. . ... : ... .. . ...
ROW 2E : B-2 10 . ... : ... .. . ... : G-2 0B . ... : F-# 04 . ... : ... .. . F04
ROW 2F : ... .. . ... : ... .. . ... : ... .. . ... : ... .. . ... : ... .. . ...
ROW 30 : D-1 02 . ... : G-3 07 . ... : D-2 0B . ... : F-# 04 . ... : ... .. . F06
ROW 31 : ... .. . ... : ... .. . ... : ... .. . ... : ... .. . ... : ... .. . ...
ROW 32 : D-1 02 . ... : F#3 07 . ... : D-2 0B . ... : F-# 04 . ... : ... .. . F04
ROW 33 : G-3 0A . ... : --- .. . ... : ... .. . ... : ... .. . ... : ... .. . ...
ROW 34 : F#2 02 . ... : ... .. . ... : D-3 0B . ... : F-# 05 . ... : ... .. . F06
ROW 35 : F#3 0A . ... : ... .. . ... : ... .. . ... : ... .. . ... : ... .. . ...
ROW 36 : F#2 02 . ... : ... .. . ... : D-3 0B . ... : F-# 04 . ... : ... .. . F04
ROW 37 : ... .. . ... : ... .. . ... : ... .. . ... : ... .. . ... : ... .. . ...
ROW 38 : F#2 10 . ... : G-3 07 . ... : C-3 08 . ... : F-# 09 . ... : ... .. . F06
ROW 39 : ... .. . ... : ... .. . ... : ... .. . ... : ... .. . ... : ... .. . ...
ROW 3A : D-1 02 . ... : ... .. . ... : D-2 0B . ... : F-# 04 . ... : ... .. . F04
ROW 3B : G-3 0A . ... : ... .. . ... : ... .. . ... : ... .. . ... : ... .. . ...
ROW 3C : F#2 02 . ... : F#3 07 . ... : D-3 0B . ... : F-# 05 . ... : ... .. . F06
ROW 3D : ... .. . ... : ... .. . ... : ... .. . ... : ... .. . ... : ... .. . ...
ROW 3E : F#2 10 . ... : G-3 07 . ... : D-3 0B . ... : F-# 04 . ... : ... .. . F04
ROW 3F : F#3 0A . ... : ... .. . ... : ... .. . ... : ... .. . ... : ... .. . ...

PATTERN 06
ROW 00 : F-1 02 . ... : --- .. . ... : F-1 0B . ... : F-# 04 . ... : ... .. . F06
ROW 01 : G-3 0A . ... : ... .. . ... : ... .. . ... : ... .. . ... : ... .. . ...
ROW 02 : F-1 02 . ... : C-3 03 . ... : F-1 0B . ... : F-# 04 . ... : ... .. . F04
ROW 03 : ... .. . ... : ... .. . ... : ... .. . ... : ... .. . ... : ... .. . ...
ROW 04 : A-2 02 . ... : B-2 03 . ... : F-2 0B . ... : F-# 05 . ... : ... .. . F06
ROW 05 : C-3 06 . ... : ... .. . ... : ... .. . ... : ... .. . ... : ... .. . ...
ROW 06 : A-2 02 . ... : G-2 03 . ... : F-2 0B . ... : F-# 04 . ... : ... .. . F04
ROW 07 : B-2 06 . ... : ... .. . ... : ... .. . ... : ... .. . ... : ... .. . ...
ROW 08 : A-2 10 . ... : A-2 03 . ... : C-3 08 . ... : F-# 09 . ... : ... .. . F06
ROW 09 : G-2 06 . ... : ... .. . ... : ... .. . ... : ... .. . ... : ... .. . ...
ROW 0A : F-1 02 . ... : ... .. . ... : F-1 0B . ... : F-# 04 . ... : ... .. . F04
ROW 0B : A-2 06 . ... : ... .. . ... : ... .. . ... : ... .. . ... : ... .. . ...
ROW 0C : A-2 02 . ... : B-2 03 . ... : F-2 0B . ... : F-# 05 . ... : ... .. . F06
ROW 0D : ... .. . ... : ... .. . ... : ... .. . ... : ... .. . ... : ... .. . ...
ROW 0E : A-2 10 . ... : C-3 03 . ... : F-2 0B . ... : F-# 04 . ... : ... .. . F04
ROW 0F : B-2 06 . ... : ... .. . ... : ... .. . ... : ... .. . ... : ... .. . ...
ROW 10 : C-1 02 . ... : ... .. . ... : C-2 0B . ... : F-# 04 . ... : ... .. . F06
ROW 11 : C-3 06 . ... : ... .. . ... : ... .. . ... : ... .. . ... : ... .. . ...
ROW 12 : C-1 02 . ... : ... .. . ... : C-2 0B . ... : F-# 04 . ... : ... .. . F04
ROW 13 : C-3 06 . ... : ... .. . ... : ... .. . ... : ... .. . ... : ... .. . ...
ROW 14 : E-2 02 . ... : B-2 03 . ... : C-3 0B . ... : F-# 05 . ... : ... .. . F06
ROW 15 : ... .. . ... : ... .. . ... : ... .. . ... : ... .. . ... : ... .. . ...
ROW 16 : E-2 02 . ... : ... .. . ... : C-3 0B . ... : F-# 04 . ... : ... .. . F04
ROW 17 : B-2 06 . ... : ... .. . ... : ... .. . ... : ... .. . ... : ... .. . ...
ROW 18 : E-2 10 . ... : G-2 03 . ... : C-3 08 . ... : F-# 09 . ... : ... .. . F06
ROW 19 : ... .. . ... : ... .. . ... : ... .. . ... : ... .. . ... : ... .. . ...
ROW 1A : C-1 02 . ... : ... .. . ... : C-2 0B . ... : F-# 04 . ... : ... .. . F04
ROW 1B : G-2 06 . ... : ... .. . ... : ... .. . ... : ... .. . ... : ... .. . ...
ROW 1C : E-2 02 . ... : D-2 03 . ... : C-3 0B . ... : F-# 05 . ... : ... .. . F06
ROW 1D : ... .. . ... : ... .. . ... : ... .. . ... : ... .. . ... : ... .. . ...
ROW 1E : E-2 10 . ... : G-2 03 . ... : C-3 0B . ... : F-# 04 . ... : ... .. . F04
ROW 1F : D-2 06 . ... : ... .. . ... : ... .. . ... : ... .. . ... : ... .. . ...
ROW 20 : G-1 02 . ... : ... .. . ... : G-1 0B . ... : F-# 04 . ... : ... .. . F06
ROW 21 : G-2 06 . ... : ... .. . ... : ... .. . ... : ... .. . ... : ... .. . ...
ROW 22 : G-1 02 . ... : ... .. . ... : G-1 0B . ... : F-# 04 . ... : ... .. . F04
ROW 23 : G-2 06 . ... : ... .. . ... : ... .. . ... : ... .. . ... : ... .. . ...
ROW 24 : B-2 02 . ... : ... .. . ... : G-2 0B . ... : F-# 05 . ... : ... .. . F06
ROW 25 : G-2 06 . ... : ... .. . ... : ... .. . ... : ... .. . ... : ... .. . ...
ROW 26 : B-2 02 . ... : ... .. . ... : G-2 0B . ... : F-# 04 . ... : ... .. . F04
ROW 27 : G-2 06 . ... : ... .. . ... : ... .. . ... : ... .. . ... : ... .. . ...
ROW 28 : B-2 10 . ... : ... .. . ... : C-3 08 . ... : F-# 09 . ... : ... .. . F06
ROW 29 : ... .. . ... : ... .. . ... : ... .. . ... : ... .. . ... : ... .. . ...
ROW 2A : G-1 02 . ... : ... .. . ... : G-1 0B . ... : F-# 04 . ... : ... .. . F04
ROW 2B : ... .. . ... : ... .. . ... : ... .. . ... : ... .. . ... : ... .. . ...
ROW 2C : B-2 02 . ... : ... .. . ... : G-2 0B . ... : F-# 05 . ... : ... .. . F06
ROW 2D : ... .. . ... : ... .. . ... : ... .. . ... : ... .. . ... : ... .. . ...
ROW 2E : B-2 10 . ... : ... .. . ... : G-2 0B . ... : F-# 04 . ... : ... .. . F04
ROW 2F : ... .. . ... : ... .. . ... : ... .. . ... : ... .. . ... : ... .. . ...
ROW 30 : G-1 02 . ... : ... .. . ... : G-1 0B . ... : F-# 04 . ... : ... .. . F06
ROW 31 : ... .. . ... : ... .. . ... : ... .. . ... : ... .. . ... : ... .. . ...
ROW 32 : ... .. . ... : ... .. . ... : ... .. . ... : F-# 04 . ... : ... .. . F04
ROW 33 : ... .. . ... : ... .. . ... : ... .. . ... : ... .. . ... : ... .. . ...
ROW 34 : ... .. . ... : ... .. . ... : ... .. . ... : F-# 05 . ... : ... .. . F06
ROW 35 : ... .. . ... : ... .. . ... : ... .. . ... : ... .. . ... : ... .. . ...
ROW 36 : ... .. . ... : ... .. . ... : ... .. . ... : F-# 04 . ... : ... .. . F04
ROW 37 : ... .. . ... : ... .. . ... : ... .. . ... : ... .. . ... : ... .. . ...
ROW 38 : G-1 02 . ... : G-1 03 . ... : C-3 08 . ... : F-# 09 . ... : ... .. . F06
ROW 39 : ... .. . ... : ... .. . ... : ... .. . ... : ... .. . ... : ... .. . ...
ROW 3A : ... .. . ... : ... .. . ... : ... .. . ... : F-# 04 . ... : ... .. . F04
ROW 3B : ... .. . ... : ... .. . ... : ... .. . ... : ... .. . ... : ... .. . ...
ROW 3C : F#1 02 . ... : F#1 03 . ... : C-3 08 . ... : F-# 09 . ... : ... .. . F06
ROW 3D : ... .. . ... : ... .. . ... : ... .. . ... : ... .. . ... : ... .. . ...
ROW 3E : ... .. . ... : ... .. . ... : C-3 08 . ... : F-# 09 . ... : ... .. . F04
ROW 3F : ... .. . ... : ... .. . ... : ... .. . ... : ... .. . ... : ... .. . ...

TRACK  64   6 150 "LanMaster Title"
COLUMNS : 1 1 1 1 1

ORDER 00 : 00 00 00 00 00
ORDER 01 : 01 01 01 01 01
ORDER 02 : 02 02 02 02 02
ORDER 03 : 03 03 03 03 03
ORDER 04 : 04 04 04 04 04
ORDER 05 : 08 08 08 08 08
ORDER 06 : 05 05 05 05 05
ORDER 07 : 06 06 06 06 06
ORDER 08 : 05 05 05 05 05
ORDER 09 : 07 07 07 07 07
ORDER 0A : 00 00 00 00 00
ORDER 0B : 09 09 09 09 09

PATTERN 00
ROW 00 : D-1 15 . ... : ... .. . ... : D-1 21 . ... : --- .. . ... : C-3 14 . ...
ROW 01 : ... .. . ... : ... .. . ... : ... .. . ... : ... .. . ... : ... .. . ...
ROW 02 : ... .. . ... : ... .. . ... : ... .. . ... : D-# 19 . ... : ... .. . ...
ROW 03 : ... .. . ... : ... .. . ... : ... .. . ... : ... .. . ... : ... .. . ...
ROW 04 : ... .. . ... : ... .. . ... : --- .. . ... : D-# 28 . ... : ... .. . ...
ROW 05 : ... .. . ... : ... .. . ... : ... .. . ... : D-# 19 . ... : ... .. . ...
ROW 06 : ... .. . ... : ... .. . ... : ... .. . ... : ... .. . ... : ... .. . ...
ROW 07 : ... .. . ... : ... .. . ... : ... .. . ... : D-# 28 . ... : ... .. . ...
ROW 08 : ... .. . ... : ... .. . ... : ... .. . ... : D-# 19 . ... : ... .. . ...
ROW 09 : ... .. . ... : ... .. . ... : ... .. . ... : D-# 19 . ... : ... .. . ...
ROW 0A : ... .. . ... : ... .. . ... : ... .. . ... : ... .. . ... : ... .. . ...
ROW 0B : ... .. . ... : ... .. . ... : ... .. . ... : D-# 28 . ... : ... .. . ...
ROW 0C : ... .. . ... : D-1 16 . ... : ... .. . ... : D-# 19 . ... : ... .. . ...
ROW 0D : ... .. . ... : ... .. . ... : ... .. . ... : ... .. . ... : ... .. . ...
ROW 0E : ... .. . ... : ... .. . ... : C-1 21 . ... : ... .. . ... : C-3 14 . ...
ROW 0F : ... .. . ... : ... .. . ... : ... .. . ... : ... .. . ... : ... .. . ...
ROW 10 : ... .. . ... : ... .. . ... : D-1 21 . ... : D-# 28 . ... : C-3 14 . ...
ROW 11 : ... .. . ... : ... .. . ... : ... .. . ... : ... .. . ... : ... .. . ...
ROW 12 : ... .. . ... : ... .. . ... : ... .. . ... : D-# 19 . ... : ... .. . ...
ROW 13 : ... .. . ... : ... .. . ... : ... .. . ... : ... .. . ... : ... .. . ...
ROW 14 : ... .. . ... : ... .. . ... : --- .. . ... : D-# 28 . ... : ... .. . ...
ROW 15 : ... .. . ... : ... .. . ... : ... .. . ... : D-# 19 . ... : ... .. . ...
ROW 16 : ... .. . ... : ... .. . ... : ... .. . ... : ... .. . ... : ... .. . ...
ROW 17 : ... .. . ... : ... .. . ... : ... .. . ... : D-# 28 . ... : ... .. . ...
ROW 18 : ... .. . ... : ... .. . ... : ... .. . ... : D-# 19 . ... : ... .. . ...
ROW 19 : ... .. . ... : ... .. . ... : ... .. . ... : D-# 19 . ... : ... .. . ...
ROW 1A : ... .. . ... : ... .. . ... : ... .. . ... : ... .. . ... : ... .. . ...
ROW 1B : ... .. . ... : ... .. . ... : ... .. . ... : D-# 28 . ... : ... .. . ...
ROW 1C : ... .. . ... : ... .. . ... : ... .. . ... : B-# 18 . ... : ... .. . ...
ROW 1D : ... .. . ... : ... .. . ... : ... .. . ... : ... .. . ... : ... .. . ...
ROW 1E : ... .. . ... : ... .. . ... : ... .. . ... : 9-# 28 . ... : ... .. . ...
ROW 1F : ... .. . ... : ... .. . ... : ... .. . ... : ... .. . ... : ... .. . ...
ROW 20 : D-1 15 . ... : ... .. . ... : D-1 21 . ... : ... .. . ... : C-3 14 . ...
ROW 21 : ... .. . ... : ... .. . ... : ... .. . ... : ... .. . ... : ... .. . ...
ROW 22 : ... .. . ... : ... .. . ... : ... .. . ... : D-# 19 . ... : ... .. . ...
ROW 23 : ... .. . ... : ... .. . ... : ... .. . ... : ... .. . ... : ... .. . ...
ROW 24 : ... .. . ... : ... .. . ... : --- .. . ... : D-# 28 . ... : ... .. . ...
ROW 25 : ... .. . ... : ... .. . ... : ... .. . ... : D-# 19 . ... : ... .. . ...
ROW 26 : ... .. . ... : ... .. . ... : ... .. . ... : ... .. . ... : ... .. . ...
ROW 27 : ... .. . ... : ... .. . ... : ... .. . ... : D-# 28 . ... : ... .. . ...
ROW 28 : ... .. . ... : ... .. . ... : ... .. . ... : D-# 19 . ... : ... .. . ...
ROW 29 : ... .. . ... : ... .. . ... : ... .. . ... : D-# 19 . ... : ... .. . ...
ROW 2A : ... .. . ... : ... .. . ... : ... .. . ... : ... .. . ... : ... .. . ...
ROW 2B : ... .. . ... : ... .. . ... : ... .. . ... : D-# 28 . ... : ... .. . ...
ROW 2C : ... .. . ... : D-1 1A . ... : ... .. . ... : D-# 19 . ... : ... .. . ...
ROW 2D : ... .. . ... : F-1 1A . ... : ... .. . ... : ... .. . ... : ... .. . ...
ROW 2E : ... .. . ... : A-1 1A . ... : C-1 21 . ... : D-# 28 . ... : C-3 14 . ...
ROW 2F : ... .. . ... : D-2 1A . ... : ... .. . ... : ... .. . ... : ... .. . ...
ROW 30 : D-1 1B . ... : A-2 1A . ... : D-1 21 . ... : ... .. . ... : C-3 14 . ...
ROW 31 : F-1 1B . ... : --- .. . ... : ... .. . ... : ... .. . ... : ... .. . ...
ROW 32 : A-1 1B . ... : ... .. . ... : ... .. . ... : D-# 19 . ... : ... .. . ...
ROW 33 : D-2 1B . ... : ... .. . ... : ... .. . ... : ... .. . ... : ... .. . ...
ROW 34 : A-2 1B . ... : ... .. . ... : --- .. . ... : D-# 28 . ... : ... .. . ...
ROW 35 : --- .. . ... : ... .. . ... : ... .. . ... : D-# 19 . ... : ... .. . ...
ROW 36 : ... .. . ... : ... .. . ... : ... .. . ... : ... .. . ... : ... .. . ...
ROW 37 : ... .. . ... : ... .. . ... : ... .. . ... : D-# 28 . ... : ... .. . ...
ROW 38 : F-2 16 . ... : F-2 16 . ... : ... .. . ... : C-# 18 . ... : ... .. . ...
ROW 39 : ... .. . ... : ... .. . ... : ... .. . ... : ... .. . ... : ... .. . ...
ROW 3A : ... .. . ... : ... .. . ... : ... .. . ... : ... .. . ... : ... .. . ...
ROW 3B : ... .. . ... : ... .. . ... : ... .. . ... : ... .. . ... : ... .. . ...
ROW 3C : ... .. . ... : ... .. . ... : ... .. . ... : ... .. . ... : C-3 14 . ...
ROW 3D : ... .. . ... : ... .. . ... : ... .. . ... : ... .. . ... : C-3 14 . ...
ROW 3E : ... .. . ... : ... .. . ... : ... .. . ... : 9-# 28 . ... : C-3 14 . ...
ROW 3F : ... .. . ... : ... .. . ... : ... .. . ... : ... .. . ... : C-3 14 . ...

PATTERN 01
ROW 00 : D-1 15 . ... : --- .. . ... : D-1 21 . ... : --- .. . ... : C-3 14 . ...
ROW 01 : ... .. . ... : ... .. . ... : ... .. . ... : ... .. . ... : ... .. . ...
ROW 02 : ... .. . ... : ... .. . ... : ... .. . ... : D-# 19 . ... : ... .. . ...
ROW 03 : ... .. . ... : ... .. . ... : ... .. . ... : ... .. . ... : ... .. . ...
ROW 04 : ... .. . ... : ... .. . ... : --- .. . ... : D-# 28 . ... : ... .. . ...
ROW 05 : ... .. . ... : ... .. . ... : ... .. . ... : D-# 19 . ... : ... .. . ...
ROW 06 : ... .. . ... : ... .. . ... : ... .. . ... : ... .. . ... : ... .. . ...
ROW 07 : ... .. . ... : ... .. . ... : ... .. . ... : D-# 28 . ... : ... .. . ...
ROW 08 : ... .. . ... : ... .. . ... : ... .. . ... : D-# 19 . ... : ... .. . ...
ROW 09 : ... .. . ... : ... .. . ... : ... .. . ... : D-# 19 . ... : ... .. . ...
ROW 0A : ... .. . ... : ... .. . ... : ... .. . ... : ... .. . ... : ... .. . ...
ROW 0B : ... .. . ... : ... .. . ... : ... .. . ... : D-# 28 . ... : ... .. . ...
ROW 0C : ... .. . ... : D-1 16 . ... : ... .. . ... : D-# 19 . ... : ... .. . ...
ROW 0D : ... .. . ... : ... .. . ... : ... .. . ... : ... .. . ... : ... .. . ...
ROW 0E : ... .. . ... : ... .. . ... : C-1 21 . ... : ... .. . ... : C-3 14 . ...
ROW 0F : ... .. . ... : ... .. . ... : ... .. . ... : ... .. . ... : ... .. . ...
ROW 10 : ... .. . ... : ... .. . ... : D-1 21 . ... : D-# 28 . ... : C-3 14 . ...
ROW 11 : ... .. . ... : ... .. . ... : ... .. . ... : ... .. . ... : ... .. . ...
ROW 12 : ... .. . ... : ... .. . ... : ... .. . ... : D-# 19 . ... : ... .. . ...
ROW 13 : ... .. . ... : ... .. . ... : ... .. . ... : ... .. . ... : ... .. . ...
ROW 14 : ... .. . ... : ... .. . ... : --- .. . ... : D-# 28 . ... : ... .. . ...
ROW 15 : ... .. . ... : ... .. . ... : ... .. . ... : D-# 19 . ... : ... .. . ...
ROW 16 : ... .. . ... : ... .. . ... : ... .. . ... : ... .. . ... : ... .. . ...
ROW 17 : ... .. . ... : ... .. . ... : ... .. . ... : D-# 28 . ... : ... .. . ...
ROW 18 : ... .. . ... : ... .. . ... : ... .. . ... : D-# 19 . ... : ... .. . ...
ROW 19 : ... .. . ... : ... .. . ... : ... .. . ... : D-# 19 . ... : ... .. . ...
ROW 1A : ... .. . ... : ... .. . ... : ... .. . ... : ... .. . ... : ... .. . ...
ROW 1B : ... .. . ... : ... .. . ... : ... .. . ... : D-# 28 . ... : ... .. . ...
ROW 1C : ... .. . ... : ... .. . ... : ... .. . ... : B-# 18 . ... : ... .. . ...
ROW 1D : ... .. . ... : ... .. . ... : ... .. . ... : ... .. . ... : ... .. . ...
ROW 1E : ... .. . ... : ... .. . ... : ... .. . ... : 9-# 28 . ... : ... .. . ...
ROW 1F : ... .. . ... : ... .. . ... : ... .. . ... : ... .. . ... : ... .. . ...
ROW 20 : D-1 15 . ... : ... .. . ... : D-1 21 . ... : ... .. . ... : C-3 14 . ...
ROW 21 : ... .. . ... : ... .. . ... : ... .. . ... : ... .. . ... : ... .. . ...
ROW 22 : ... .. . ... : ... .. . ... : ... .. . ... : D-# 19 . ... : ... .. . ...
ROW 23 : ... .. . ... : ... .. . ... : ... .. . ... : ... .. . ... : ... .. . ...
ROW 24 : ... .. . ... : ... .. . ... : --- .. . ... : D-# 28 . ... : ... .. . ...
ROW 25 : ... .. . ... : ... .. . ... : ... .. . ... : D-# 19 . ... : ... .. . ...
ROW 26 : ... .. . ... : ... .. . ... : ... .. . ... : ... .. . ... : ... .. . ...
ROW 27 : ... .. . ... : ... .. . ... : ... .. . ... : D-# 28 . ... : ... .. . ...
ROW 28 : ... .. . ... : ... .. . ... : ... .. . ... : D-# 19 . ... : ... .. . ...
ROW 29 : ... .. . ... : ... .. . ... : ... .. . ... : D-# 19 . ... : ... .. . ...
ROW 2A : ... .. . ... : ... .. . ... : ... .. . ... : ... .. . ... : ... .. . ...
ROW 2B : ... .. . ... : ... .. . ... : ... .. . ... : D-# 28 . ... : ... .. . ...
ROW 2C : ... .. . ... : D-1 1C . ... : ... .. . ... : D-# 19 . ... : ... .. . ...
ROW 2D : ... .. . ... : A-1 1C . ... : ... .. . ... : ... .. . ... : ... .. . ...
ROW 2E : ... .. . ... : D-2 1C . ... : C-1 21 . ... : D-# 28 . ... : C-3 14 . ...
ROW 2F : ... .. . ... : F-2 1C . ... : ... .. . ... : ... .. . ... : ... .. . ...
ROW 30 : D-1 1D . ... : A-2 1C . ... : D-1 21 . ... : ... .. . ... : C-3 14 . ...
ROW 31 : A-1 1D . ... : --- .. . ... : ... .. . ... : ... .. . ... : ... .. . ...
ROW 32 : D-2 1D . ... : ... .. . ... : ... .. . ... : D-# 19 . ... : ... .. . ...
ROW 33 : F-2 1D . ... : ... .. . ... : ... .. . ... : ... .. . ... : ... .. . ...
ROW 34 : A-2 1D . ... : ... .. . ... : --- .. . ... : D-# 28 . ... : ... .. . ...
ROW 35 : --- .. . ... : ... .. . ... : ... .. . ... : D-# 19 . ... : ... .. . ...
ROW 36 : ... .. . ... : ... .. . ... : ... .. . ... : ... .. . ... : ... .. . ...
ROW 37 : ... .. . ... : ... .. . ... : ... .. . ... : D-# 28 . ... : ... .. . ...
ROW 38 : F-2 15 . ... : F-2 16 . ... : ... .. . ... : D-# 18 . ... : C-3 14 . ...
ROW 39 : ... .. . ... : ... .. . ... : ... .. . ... : ... .. . ... : ... .. . ...
ROW 3A : ... .. . ... : ... .. . ... : ... .. . ... : ... .. . ... : ... .. . ...
ROW 3B : ... .. . ... : ... .. . ... : ... .. . ... : ... .. . ... : ... .. . ...
ROW 3C : ... .. . ... : ... .. . ... : ... .. . ... : --- 28 . ... : E-3 14 . ...
ROW 3D : ... .. . ... : ... .. . ... : ... .. . ... : ... .. . ... : E-3 14 . ...
ROW 3E : ... .. . ... : ... .. . ... : ... .. . ... : ... .. . ... : E-3 14 . ...
ROW 3F : ... .. . ... : ... .. . ... : ... .. . ... : ... .. . ... : E-3 14 . ...

PATTERN 02
ROW 00 : D-1 1A . ... : D-1 1C . ... : D-2 21 . ... : F-# 1F . ... : C-3 14 . ...
ROW 01 : ... .. . ... : ... .. . ... : ... .. . ... : F-# 1F . ... : ... .. . ...
ROW 02 : D-2 1A . ... : D-2 1C . ... : D-3 14 . ... : D-# 19 . ... : ... .. . ...
ROW 03 : ... .. . ... : ... .. . ... : ... .. . ... : F-# 1F . ... : ... .. . ...
ROW 04 : D-2 1B . ... : D-2 1D . ... : ... .. . ... : D-# 28 . ... : E-3 14 . ...
ROW 05 : D-2 1A . ... : D-2 1C . ... : D-3 14 . ... : D-# 19 . ... : ... .. . ...
ROW 06 : ... .. . ... : ... .. . ... : ... .. . ... : F-# 1F . ... : D-3 14 . ...
ROW 07 : D-2 1B . ... : D-2 1D . ... : ... .. . ... : D-# 28 . ... : C-3 14 . ...
ROW 08 : C-2 1A . ... : C-2 1C . ... : C-3 14 . ... : D-# 19 . ... : ... .. . ...
ROW 09 : D-2 1A . ... : D-2 1C . ... : D-3 14 . ... : D-# 19 . ... : ... .. . ...
ROW 0A : ... .. . ... : ... .. . ... : ... .. . ... : F-# 1F . ... : C-3 14 . ...
ROW 0B : C-2 1B . ... : C-2 1D . ... : ... .. . ... : D-# 28 . ... : ... .. . ...
ROW 0C : D-2 1A . ... : D-2 1C . ... : D-3 14 . ... : D-# 19 . ... : E-3 14 . ...
ROW 0D : D-2 1B . ... : D-2 1D . ... : ... .. . ... : F-# 1F . ... : C-3 14 . ...
ROW 0E : C-1 1A . ... : C-1 1C . ... : C-2 21 . ... : F-# 1F . ... : ... .. . ...
ROW 0F : ... .. . ... : ... .. . ... : ... .. . ... : F-# 1F . ... : ... .. . ...
ROW 10 : D-1 1A . ... : D-1 1C . ... : D-2 21 . ... : D-# 28 . ... : C-3 14 . ...
ROW 11 : ... .. . ... : ... .. . ... : ... .. . ... : F-# 1F . ... : ... .. . ...
ROW 12 : D-2 1A . ... : D-2 1C . ... : D-3 14 . ... : D-# 19 . ... : ... .. . ...
ROW 13 : ... .. . ... : ... .. . ... : ... .. . ... : F-# 1F . ... : ... .. . ...
ROW 14 : D-2 1B . ... : D-2 1D . ... : ... .. . ... : D-# 28 . ... : E-3 14 . ...
ROW 15 : D-2 1A . ... : D-2 1C . ... : D-3 14 . ... : D-# 19 . ... : ... .. . ...
ROW 16 : ... .. . ... : ... .. . ... : ... .. . ... : F-# 1F . ... : D-3 14 . ...
ROW 17 : D-2 1B . ... : D-2 1D . ... : ... .. . ... : D-# 28 . ... : C-3 14 . ...
ROW 18 : C-2 1A . ... : C-2 1C . ... : C-3 14 . ... : D-# 19 . ... : ... .. . ...
ROW 19 : D-2 1A . ... : D-2 1C . ... : D-3 14 . ... : D-# 19 . ... : ... .. . ...
ROW 1A : ... .. . ... : ... .. . ... : ... .. . ... : F-# 1F . ... : C-3 14 . ...
ROW 1B : C-2 1B . ... : C-2 1D . ... : ... .. . ... : D-# 28 . ... : ... .. . ...
ROW 1C : F-2 1A . ... : F-2 1C . ... : F-3 14 . ... : C-# 18 . ... : E-3 14 . ...
ROW 1D : D-2 1B . ... : D-2 1D . ... : ... .. . ... : ... .. . ... : ... .. . ...
ROW 1E : E-2 1A . ... : E-2 1C . ... : E-3 14 . ... : F-# 1F . ... : ... .. . ...
ROW 1F : F-2 1B . ... : F-2 1D . ... : ... .. . ... : F-# 1F . ... : ... .. . ...
ROW 20 : D-1 1A . ... : D-1 1C . ... : D-2 21 . ... : B-# 28 . ... : C-3 14 . ...
ROW 21 : E-2 1B . ... : E-2 1D . ... : ... .. . ... : F-# 1F . ... : ... .. . ...
ROW 22 : D-2 1A . ... : D-2 1C . ... : D-3 14 . ... : D-# 19 . ... : ... .. . ...
ROW 23 : ... .. . ... : ... .. . ... : ... .. . ... : F-# 1F . ... : ... .. . ...
ROW 24 : D-2 1B . ... : D-2 1D . ... : ... .. . ... : D-# 28 . ... : E-3 14 . ...
ROW 25 : D-2 1A . ... : D-2 1C . ... : D-3 14 . ... : D-# 19 . ... : ... .. . ...
ROW 26 : ... .. . ... : ... .. . ... : ... .. . ... : F-# 1F . ... : D-3 14 . ...
ROW 27 : D-2 1B . ... : D-2 1D . ... : ... .. . ... : D-# 28 . ... : C-3 14 . ...
ROW 28 : C-2 1A . ... : C-2 1C . ... : C-3 14 . ... : D-# 19 . ... : ... .. . ...
ROW 29 : D-2 1A . ... : D-2 1C . ... : D-3 14 . ... : D-# 19 . ... : ... .. . ...
ROW 2A : ... .. . ... : ... .. . ... : ... .. . ... : F-# 1F . ... : C-3 14 . ...
ROW 2B : C-2 1B . ... : C-2 1D . ... : ... .. . ... : D-# 28 . ... : ... .. . ...
ROW 2C : D-2 1A . ... : D-2 1C . ... : D-3 14 . ... : D-# 19 . ... : E-3 14 . ...
ROW 2D : D-2 1B . ... : D-2 1D . ... : ... .. . ... : F-# 1F . ... : C-3 14 . ...
ROW 2E : C-1 1A . ... : C-1 1C . ... : C-2 21 . ... : D-# 28 . ... : ... .. . ...
ROW 2F : ... .. . ... : ... .. . ... : ... .. . ... : F-# 1F . ... : ... .. . ...
ROW 30 : D-1 1A . ... : D-1 1C . ... : D-2 21 . ... : F-# 1F . ... : D-3 14 . ...
ROW 31 : ... .. . ... : ... .. . ... : ... .. . ... : F-# 1F . ... : D-3 14 . ...
ROW 32 : D-2 1A . ... : D-2 1C . ... : D-3 14 . ... : D-# 19 . ... : D-3 14 . ...
ROW 33 : ... .. . ... : ... .. . ... : ... .. . ... : F-# 1F . ... : D-3 14 . ...
ROW 34 : D-2 1B . ... : D-2 1D . ... : ... .. . ... : D-# 28 . ... : E-3 14 . ...
ROW 35 : D-2 1A . ... : D-2 1C . ... : D-3 14 . ... : D-# 19 . ... : ... .. . ...
ROW 36 : ... .. . ... : ... .. . ... : ... .. . ... : F-# 1F . ... : C-3 14 . ...
ROW 37 : D-2 1B . ... : D-2 1D . ... : ... .. . ... : D-# 28 . ... : C-3 14 . ...
ROW 38 : F-2 1A . ... : F-2 1C . ... : F-2 21 . ... : D-# 18 . ... : ... .. . ...
ROW 39 : ... .. . ... : ... .. . ... : ... .. . ... : ... .. . ... : ... .. . ...
ROW 3A : F-2 1B . ... : F-2 1D . ... : --- .. . ... : ... .. . ... : D-3 14 . ...
ROW 3B : ... .. . ... : ... .. . ... : ... .. . ... : ... .. . ... : D-3 14 . ...
ROW 3C : F-2 1A . ... : F-2 1C . ... : F-2 21 . ... : F-# 1F . ... : E-3 14 . ...
ROW 3D : ... .. . ... : ... .. . ... : ... .. . ... : F-# 1F . ... : ... .. . ...
ROW 3E : E-2 1A . ... : E-2 1C . ... : E-2 21 . ... : D-# 28 . ... : ... .. . ...
ROW 3F : ... .. . ... : ... .. . ... : ... .. . ... : F-# 1F . ... : ... .. . ...

PATTERN 03
ROW 00 : D-1 1A . ... : D-1 1C . ... : D-2 21 . ... : F-# 1F . ... : C-3 14 . ...
ROW 01 : ... .. . ... : ... .. . ... : ... .. . ... : F-# 1F . ... : ... .. . ...
ROW 02 : D-2 1A . ... : D-2 1C . ... : D-3 14 . ... : D-# 19 . ... : ... .. . ...
ROW 03 : ... .. . ... : ... .. . ... : ... .. . ... : F-# 1F . ... : ... .. . ...
ROW 04 : D-2 1B . ... : D-2 1D . ... : ... .. . ... : D-# 28 . ... : E-3 14 . ...
ROW 05 : D-2 1A . ... : D-2 1C . ... : D-3 14 . ... : D-# 19 . ... : ... .. . ...
ROW 06 : ... .. . ... : ... .. . ... : ... .. . ... : F-# 1F . ... : D-3 14 . ...
ROW 07 : D-2 1B . ... : D-2 1D . ... : ... .. . ... : D-# 28 . ... : C-3 14 . ...
ROW 08 : C-2 1A . ... : C-2 1C . ... : C-3 14 . ... : D-# 19 . ... : ... .. . ...
ROW 09 : D-2 1A . ... : D-2 1C . ... : D-3 14 . ... : D-# 19 . ... : ... .. . ...
ROW 0A : ... .. . ... : ... .. . ... : ... .. . ... : F-# 1F . ... : C-3 14 . ...
ROW 0B : C-2 1B . ... : C-2 1D . ... : ... .. . ... : D-# 28 . ... : ... .. . ...
ROW 0C : D-2 1A . ... : D-2 1C . ... : D-3 14 . ... : D-# 19 . ... : E-3 14 . ...
ROW 0D : D-2 1B . ... : D-2 1D . ... : ... .. . ... : F-# 1F . ... : C-3 14 . ...
ROW 0E : C-1 1A . ... : C-1 1C . ... : C-2 21 . ... : F-# 1F . ... : ... .. . ...
ROW 0F : ... .. . ... : ... .. . ... : ... .. . ... : F-# 1F . ... : C-3 14 . ...
ROW 10 : D-1 1A . ... : D-1 1C . ... : D-2 21 . ... : D-# 28 . ... : C-3 14 . ...
ROW 11 : ... .. . ... : ... .. . ... : ... .. . ... : F-# 1F . ... : ... .. . ...
ROW 12 : D-2 1A . ... : D-2 1C . ... : D-3 14 . ... : D-# 19 . ... : ... .. . ...
ROW 13 : ... .. . ... : ... .. . ... : ... .. . ... : F-# 1F . ... : ... .. . ...
ROW 14 : D-2 1B . ... : D-2 1D . ... : ... .. . ... : D-# 28 . ... : E-3 14 . ...
ROW 15 : D-2 1A . ... : D-2 1C . ... : D-3 14 . ... : D-# 19 . ... : ... .. . ...
ROW 16 : ... .. . ... : ... .. . ... : ... .. . ... : F-# 1F . ... : D-3 14 . ...
ROW 17 : D-2 1B . ... : D-2 1D . ... : ... .. . ... : D-# 28 . ... : C-3 14 . ...
ROW 18 : C-2 1A . ... : C-2 1C . ... : C-3 14 . ... : D-# 19 . ... : ... .. . ...
ROW 19 : D-2 1A . ... : D-2 1C . ... : D-3 14 . ... : D-# 19 . ... : ... .. . ...
ROW 1A : ... .. . ... : ... .. . ... : ... .. . ... : F-# 1F . ... : C-3 14 . ...
ROW 1B : C-2 1B . ... : C-2 1D . ... : ... .. . ... : D-# 28 . ... : ... .. . ...
ROW 1C : F-2 1A . ... : F-2 1C . ... : F-3 14 . ... : C-# 18 . ... : E-3 14 . ...
ROW 1D : D-2 1B . ... : D-2 1D . ... : ... .. . ... : ... .. . ... : ... .. . ...
ROW 1E : E-2 1A . ... : E-2 1C . ... : E-3 14 . ... : F-# 1F . ... : D-3 14 . ...
ROW 1F : F-2 1B . ... : F-2 1D . ... : ... .. . ... : F-# 1F . ... : D-3 14 . ...
ROW 20 : D-1 1A . ... : D-1 1C . ... : D-2 21 . ... : B-# 28 . ... : C-3 14 . ...
ROW 21 : E-2 1B . ... : E-2 1D . ... : ... .. . ... : F-# 1F . ... : ... .. . ...
ROW 22 : D-2 1A . ... : D-2 1C . ... : D-3 14 . ... : D-# 19 . ... : ... .. . ...
ROW 23 : ... .. . ... : ... .. . ... : ... .. . ... : F-# 1F . ... : ... .. . ...
ROW 24 : D-2 1B . ... : D-2 1D . ... : ... .. . ... : D-# 28 . ... : E-3 14 . ...
ROW 25 : D-2 1A . ... : D-2 1C . ... : D-3 14 . ... : D-# 19 . ... : ... .. . ...
ROW 26 : ... .. . ... : ... .. . ... : ... .. . ... : F-# 1F . ... : D-3 14 . ...
ROW 27 : D-2 1B . ... : D-2 1D . ... : ... .. . ... : D-# 28 . ... : C-3 14 . ...
ROW 28 : C-2 1A . ... : C-2 1C . ... : C-3 14 . ... : D-# 19 . ... : ... .. . ...
ROW 29 : D-2 1A . ... : D-2 1C . ... : D-3 14 . ... : D-# 19 . ... : ... .. . ...
ROW 2A : ... .. . ... : ... .. . ... : ... .. . ... : F-# 1F . ... : D-3 14 . ...
ROW 2B : C-2 1B . ... : C-2 1D . ... : ... .. . ... : D-# 28 . ... : D-3 14 . ...
ROW 2C : D-2 1A . ... : D-2 1C . ... : D-3 14 . ... : D-# 19 . ... : E-3 14 . ...
ROW 2D : D-2 1B . ... : D-2 1D . ... : ... .. . ... : F-# 1F . ... : ... .. . ...
ROW 2E : C-1 1A . ... : C-1 1C . ... : C-2 21 . ... : D-# 28 . ... : C-3 14 . ...
ROW 2F : ... .. . ... : ... .. . ... : ... .. . ... : F-# 1F . ... : ... .. . ...
ROW 30 : D-1 1A . ... : D-1 1C . ... : D-2 21 . ... : F-# 1F . ... : E-3 14 . ...
ROW 31 : ... .. . ... : ... .. . ... : ... .. . ... : ... .. . ... : ... .. . ...
ROW 32 : D-2 1A . ... : D-2 1C . ... : ... .. . ... : D-# 19 . ... : C-3 14 . ...
ROW 33 : ... .. . ... : ... .. . ... : ... .. . ... : ... .. . ... : ... .. . ...
ROW 34 : D-2 1B . ... : D-2 1D . ... : ... .. . ... : D-# 28 . ... : C-3 14 . ...
ROW 35 : D-2 1A . ... : D-2 1C . ... : ... .. . ... : D-# 19 . ... : ... .. . ...
ROW 36 : ... .. . ... : ... .. . ... : ... .. . ... : ... .. . ... : C-3 14 . ...
ROW 37 : D-2 1B . ... : D-2 1D . ... : ... .. . ... : D-# 28 . ... : ... .. . ...
ROW 38 : F-2 1A . ... : F-2 1C . ... : B-1 21 . ... : D-# 18 . ... : E-3 14 . ...
ROW 39 : ... .. . ... : ... .. . ... : G-1 21 . ... : ... .. . ... : E-3 14 . ...
ROW 3A : F-2 1B . ... : F-2 1D . ... : E-1 21 . ... : ... .. . ... : ... .. . ...
ROW 3B : ... .. . ... : ... .. . ... : C-1 21 . ... : ... .. . ... : E-3 14 . ...
ROW 3C : F-2 1A . ... : F-2 1C . ... : --- 21 . ... : C-# 18 . ... : E-3 14 . ...
ROW 3D : ... .. . ... : ... .. . ... : ... .. . ... : B-# 18 . ... : E-3 14 . ...
ROW 3E : E-2 1A . ... : E-2 1C . ... : ... .. . ... : 9-# 18 . ... : E-3 14 . ...
ROW 3F : ... .. . ... : ... .. . ... : ... .. . ... : 7-# 18 . ... : E-3 14 . ...

PATTERN 04
ROW 00 : D-2 1A . ... : D-2 1C . ... : D-2 21 . ... : D-# 1F . ... : C-3 14 . ...
ROW 01 : ... .. . ... : ... .. . ... : ... .. . ... : F-# 1F . ... : ... .. . ...
ROW 02 : D-2 1B . ... : D-2 1D . ... : D-3 14 . ... : E-# 1F . ... : ... .. . ...
ROW 03 : ... .. . ... : ... .. . ... : ... .. . ... : F-# 1F . ... : ... .. . ...
ROW 04 : D-2 1A . ... : D-3 1C . ... : ... .. . ... : D-# 1F . ... : E-3 14 . ...
ROW 05 : A-2 1A . ... : A-3 1C . ... : D-3 14 . ... : F-# 1F . ... : ... .. . ...
ROW 06 : D-3 1A . ... : D-4 1C . ... : ... .. . ... : E-# 1F . ... : ... .. . ...
ROW 07 : G-3 1A . ... : G-4 1C . ... : ... .. . ... : F-# 1F . ... : C-3 14 . ...
ROW 08 : A-3 1A . ... : A-4 1C . ... : C-3 14 . ... : D-# 1F . ... : C-3 14 . ...
ROW 09 : D-3 1E . ... : D-4 1D . ... : D-3 14 . ... : F-# 1F . ... : ... .. . ...
ROW 0A : F-3 1E . ... : G-4 1D . ... : ... .. . ... : E-# 1F . ... : ... .. . ...
ROW 0B : A-3 1E . ... : A-4 1D . ... : ... .. . ... : F-# 1F . ... : ... .. . ...
ROW 0C : C-4 1E . ... : D-3 1B . ... : D-3 14 . ... : D-# 1F . ... : E-3 14 . ...
ROW 0D : ... .. . ... : G-3 1B . ... : ... .. . ... : F-# 1F . ... : ... .. . ...
ROW 0E : A-3 1E . ... : C-4 25 . ... : C-2 21 . ... : C-# 19 . ... : C-3 14 . ...
ROW 0F : ... .. . ... : ... .. . ... : ... .. . ... : C-# 19 . ... : ... .. . ...
ROW 10 : ... .. . ... : A-3 25 . ... : D-2 21 . ... : C-# 28 . ... : C-3 14 . ...
ROW 11 : ... .. . ... : ... .. . ... : ... .. . ... : C-# 28 . ... : ... .. . ...
ROW 12 : ... .. . ... : ... .. . ... : D-3 14 . ... : E-# 1F . ... : ... .. . ...
ROW 13 : ... .. . ... : ... .. . ... : ... .. . ... : F-# 1F . ... : ... .. . ...
ROW 14 : C-4 1E . ... : ... .. . ... : ... .. . ... : D-# 1F . ... : E-3 14 . ...
ROW 15 : ... .. . ... : ... .. . ... : D-3 14 . ... : F-# 1F . ... : ... .. . ...
ROW 16 : ... .. . ... : C-4 25 . ... : ... .. . ... : E-# 1F . ... : ... .. . ...
ROW 17 : ... .. . ... : ... .. . ... : ... .. . ... : F-# 1F . ... : C-3 14 . ...
ROW 18 : ... .. . ... : ... .. . ... : C-3 14 . ... : D-# 1F . ... : C-3 14 . ...
ROW 19 : ... .. . ... : ... .. . ... : D-3 14 . ... : F-# 1F . ... : ... .. . ...
ROW 1A : ... .. . ... : ... .. . ... : ... .. . ... : E-# 1F . ... : ... .. . ...
ROW 1B : ... .. . ... : ... .. . ... : ... .. . ... : F-# 1F . ... : ... .. . ...
ROW 1C : ... .. . ... : ... .. . ... : F-3 14 . ... : C-# 19 . ... : E-3 14 . ...
ROW 1D : ... .. . ... : ... .. . ... : ... .. . ... : F-# 1F . ... : ... .. . ...
ROW 1E : ... .. . ... : ... .. . ... : E-3 14 . ... : B-# 19 . ... : ... .. . ...
ROW 1F : ... .. . ... : ... .. . ... : ... .. . ... : F-# 1F . ... : ... .. . ...
ROW 20 : ... .. . ... : ... .. . ... : F-2 21 . ... : B-# 28 . ... : C-3 14 . ...
ROW 21 : ... .. . ... : ... .. . ... : ... .. . ... : F-# 1F . ... : ... .. . ...
ROW 22 : ... .. . ... : ... .. . ... : F-3 14 . ... : E-# 1F . ... : ... .. . ...
ROW 23 : ... .. . ... : ... .. . ... : ... .. . ... : F-# 1F . ... : ... .. . ...
ROW 24 : A-3 1A . ... : A-4 1C . ... : ... .. . ... : D-# 1F . ... : E-3 14 . ...
ROW 25 : F-3 1A . ... : F-4 1C . ... : F-3 14 . ... : F-# 1F . ... : ... .. . ...
ROW 26 : D-3 1A . ... : D-4 1C . ... : ... .. . ... : E-# 1F . ... : ... .. . ...
ROW 27 : F-3 1A . ... : F-4 1C . ... : ... .. . ... : F-# 1F . ... : C-3 14 . ...
ROW 28 : A-3 1A . ... : A-4 1C . ... : E-3 14 . ... : D-# 1F . ... : C-3 14 . ...
ROW 29 : D-3 1B . ... : D-4 1D . ... : F-3 14 . ... : F-# 1F . ... : ... .. . ...
ROW 2A : D-3 1E . ... : F-4 1D . ... : ... .. . ... : E-# 1F . ... : ... .. . ...
ROW 2B : F-3 1E . ... : A-4 1D . ... : ... .. . ... : F-# 1F . ... : ... .. . ...
ROW 2C : A-3 1E . ... : D-4 1B . ... : F-3 14 . ... : D-# 1F . ... : E-3 14 . ...
ROW 2D : ... .. . ... : F-4 1B . ... : ... .. . ... : F-# 1F . ... : ... .. . ...
ROW 2E : B-3 1E . ... : A-3 25 . ... : F-2 21 . ... : C-# 19 . ... : C-3 14 . ...
ROW 2F : ... .. . ... : ... .. . ... : ... .. . ... : C-# 19 . ... : ... .. . ...
ROW 30 : ... .. . ... : B-3 25 . ... : G-2 21 . ... : C-# 28 . ... : C-3 14 . ...
ROW 31 : ... .. . ... : ... .. . ... : ... .. . ... : C-# 28 . ... : ... .. . ...
ROW 32 : ... .. . ... : ... .. . ... : G-3 14 . ... : E-# 1F . ... : ... .. . ...
ROW 33 : ... .. . ... : ... .. . ... : ... .. . ... : F-# 1F . ... : ... .. . ...
ROW 34 : ... .. . ... : ... .. . ... : ... .. . ... : D-# 1F . ... : E-3 14 . ...
ROW 35 : ... .. . ... : ... .. . ... : G-3 14 . ... : F-# 1F . ... : ... .. . ...
ROW 36 : ... .. . ... : ... .. . ... : ... .. . ... : E-# 1F . ... : ... .. . ...
ROW 37 : ... .. . ... : ... .. . ... : ... .. . ... : F-# 1F . ... : C-3 14 . ...
ROW 38 : ... .. . ... : ... .. . ... : G-3 14 . ... : D-# 1F . ... : C-3 14 . ...
ROW 39 : ... .. . ... : ... .. . ... : ... .. . ... : F-# 1F . ... : ... .. . ...
ROW 3A : ... .. . ... : ... .. . ... : ... .. . ... : E-# 1F . ... : ... .. . ...
ROW 3B : ... .. . ... : ... .. . ... : ... .. . ... : F-# 1F . ... : ... .. . ...
ROW 3C : G-2 1A . ... : G-2 1C . ... : G-2 21 . ... : F-# 1F . ... : E-3 14 . ...
ROW 3D : ... .. . ... : ... .. . ... : ... .. . ... : F-# 1F . ... : ... .. . ...
ROW 3E : F-2 1A . ... : F-2 1C . ... : F-2 21 . ... : F-# 1F . ... : ... .. . ...
ROW 3F : ... .. . ... : ... .. . ... : ... .. . ... : F-# 1F . ... : ... .. . ...

PATTERN 05
ROW 00 : E-3 1E . ... : A#1 1A . ... : A#1 21 . ... : B-# 28 . ... : C-3 14 . ...
ROW 01 : F-3 1E . ... : D-2 1A . ... : ... .. . ... : F-# 1F . ... : ... .. . ...
ROW 02 : ... .. . ... : F-2 1A . ... : A#2 14 . ... : E-# 1F . ... : C-3 14 . ...
ROW 03 : ... .. . ... : A-2 1A . ... : ... .. . ... : F-# 1F . ... : ... .. . ...
ROW 04 : ... .. . ... : C-3 1A . ... : ... .. . ... : D-# 1F . ... : E-3 14 . ...
ROW 05 : ... .. . ... : A-2 1A . ... : A#2 14 . ... : F-# 1F . ... : ... .. . ...
ROW 06 : ... .. . ... : F-2 1A . ... : ... .. . ... : E-# 1F . ... : D-3 14 . ...
ROW 07 : ... .. . ... : D-2 1A . ... : ... .. . ... : F-# 1F . ... : C-3 14 . ...
ROW 08 : F-3 25 . ... : A#1 1A . ... : G#2 14 . ... : D-# 1F . ... : ... .. . ...
ROW 09 : ... .. . ... : D-2 1A . ... : A#2 14 . ... : F-# 1F . ... : ... .. . ...
ROW 0A : ... .. . ... : F-2 1A . ... : ... .. . ... : E-# 1F . ... : D-3 14 . ...
ROW 0B : ... .. . ... : A-2 1A . ... : ... .. . ... : F-# 1F . ... : ... .. . ...
ROW 0C : C-3 1E . ... : C-3 1A . ... : A#2 14 . ... : D-# 1F . ... : E-3 14 . ...
ROW 0D : ... .. . ... : A-2 1A . ... : ... .. . ... : F-# 1F . ... : C-3 14 . ...
ROW 0E : A-2 1E . ... : F-2 1A . ... : G#1 21 . ... : C-# 19 . ... : ... .. . ...
ROW 0F : ... .. . ... : D-2 1A . ... : ... .. . ... : C-# 19 . ... : C-3 14 . ...
ROW 10 : ... .. . ... : C-2 1A . ... : C-2 21 . ... : C-# 28 . ... : C-3 14 . ...
ROW 11 : ... .. . ... : E-2 1A . ... : ... .. . ... : C-# 28 . ... : ... .. . ...
ROW 12 : ... .. . ... : G-2 1A . ... : C-3 14 . ... : E-# 1F . ... : C-3 14 . ...
ROW 13 : ... .. . ... : C-3 1A . ... : ... .. . ... : F-# 1F . ... : ... .. . ...
ROW 14 : C-3 25 . ... : E-3 1A . ... : ... .. . ... : D-# 1F . ... : E-3 14 . ...
ROW 15 : ... .. . ... : C-3 1A . ... : C-3 14 . ... : F-# 1F . ... : ... .. . ...
ROW 16 : A-2 25 . ... : G-2 1A . ... : ... .. . ... : E-# 1F . ... : D-3 14 . ...
ROW 17 : ... .. . ... : E-2 1A . ... : ... .. . ... : F-# 1F . ... : C-3 14 . ...
ROW 18 : ... .. . ... : C-2 1A . ... : A#2 14 . ... : D-# 1F . ... : ... .. . ...
ROW 19 : ... .. . ... : E-2 1A . ... : C-3 14 . ... : F-# 1F . ... : ... .. . ...
ROW 1A : A-2 1E . ... : A-3 1C . ... : ... .. . ... : E-# 1F . ... : C-3 14 . ...
ROW 1B : C-3 1E . ... : C-4 1C . ... : ... .. . ... : F-# 1F . ... : ... .. . ...
ROW 1C : F-3 1E . ... : F-4 1C . ... : A#1 21 . ... : C-# 19 . ... : E-3 14 . ...
ROW 1D : A-2 1E . ... : A-3 1C . ... : ... .. . ... : F-# 1F . ... : ... .. . ...
ROW 1E : C-3 1E . ... : C-4 1C . ... : C-2 21 . ... : B-# 19 . ... : ... .. . ...
ROW 1F : F-3 1E . ... : F-4 1C . ... : ... .. . ... : F-# 1F . ... : ... .. . ...
ROW 20 : G-3 1E . ... : A-3 1D . ... : D-2 21 . ... : B-# 28 . ... : C-3 14 . ...
ROW 21 : ... .. . ... : C-4 1D . ... : ... .. . ... : F-# 1F . ... : ... .. . ...
ROW 22 : ... .. . ... : F-4 1D . ... : D-3 14 . ... : E-# 1F . ... : C-3 14 . ...
ROW 23 : ... .. . ... : D-3 1A . ... : ... .. . ... : F-# 1F . ... : ... .. . ...
ROW 24 : ... .. . ... : F-3 1A . ... : ... .. . ... : D-# 1F . ... : E-3 14 . ...
ROW 25 : ... .. . ... : D-3 1A . ... : D-3 14 . ... : F-# 1F . ... : ... .. . ...
ROW 26 : ... .. . ... : A-2 1A . ... : ... .. . ... : E-# 1F . ... : D-3 14 . ...
ROW 27 : ... .. . ... : F-2 1A . ... : ... .. . ... : F-# 1F . ... : C-3 14 . ...
ROW 28 : ... .. . ... : D-2 1A . ... : C-3 14 . ... : D-# 1F . ... : ... .. . ...
ROW 29 : ... .. . ... : F-2 1A . ... : D-3 14 . ... : F-# 1F . ... : ... .. . ...
ROW 2A : ... .. . ... : A-2 1A . ... : ... .. . ... : E-# 1F . ... : C-3 14 . ...
ROW 2B : ... .. . ... : D-3 1A . ... : ... .. . ... : F-# 1F . ... : ... .. . ...
ROW 2C : A-3 1E . ... : F-3 1A . ... : D-3 14 . ... : D-# 1F . ... : E-3 14 . ...
ROW 2D : ... .. . ... : D-3 1A . ... : ... .. . ... : F-# 1F . ... : C-3 14 . ...
ROW 2E : ... .. . ... : A-2 1A . ... : C-2 21 . ... : C-# 19 . ... : ... .. . ...
ROW 2F : ... .. . ... : F-2 1A . ... : ... .. . ... : C-# 19 . ... : C-3 14 . ...
ROW 30 : ... .. . ... : D-2 1A . ... : F-2 21 . ... : C-# 28 . ... : C-3 14 . ...
ROW 31 : ... .. . ... : F-2 1A . ... : ... .. . ... : C-# 28 . ... : ... .. . ...
ROW 32 : ... .. . ... : A-2 1A . ... : F-3 14 . ... : E-# 1F . ... : C-3 14 . ...
ROW 33 : ... .. . ... : D-3 1A . ... : ... .. . ... : F-# 1F . ... : ... .. . ...
ROW 34 : ... .. . ... : F-3 1A . ... : ... .. . ... : D-# 1F . ... : E-3 14 . ...
ROW 35 : ... .. . ... : D-3 1A . ... : F-3 14 . ... : F-# 1F . ... : ... .. . ...
ROW 36 : ... .. . ... : A-2 1A . ... : ... .. . ... : E-# 1F . ... : D-3 14 . ...
ROW 37 : ... .. . ... : F-2 1A . ... : ... .. . ... : F-# 1F . ... : C-3 14 . ...
ROW 38 : A-3 25 . ... : D-2 1A . ... : E-3 14 . ... : D-# 1F . ... : ... .. . ...
ROW 39 : ... .. . ... : F-2 1A . ... : F-3 14 . ... : F-# 1F . ... : ... .. . ...
ROW 3A : ... .. . ... : A-2 1A . ... : ... .. . ... : E-# 1F . ... : C-3 14 . ...
ROW 3B : ... .. . ... : D-3 1A . ... : ... .. . ... : F-# 1F . ... : ... .. . ...
ROW 3C : F-3 1E . ... : F-3 1A . ... : F-3 14 . ... : C-# 19 . ... : E-3 14 . ...
ROW 3D : E-3 1E . ... : D-3 1A . ... : ... .. . ... : F-# 1F . ... : ... .. . ...
ROW 3E : D-3 1E . ... : A-2 1A . ... : E-3 14 . ... : B-# 19 . ... : ... .. . ...
ROW 3F : E-3 1E . ... : F-2 1A . ... : ... .. . ... : F-# 1F . ... : ... .. . ...

PATTERN 06
ROW 00 : D-3 1E . ... : A#1 1A . ... : A#1 21 . ... : B-# 28 . ... : C-3 14 . ...
ROW 01 : ... .. . ... : D-2 1A . ... : ... .. . ... : F-# 1F . ... : ... .. . ...
ROW 02 : ... .. . ... : F-2 1A . ... : A#2 14 . ... : E-# 1F . ... : C-3 14 . ...
ROW 03 : ... .. . ... : A-2 1A . ... : ... .. . ... : F-# 1F . ... : ... .. . ...
ROW 04 : ... .. . ... : C-3 1A . ... : ... .. . ... : D-# 1F . ... : E-3 14 . ...
ROW 05 : ... .. . ... : A-2 1A . ... : A#2 14 . ... : F-# 1F . ... : ... .. . ...
ROW 06 : ... .. . ... : F-2 1A . ... : ... .. . ... : E-# 1F . ... : D-3 14 . ...
ROW 07 : ... .. . ... : D-2 1A . ... : ... .. . ... : F-# 1F . ... : C-3 14 . ...
ROW 08 : D-3 25 . ... : A#1 1A . ... : G#2 14 . ... : D-# 1F . ... : ... .. . ...
ROW 09 : ... .. . ... : D-2 1A . ... : A#2 14 . ... : F-# 1F . ... : ... .. . ...
ROW 0A : ... .. . ... : F-2 1A . ... : ... .. . ... : E-# 1F . ... : D-3 14 . ...
ROW 0B : E-3 1E . ... : A-2 1A . ... : ... .. . ... : F-# 1F . ... : ... .. . ...
ROW 0C : F-3 1E . ... : C-3 1A . ... : A#2 14 . ... : D-# 1F . ... : E-3 14 . ...
ROW 0D : ... .. . ... : A-2 1A . ... : ... .. . ... : F-# 1F . ... : C-3 14 . ...
ROW 0E : E-3 1E . ... : F-2 1A . ... : G#1 21 . ... : C-# 19 . ... : ... .. . ...
ROW 0F : ... .. . ... : D-2 1A . ... : ... .. . ... : C-# 19 . ... : C-3 14 . ...
ROW 10 : ... .. . ... : C-2 1A . ... : C-2 21 . ... : C-# 28 . ... : C-3 14 . ...
ROW 11 : ... .. . ... : E-2 1A . ... : ... .. . ... : C-# 28 . ... : ... .. . ...
ROW 12 : ... .. . ... : G-2 1A . ... : C-3 14 . ... : E-# 1F . ... : C-3 14 . ...
ROW 13 : E-3 25 . ... : C-3 1A . ... : ... .. . ... : F-# 1F . ... : ... .. . ...
ROW 14 : F-3 25 . ... : E-3 1A . ... : ... .. . ... : D-# 1F . ... : E-3 14 . ...
ROW 15 : ... .. . ... : C-3 1A . ... : C-3 14 . ... : F-# 1F . ... : ... .. . ...
ROW 16 : E-3 25 . ... : G-2 1A . ... : ... .. . ... : E-# 1F . ... : D-3 14 . ...
ROW 17 : ... .. . ... : E-2 1A . ... : ... .. . ... : F-# 1F . ... : C-3 14 . ...
ROW 18 : ... .. . ... : C-2 1A . ... : A#2 14 . ... : D-# 1F . ... : ... .. . ...
ROW 19 : ... .. . ... : E-2 1A . ... : C-3 14 . ... : F-# 1F . ... : ... .. . ...
ROW 1A : ... .. . ... : G-2 1A . ... : ... .. . ... : E-# 1F . ... : C-3 14 . ...
ROW 1B : D-3 1E . ... : C-3 1A . ... : ... .. . ... : F-# 1F . ... : ... .. . ...
ROW 1C : E-3 1E . ... : E-3 1A . ... : A#1 21 . ... : C-# 19 . ... : E-3 14 . ...
ROW 1D : ... .. . ... : C-3 1A . ... : ... .. . ... : F-# 1F . ... : ... .. . ...
ROW 1E : A-3 1E . ... : G-2 1A . ... : C-2 21 . ... : B-# 19 . ... : ... .. . ...
ROW 1F : ... .. . ... : E-2 1A . ... : ... .. . ... : F-# 1F . ... : ... .. . ...
ROW 20 : ... .. . ... : D-2 1A . ... : D-2 21 . ... : B-# 28 . ... : C-3 14 . ...
ROW 21 : ... .. . ... : F-2 1A . ... : ... .. . ... : F-# 1F . ... : ... .. . ...
ROW 22 : ... .. . ... : A-2 1A . ... : D-3 14 . ... : E-# 1F . ... : C-3 14 . ...
ROW 23 : ... .. . ... : D-3 1A . ... : ... .. . ... : F-# 1F . ... : ... .. . ...
ROW 24 : ... .. . ... : F-3 1A . ... : ... .. . ... : D-# 1F . ... : E-3 14 . ...
ROW 25 : ... .. . ... : D-3 1A . ... : D-3 14 . ... : F-# 1F . ... : ... .. . ...
ROW 26 : ... .. . ... : A-2 1A . ... : ... .. . ... : E-# 1F . ... : D-3 14 . ...
ROW 27 : ... .. . ... : F-2 1A . ... : ... .. . ... : F-# 1F . ... : C-3 14 . ...
ROW 28 : A-3 25 . ... : D-2 1A . ... : C-3 14 . ... : D-# 1F . ... : ... .. . ...
ROW 29 : ... .. . ... : F-2 1A . ... : D-3 14 . ... : F-# 1F . ... : ... .. . ...
ROW 2A : ... .. . ... : A-2 1A . ... : ... .. . ... : E-# 1F . ... : C-3 14 . ...
ROW 2B : ... .. . ... : D-3 1A . ... : ... .. . ... : F-# 1F . ... : ... .. . ...
ROW 2C : A-3 1E . ... : A-3 1C . ... : D-3 14 . ... : D-# 1F . ... : E-3 14 . ...
ROW 2D : A-2 1B . ... : A-3 1D . ... : ... .. . ... : F-# 1F . ... : C-3 14 . ...
ROW 2E : C-4 1E . ... : C-4 1C . ... : C-2 21 . ... : C-# 19 . ... : ... .. . ...
ROW 2F : C-3 1B . ... : C-4 1D . ... : ... .. . ... : C-# 19 . ... : C-3 14 . ...
ROW 30 : ... .. . ... : D-2 1A . ... : D-2 21 . ... : C-# 28 . ... : C-3 14 . ...
ROW 31 : ... .. . ... : F-2 1A . ... : ... .. . ... : C-# 28 . ... : ... .. . ...
ROW 32 : --- .. . ... : A-2 1A . ... : D-3 14 . ... : E-# 1F . ... : C-3 14 . ...
ROW 33 : ... .. . ... : D-3 1A . ... : ... .. . ... : F-# 1F . ... : ... .. . ...
ROW 34 : A-3 1E . ... : A-3 1C . ... : ... .. . ... : D-# 1F . ... : E-3 14 . ...
ROW 35 : A-2 1B . ... : A-3 1D . ... : D-3 14 . ... : F-# 1F . ... : ... .. . ...
ROW 36 : ... .. . ... : A-2 1A . ... : ... .. . ... : E-# 1F . ... : D-3 14 . ...
ROW 37 : ... .. . ... : F-2 1A . ... : ... .. . ... : F-# 1F . ... : C-3 14 . ...
ROW 38 : G-3 1E . ... : G-3 1C . ... : C-3 14 . ... : D-# 1F . ... : ... .. . ...
ROW 39 : G-2 1B . ... : G-3 1D . ... : D-3 14 . ... : F-# 1F . ... : D-3 14 . ...
ROW 3A : F-3 1E . ... : F-3 1C . ... : ... .. . ... : E-# 1F . ... : D-3 14 . ...
ROW 3B : F-2 1B . ... : F-3 1D . ... : ... .. . ... : F-# 1F . ... : ... .. . ...
ROW 3C : ... .. . ... : F-3 1A . ... : D-3 14 . ... : C-# 19 . ... : E-3 14 . ...
ROW 3D : ... .. . ... : D-3 1A . ... : ... .. . ... : F-# 1F . ... : ... .. . ...
ROW 3E : ... .. . ... : A-2 1A . ... : ... .. . ... : B-# 19 . ... : E-3 14 . ...
ROW 3F : ... .. . ... : F-2 1A . ... : ... .. . ... : F-# 1F . ... : E-3 14 . ...

PATTERN 07
ROW 00 : F-3 1E . ... : A#1 1A . ... : A#1 21 . ... : B-# 28 . ... : C-3 14 . ...
ROW 01 : ... .. . ... : D-2 1A . ... : ... .. . ... : F-# 1F . ... : ... .. . ...
ROW 02 : ... .. . ... : F-2 1A . ... : A#2 14 . ... : E-# 1F . ... : C-3 14 . ...
ROW 03 : ... .. . ... : A-2 1A . ... : ... .. . ... : F-# 1F . ... : ... .. . ...
ROW 04 : ... .. . ... : C-3 1A . ... : ... .. . ... : D-# 1F . ... : E-3 14 . ...
ROW 05 : ... .. . ... : A-2 1A . ... : A#2 14 . ... : F-# 1F . ... : ... .. . ...
ROW 06 : ... .. . ... : F-2 1A . ... : ... .. . ... : E-# 1F . ... : D-3 14 . ...
ROW 07 : ... .. . ... : D-2 1A . ... : ... .. . ... : F-# 1F . ... : C-3 14 . ...
ROW 08 : ... .. . ... : A#1 1A . ... : G#2 14 . ... : D-# 1F . ... : ... .. . ...
ROW 09 : ... .. . ... : D-2 1A . ... : A#2 14 . ... : F-# 1F . ... : ... .. . ...
ROW 0A : ... .. . ... : F-2 1A . ... : ... .. . ... : E-# 1F . ... : C-3 14 . ...
ROW 0B : B-2 1E . ... : A-2 1A . ... : ... .. . ... : F-# 1F . ... : ... .. . ...
ROW 0C : C-3 1E . ... : C-3 1A . ... : A#2 14 . ... : D-# 1F . ... : E-3 14 . ...
ROW 0D : ... .. . ... : A-2 1A . ... : ... .. . ... : F-# 1F . ... : C-3 14 . ...
ROW 0E : G-3 1E . ... : F-2 1A . ... : G#1 21 . ... : C-# 19 . ... : ... .. . ...
ROW 0F : ... .. . ... : D-2 1A . ... : ... .. . ... : C-# 19 . ... : C-3 14 . ...
ROW 10 : ... .. . ... : C-2 1A . ... : C-2 21 . ... : C-# 28 . ... : C-3 14 . ...
ROW 11 : ... .. . ... : E-2 1A . ... : ... .. . ... : C-# 28 . ... : ... .. . ...
ROW 12 : ... .. . ... : G-2 1A . ... : C-3 14 . ... : E-# 1F . ... : C-3 14 . ...
ROW 13 : B-2 25 . ... : C-3 1A . ... : ... .. . ... : F-# 1F . ... : ... .. . ...
ROW 14 : C-3 25 . ... : E-3 1A . ... : ... .. . ... : D-# 1F . ... : E-3 14 . ...
ROW 15 : ... .. . ... : C-3 1A . ... : C-3 14 . ... : F-# 1F . ... : ... .. . ...
ROW 16 : G-3 25 . ... : G-2 1A . ... : ... .. . ... : E-# 1F . ... : D-3 14 . ...
ROW 17 : ... .. . ... : E-2 1A . ... : ... .. . ... : F-# 1F . ... : C-3 14 . ...
ROW 18 : ... .. . ... : C-2 1A . ... : A#2 14 . ... : D-# 1F . ... : ... .. . ...
ROW 19 : ... .. . ... : E-2 1A . ... : C-3 14 . ... : F-# 1F . ... : ... .. . ...
ROW 1A : ... .. . ... : G-2 1A . ... : ... .. . ... : E-# 1F . ... : C-3 14 . ...
ROW 1B : G-2 1E . ... : C-3 1A . ... : ... .. . ... : F-# 1F . ... : ... .. . ...
ROW 1C : A-2 1E . ... : E-3 1A . ... : A#1 21 . ... : C-# 19 . ... : E-3 14 . ...
ROW 1D : ... .. . ... : C-3 1A . ... : ... .. . ... : F-# 1F . ... : ... .. . ...
ROW 1E : D-3 1E . ... : G-2 1A . ... : C-2 21 . ... : B-# 19 . ... : ... .. . ...
ROW 1F : ... .. . ... : E-2 1A . ... : ... .. . ... : F-# 1F . ... : ... .. . ...
ROW 20 : ... .. . ... : D-2 1A . ... : D-2 21 . ... : B-# 28 . ... : C-3 14 . ...
ROW 21 : ... .. . ... : F-2 1A . ... : ... .. . ... : F-# 1F . ... : ... .. . ...
ROW 22 : ... .. . ... : A-2 1A . ... : D-3 14 . ... : E-# 1F . ... : C-3 14 . ...
ROW 23 : ... .. . ... : D-3 1A . ... : ... .. . ... : F-# 1F . ... : ... .. . ...
ROW 24 : ... .. . ... : F-3 1A . ... : ... .. . ... : D-# 1F . ... : E-3 14 . ...
ROW 25 : ... .. . ... : D-3 1A . ... : D-3 14 . ... : F-# 1F . ... : ... .. . ...
ROW 26 : ... .. . ... : A-2 1A . ... : ... .. . ... : E-# 1F . ... : D-3 14 . ...
ROW 27 : ... .. . ... : F-2 1A . ... : ... .. . ... : F-# 1F . ... : D-3 14 . ...
ROW 28 : ... .. . ... : D-2 1A . ... : C-3 14 . ... : D-# 1F . ... : ... .. . ...
ROW 29 : ... .. . ... : F-2 1A . ... : D-3 14 . ... : F-# 1F . ... : ... .. . ...
ROW 2A : ... .. . ... : A-2 1A . ... : ... .. . ... : E-# 1F . ... : D-3 14 . ...
ROW 2B : ... .. . ... : D-3 1A . ... : ... .. . ... : F-# 1F . ... : ... .. . ...
ROW 2C : ... .. . ... : F-3 1A . ... : D-3 14 . ... : D-# 1F . ... : E-3 14 . ...
ROW 2D : ... .. . ... : D-3 1A . ... : ... .. . ... : F-# 1F . ... : ... .. . ...
ROW 2E : ... .. . ... : A-2 1A . ... : C-2 21 . ... : C-# 19 . ... : C-3 14 . ...
ROW 2F : ... .. . ... : F-2 1A . ... : ... .. . ... : C-# 19 . ... : ... .. . ...
ROW 30 : ... .. . ... : D-2 1A . ... : D-2 21 . ... : D-# 17 . ... : C-3 14 . ...
ROW 31 : ... .. . ... : F-2 1A . ... : ... .. . ... : ... .. . ... : ... .. . ...
ROW 32 : ... .. . ... : A-2 1A . ... : ... .. . ... : ... .. . ... : D-3 14 . ...
ROW 33 : ... .. . ... : D-3 1A . ... : ... .. . ... : ... .. . ... : D-3 14 . ...
ROW 34 : ... .. . ... : F-3 1A . ... : A-1 21 . ... : ... .. . ... : ... .. . ...
ROW 35 : ... .. . ... : D-3 1A . ... : F-1 21 . ... : ... .. . ... : ... .. . ...
ROW 36 : ... .. . ... : A-2 1A . ... : D-1 21 . ... : ... .. . ... : D-3 14 . ...
ROW 37 : ... .. . ... : F-2 1A . ... : --- .. . ... : ... .. . ... : ... .. . ...
ROW 38 : ... .. . ... : D-3 1A . ... : ... .. . ... : ... .. . ... : D-3 14 . ...
ROW 39 : ... .. . ... : ... .. . ... : ... .. . ... : ... .. . ... : D-3 14 . ...
ROW 3A : ... .. . ... : D-3 1B . ... : ... .. . ... : ... .. . ... : ... .. . ...
ROW 3B : ... .. . ... : ... .. . ... : ... .. . ... : ... .. . ... : ... .. . ...
ROW 3C : ... .. . ... : --- .. . ... : ... .. . ... : ... .. . ... : E-3 14 . ...
ROW 3D : ... .. . ... : ... .. . ... : ... .. . ... : ... .. . ... : ... .. . ...
ROW 3E : ... .. . ... : ... .. . ... : ... .. . ... : ... .. . ... : ... .. . ...
ROW 3F : ... .. . ... : ... .. . ... : ... .. . ... : ... .. . ... : ... .. . ...

PATTERN 08
ROW 00 : D-2 1A . ... : D-2 1C . ... : D-2 21 . ... : D-# 1F . ... : C-3 14 . ...
ROW 01 : ... .. . ... : ... .. . ... : ... .. . ... : F-# 1F . ... : ... .. . ...
ROW 02 : D-2 1B . ... : D-2 1D . ... : D-3 14 . ... : E-# 1F . ... : ... .. . ...
ROW 03 : ... .. . ... : ... .. . ... : ... .. . ... : F-# 1F . ... : ... .. . ...
ROW 04 : D-2 1A . ... : D-3 1C . ... : ... .. . ... : D-# 1F . ... : E-3 14 . ...
ROW 05 : A-2 1A . ... : A-3 1C . ... : D-3 14 . ... : F-# 1F . ... : ... .. . ...
ROW 06 : D-3 1A . ... : D-4 1C . ... : ... .. . ... : E-# 1F . ... : ... .. . ...
ROW 07 : G-3 1A . ... : G-4 1C . ... : ... .. . ... : F-# 1F . ... : C-3 14 . ...
ROW 08 : A-3 1A . ... : A-4 1C . ... : C-3 14 . ... : D-# 1F . ... : C-3 14 . ...
ROW 09 : D-3 1E . ... : D-4 1D . ... : D-3 14 . ... : F-# 1F . ... : ... .. . ...
ROW 0A : G-3 1E . ... : G-4 1D . ... : ... .. . ... : E-# 1F . ... : ... .. . ...
ROW 0B : A-3 1E . ... : A-4 1D . ... : ... .. . ... : F-# 1F . ... : ... .. . ...
ROW 0C : C-4 1E . ... : D-3 1B . ... : D-3 14 . ... : D-# 1F . ... : E-3 14 . ...
ROW 0D : ... .. . ... : G-3 1B . ... : ... .. . ... : F-# 1F . ... : ... .. . ...
ROW 0E : A-3 1E . ... : C-4 25 . ... : C-2 21 . ... : C-# 19 . ... : C-3 14 . ...
ROW 0F : ... .. . ... : ... .. . ... : ... .. . ... : C-# 19 . ... : ... .. . ...
ROW 10 : ... .. . ... : A-3 25 . ... : D-2 21 . ... : C-# 28 . ... : C-3 14 . ...
ROW 11 : ... .. . ... : ... .. . ... : ... .. . ... : C-# 28 . ... : ... .. . ...
ROW 12 : ... .. . ... : ... .. . ... : D-3 14 . ... : E-# 1F . ... : ... .. . ...
ROW 13 : ... .. . ... : ... .. . ... : ... .. . ... : F-# 1F . ... : ... .. . ...
ROW 14 : C-4 1E . ... : ... .. . ... : ... .. . ... : D-# 1F . ... : E-3 14 . ...
ROW 15 : ... .. . ... : ... .. . ... : D-3 14 . ... : F-# 1F . ... : ... .. . ...
ROW 16 : ... .. . ... : C-4 25 . ... : ... .. . ... : E-# 1F . ... : ... .. . ...
ROW 17 : ... .. . ... : ... .. . ... : ... .. . ... : F-# 1F . ... : C-3 14 . ...
ROW 18 : ... .. . ... : ... .. . ... : C-3 14 . ... : D-# 1F . ... : C-3 14 . ...
ROW 19 : ... .. . ... : ... .. . ... : D-3 14 . ... : F-# 1F . ... : ... .. . ...
ROW 1A : ... .. . ... : ... .. . ... : ... .. . ... : E-# 1F . ... : ... .. . ...
ROW 1B : ... .. . ... : ... .. . ... : ... .. . ... : F-# 1F . ... : ... .. . ...
ROW 1C : ... .. . ... : ... .. . ... : F-3 14 . ... : C-# 19 . ... : E-3 14 . ...
ROW 1D : ... .. . ... : ... .. . ... : ... .. . ... : F-# 1F . ... : ... .. . ...
ROW 1E : ... .. . ... : ... .. . ... : E-3 14 . ... : B-# 19 . ... : ... .. . ...
ROW 1F : ... .. . ... : ... .. . ... : ... .. . ... : F-# 1F . ... : ... .. . ...
ROW 20 : ... .. . ... : ... .. . ... : F-2 21 . ... : B-# 28 . ... : C-3 14 . ...
ROW 21 : ... .. . ... : ... .. . ... : ... .. . ... : F-# 1F . ... : ... .. . ...
ROW 22 : ... .. . ... : ... .. . ... : F-3 14 . ... : E-# 1F . ... : ... .. . ...
ROW 23 : ... .. . ... : ... .. . ... : ... .. . ... : F-# 1F . ... : ... .. . ...
ROW 24 : A-3 1A . ... : A-4 1C . ... : ... .. . ... : D-# 1F . ... : E-3 14 . ...
ROW 25 : F-3 1A . ... : F-4 1C . ... : F-3 14 . ... : F-# 1F . ... : ... .. . ...
ROW 26 : D-3 1A . ... : D-4 1C . ... : ... .. . ... : E-# 1F . ... : ... .. . ...
ROW 27 : F-3 1A . ... : F-4 1C . ... : ... .. . ... : F-# 1F . ... : C-3 14 . ...
ROW 28 : A-3 1A . ... : A-4 1C . ... : E-3 14 . ... : D-# 1F . ... : C-3 14 . ...
ROW 29 : D-3 1B . ... : D-4 1D . ... : F-3 14 . ... : F-# 1F . ... : ... .. . ...
ROW 2A : D-3 1E . ... : F-4 1D . ... : ... .. . ... : E-# 1F . ... : ... .. . ...
ROW 2B : F-3 1E . ... : A-4 1D . ... : ... .. . ... : F-# 1F . ... : ... .. . ...
ROW 2C : A-3 1E . ... : D-4 1B . ... : F-3 14 . ... : D-# 1F . ... : E-3 14 . ...
ROW 2D : ... .. . ... : F-4 1B . ... : ... .. . ... : F-# 1F . ... : ... .. . ...
ROW 2E : B-3 1E . ... : A-3 25 . ... : F-2 21 . ... : C-# 19 . ... : C-3 14 . ...
ROW 2F : ... .. . ... : ... .. . ... : ... .. . ... : C-# 19 . ... : ... .. . ...
ROW 30 : ... .. . ... : B-3 25 . ... : G-2 21 . ... : C-# 28 . ... : C-3 14 . ...
ROW 31 : ... .. . ... : ... .. . ... : ... .. . ... : C-# 28 . ... : ... .. . ...
ROW 32 : ... .. . ... : ... .. . ... : G-3 14 . ... : E-# 1F . ... : ... .. . ...
ROW 33 : ... .. . ... : ... .. . ... : ... .. . ... : F-# 1F . ... : ... .. . ...
ROW 34 : ... .. . ... : ... .. . ... : ... .. . ... : D-# 1F . ... : E-3 14 . ...
ROW 35 : ... .. . ... : ... .. . ... : G-3 14 . ... : F-# 1F . ... : ... .. . ...
ROW 36 : ... .. . ... : ... .. . ... : ... .. . ... : E-# 1F . ... : ... .. . ...
ROW 37 : ... .. . ... : ... .. . ... : ... .. . ... : F-# 1F . ... : C-3 14 . ...
ROW 38 : ... .. . ... : ... .. . ... : G-3 14 . ... : D-# 1F . ... : C-3 14 . ...
ROW 39 : ... .. . ... : ... .. . ... : ... .. . ... : F-# 1F . ... : ... .. . ...
ROW 3A : ... .. . ... : ... .. . ... : ... .. . ... : E-# 1F . ... : ... .. . ...
ROW 3B : ... .. . ... : ... .. . ... : ... .. . ... : F-# 1F . ... : ... .. . ...
ROW 3C : G-2 1A . ... : G-2 1C . ... : G-2 21 . ... : F-# 1F . ... : E-3 14 . ...
ROW 3D : ... .. . ... : ... .. . ... : ... .. . ... : F-# 1F . ... : E-3 14 . ...
ROW 3E : F-2 1A . ... : F-2 1C . ... : F-2 21 . ... : F-# 1F . ... : E-3 14 . ...
ROW 3F : ... .. . ... : ... .. . ... : ... .. . ... : F-# 1F . ... : E-3 14 . ...

PATTERN 09
ROW 00 : D-1 15 . ... : --- .. . ... : D-1 21 . ... : --- .. . ... : C-3 14 . ...
ROW 01 : ... .. . ... : ... .. . ... : ... .. . ... : ... .. . ... : ... .. . ...
ROW 02 : ... .. . ... : ... .. . ... : ... .. . ... : D-# 19 . ... : ... .. . ...
ROW 03 : ... .. . ... : ... .. . ... : ... .. . ... : ... .. . ... : ... .. . ...
ROW 04 : ... .. . ... : ... .. . ... : --- .. . ... : D-# 28 . ... : D-3 14 . ...
ROW 05 : ... .. . ... : ... .. . ... : ... .. . ... : D-# 19 . ... : ... .. . ...
ROW 06 : ... .. . ... : ... .. . ... : ... .. . ... : ... .. . ... : ... .. . ...
ROW 07 : ... .. . ... : ... .. . ... : ... .. . ... : D-# 28 . ... : ... .. . ...
ROW 08 : ... .. . ... : ... .. . ... : ... .. . ... : D-# 19 . ... : ... .. . ...
ROW 09 : ... .. . ... : ... .. . ... : ... .. . ... : D-# 19 . ... : ... .. . ...
ROW 0A : ... .. . ... : ... .. . ... : ... .. . ... : ... .. . ... : ... .. . ...
ROW 0B : ... .. . ... : ... .. . ... : ... .. . ... : D-# 28 . ... : ... .. . ...
ROW 0C : ... .. . ... : D-1 16 . ... : ... .. . ... : D-# 19 . ... : D-3 14 . ...
ROW 0D : ... .. . ... : ... .. . ... : ... .. . ... : ... .. . ... : ... .. . ...
ROW 0E : ... .. . ... : ... .. . ... : C-1 21 . ... : ... .. . ... : C-3 14 . ...
ROW 0F : ... .. . ... : ... .. . ... : ... .. . ... : ... .. . ... : ... .. . ...
ROW 10 : ... .. . ... : ... .. . ... : D-1 21 . ... : D-# 28 . ... : C-3 14 . ...
ROW 11 : ... .. . ... : ... .. . ... : ... .. . ... : ... .. . ... : ... .. . ...
ROW 12 : ... .. . ... : ... .. . ... : ... .. . ... : D-# 19 . ... : ... .. . ...
ROW 13 : ... .. . ... : ... .. . ... : ... .. . ... : ... .. . ... : ... .. . ...
ROW 14 : ... .. . ... : ... .. . ... : --- .. . ... : D-# 28 . ... : D-3 14 . ...
ROW 15 : ... .. . ... : ... .. . ... : ... .. . ... : D-# 19 . ... : ... .. . ...
ROW 16 : ... .. . ... : ... .. . ... : ... .. . ... : ... .. . ... : ... .. . ...
ROW 17 : ... .. . ... : ... .. . ... : ... .. . ... : D-# 28 . ... : ... .. . ...
ROW 18 : ... .. . ... : ... .. . ... : ... .. . ... : D-# 19 . ... : ... .. . ...
ROW 19 : ... .. . ... : ... .. . ... : ... .. . ... : D-# 19 . ... : ... .. . ...
ROW 1A : ... .. . ... : ... .. . ... : ... .. . ... : ... .. . ... : ... .. . ...
ROW 1B : ... .. . ... : ... .. . ... : ... .. . ... : D-# 28 . ... : ... .. . ...
ROW 1C : ... .. . ... : ... .. . ... : ... .. . ... : B-# 18 . ... : D-3 14 . ...
ROW 1D : ... .. . ... : ... .. . ... : ... .. . ... : ... .. . ... : ... .. . ...
ROW 1E : ... .. . ... : ... .. . ... : ... .. . ... : 9-# 28 . ... : ... .. . ...
ROW 1F : ... .. . ... : ... .. . ... : ... .. . ... : ... .. . ... : ... .. . ...
ROW 20 : D-1 15 . ... : ... .. . ... : D-1 21 . ... : ... .. . ... : C-3 14 . ...
ROW 21 : ... .. . ... : ... .. . ... : ... .. . ... : ... .. . ... : ... .. . ...
ROW 22 : ... .. . ... : ... .. . ... : ... .. . ... : D-# 19 . ... : ... .. . ...
ROW 23 : ... .. . ... : ... .. . ... : ... .. . ... : ... .. . ... : ... .. . ...
ROW 24 : ... .. . ... : ... .. . ... : --- .. . ... : D-# 28 . ... : D-3 14 . ...
ROW 25 : ... .. . ... : ... .. . ... : ... .. . ... : D-# 19 . ... : ... .. . ...
ROW 26 : ... .. . ... : ... .. . ... : ... .. . ... : ... .. . ... : ... .. . ...
ROW 27 : ... .. . ... : ... .. . ... : ... .. . ... : D-# 28 . ... : ... .. . ...
ROW 28 : ... .. . ... : ... .. . ... : ... .. . ... : D-# 19 . ... : ... .. . ...
ROW 29 : ... .. . ... : ... .. . ... : ... .. . ... : D-# 19 . ... : ... .. . ...
ROW 2A : ... .. . ... : ... .. . ... : ... .. . ... : ... .. . ... : ... .. . ...
ROW 2B : ... .. . ... : ... .. . ... : ... .. . ... : D-# 28 . ... : ... .. . ...
ROW 2C : ... .. . ... : D-1 1C . ... : ... .. . ... : D-# 19 . ... : D-3 14 . ...
ROW 2D : ... .. . ... : A-1 1C . ... : ... .. . ... : ... .. . ... : ... .. . ...
ROW 2E : ... .. . ... : D-2 1C . ... : C-1 21 . ... : D-# 28 . ... : C-3 14 . ...
ROW 2F : ... .. . ... : F-2 1C . ... : ... .. . ... : ... .. . ... : ... .. . ...
ROW 30 : D-1 1D . ... : A-2 1C . ... : D-1 21 . ... : ... .. . ... : C-3 14 . ...
ROW 31 : A-1 1D . ... : --- .. . ... : ... .. . ... : ... .. . ... : ... .. . ...
ROW 32 : D-2 1D . ... : ... .. . ... : ... .. . ... : D-# 19 . ... : ... .. . ...
ROW 33 : F-2 1D . ... : ... .. . ... : ... .. . ... : ... .. . ... : ... .. . ...
ROW 34 : A-2 1D . ... : ... .. . ... : --- .. . ... : D-# 28 . ... : D-3 14 . ...
ROW 35 : --- .. . ... : ... .. . ... : ... .. . ... : D-# 19 . ... : ... .. . ...
ROW 36 : ... .. . ... : ... .. . ... : ... .. . ... : ... .. . ... : ... .. . ...
ROW 37 : ... .. . ... : ... .. . ... : ... .. . ... : D-# 28 . ... : ... .. . ...
ROW 38 : F-2 15 . ... : F-2 16 . ... : ... .. . ... : D-# 18 . ... : C-3 14 . ...
ROW 39 : ... .. . ... : ... .. . ... : ... .. . ... : ... .. . ... : ... .. . ...
ROW 3A : ... .. . ... : ... .. . ... : ... .. . ... : ... .. . ... : ... .. . ...
ROW 3B : ... .. . ... : ... .. . ... : ... .. . ... : ... .. . ... : ... .. . ...
ROW 3C : ... .. . ... : ... .. . ... : ... .. . ... : --- .. . ... : E-3 14 . ...
ROW 3D : ... .. . ... : ... .. . ... : ... .. . ... : ... .. . ... : E-3 14 . ...
ROW 3E : ... .. . ... : ... .. . ... : ... .. . ... : ... .. . ... : E-3 14 . ...
ROW 3F : ... .. . B02 : ... .. . ... : ... .. . ... : ... .. . ... : E-3 14 . ...

TRACK  64   6 150 "LanMaster Credits"
COLUMNS : 1 1 1 1 1

ORDER 00 : 00 00 00 00 00
ORDER 01 : 01 01 01 01 01
ORDER 02 : 02 02 02 02 02
ORDER 03 : 03 03 03 03 03
ORDER 04 : 04 04 04 04 04
ORDER 05 : 05 05 05 05 05
ORDER 06 : 06 06 06 06 06
ORDER 07 : 07 07 07 07 07

PATTERN 00
ROW 00 : ... .. . ... : C-2 15 . ... : ... .. . ... : F-# 1F . ... : ... .. . ...
ROW 01 : ... .. . ... : ... .. . ... : ... .. . ... : ... .. . ... : ... .. . ...
ROW 02 : C-3 1A . ... : ... .. . ... : ... .. . ... : F-# 1F . ... : ... .. . ...
ROW 03 : ... .. . ... : ... .. . ... : ... .. . ... : F-# 1F . ... : ... .. . ...
ROW 04 : C-3 1B . ... : ... .. . ... : ... .. . ... : C-# 19 . ... : ... .. . ...
ROW 05 : C-3 1A . ... : ... .. . ... : ... .. . ... : ... .. . ... : ... .. . ...
ROW 06 : ... .. . ... : ... .. . ... : ... .. . ... : D-# 19 . ... : ... .. . ...
ROW 07 : C-3 1B . ... : ... .. . ... : ... .. . ... : F-# 1F . ... : ... .. . ...
ROW 08 : C-3 1A . ... : ... .. . ... : ... .. . ... : F-# 1F . ... : ... .. . ...
ROW 09 : ... .. . ... : ... .. . ... : ... .. . ... : ... .. . ... : ... .. . ...
ROW 0A : C-3 1B . ... : ... .. . ... : ... .. . ... : F-# 1F . ... : ... .. . ...
ROW 0B : ... .. . ... : ... .. . ... : ... .. . ... : F-# 1F . ... : ... .. . ...
ROW 0C : C-3 1A . ... : ... .. . ... : ... .. . ... : F-# 1F . ... : ... .. . ...
ROW 0D : ... .. . ... : ... .. . ... : ... .. . ... : ... .. . ... : ... .. . ...
ROW 0E : A-2 1A . ... : ... .. . ... : ... .. . ... : F-# 1F . ... : ... .. . ...
ROW 0F : ... .. . ... : ... .. . ... : ... .. . ... : F-# 1F . ... : ... .. . ...
ROW 10 : C-3 1B . ... : F-2 15 . ... : ... .. . ... : F-# 1F . ... : ... .. . ...
ROW 11 : ... .. . ... : ... .. . ... : ... .. . ... : ... .. . ... : ... .. . ...
ROW 12 : C-3 1A . ... : ... .. . ... : ... .. . ... : F-# 1F . ... : ... .. . ...
ROW 13 : ... .. . ... : ... .. . ... : ... .. . ... : F-# 1F . ... : ... .. . ...
ROW 14 : C-3 1B . ... : ... .. . ... : ... .. . ... : D-# 19 . ... : ... .. . ...
ROW 15 : C-3 1A . ... : ... .. . ... : ... .. . ... : ... .. . ... : ... .. . ...
ROW 16 : ... .. . ... : ... .. . ... : ... .. . ... : C-# 19 . ... : ... .. . ...
ROW 17 : C-3 1B . ... : ... .. . ... : ... .. . ... : F-# 1F . ... : ... .. . ...
ROW 18 : C-3 1A . ... : ... .. . ... : ... .. . ... : F-# 1F . ... : ... .. . ...
ROW 19 : ... .. . ... : ... .. . ... : ... .. . ... : ... .. . ... : ... .. . ...
ROW 1A : C-3 1B . ... : ... .. . ... : ... .. . ... : F-# 1F . ... : ... .. . ...
ROW 1B : ... .. . ... : ... .. . ... : ... .. . ... : F-# 1F . ... : ... .. . ...
ROW 1C : A-2 1A . ... : ... .. . ... : ... .. . ... : B-# 19 . ... : ... .. . ...
ROW 1D : ... .. . ... : ... .. . ... : ... .. . ... : ... .. . ... : ... .. . ...
ROW 1E : G-2 1A . ... : ... .. . ... : ... .. . ... : F-# 1F . ... : ... .. . ...
ROW 1F : ... .. . ... : ... .. . ... : ... .. . ... : F-# 1F . ... : ... .. . ...
ROW 20 : A-2 1B . ... : G-2 15 . ... : ... .. . ... : F-# 1F . ... : ... .. . ...
ROW 21 : ... .. . ... : ... .. . ... : ... .. . ... : ... .. . ... : ... .. . ...
ROW 22 : G-2 1A . ... : ... .. . ... : ... .. . ... : F-# 1F . ... : ... .. . ...
ROW 23 : ... .. . ... : ... .. . ... : ... .. . ... : F-# 1F . ... : ... .. . ...
ROW 24 : G-2 1B . ... : ... .. . ... : ... .. . ... : C-# 19 . ... : ... .. . ...
ROW 25 : G-2 1A . ... : ... .. . ... : ... .. . ... : ... .. . ... : ... .. . ...
ROW 26 : ... .. . ... : ... .. . ... : ... .. . ... : D-# 19 . ... : ... .. . ...
ROW 27 : G-2 1B . ... : ... .. . ... : ... .. . ... : F-# 1F . ... : ... .. . ...
ROW 28 : G-2 1A . ... : ... .. . ... : ... .. . ... : F-# 1F . ... : ... .. . ...
ROW 29 : ... .. . ... : ... .. . ... : ... .. . ... : ... .. . ... : ... .. . ...
ROW 2A : G-2 1B . ... : ... .. . ... : ... .. . ... : F-# 1F . ... : ... .. . ...
ROW 2B : ... .. . ... : ... .. . ... : ... .. . ... : F-# 1F . ... : ... .. . ...
ROW 2C : G-2 1A . ... : ... .. . ... : ... .. . ... : F-# 1F . ... : ... .. . ...
ROW 2D : ... .. . ... : ... .. . ... : ... .. . ... : ... .. . ... : ... .. . ...
ROW 2E : A-2 1A . ... : ... .. . ... : ... .. . ... : F-# 1F . ... : ... .. . ...
ROW 2F : ... .. . ... : ... .. . ... : ... .. . ... : F-# 1F . ... : ... .. . ...
ROW 30 : G-2 1B . ... : C-3 15 . ... : ... .. . ... : F-# 1F . ... : ... .. . ...
ROW 31 : ... .. . ... : ... .. . ... : ... .. . ... : ... .. . ... : ... .. . ...
ROW 32 : C-1 1A . ... : ... .. . ... : ... .. . ... : F-# 1F . ... : ... .. . ...
ROW 33 : E-1 1A . ... : ... .. . ... : ... .. . ... : F-# 1F . ... : ... .. . ...
ROW 34 : G-1 1A . ... : ... .. . ... : ... .. . ... : D-# 19 . ... : ... .. . ...
ROW 35 : C-2 1A . ... : ... .. . ... : ... .. . ... : ... .. . ... : ... .. . ...
ROW 36 : E-2 1A . ... : ... .. . ... : ... .. . ... : C-# 19 . ... : ... .. . ...
ROW 37 : G-2 1A . ... : ... .. . ... : ... .. . ... : F-# 1F . ... : ... .. . ...
ROW 38 : C-3 1A . ... : ... .. . ... : ... .. . ... : F-# 1F . ... : ... .. . ...
ROW 39 : E-3 1A . ... : ... .. . ... : ... .. . ... : ... .. . ... : ... .. . ...
ROW 3A : G-3 1A . ... : ... .. . ... : ... .. . ... : F-# 1F . ... : ... .. . ...
ROW 3B : E-3 1A . ... : ... .. . ... : ... .. . ... : F-# 1F . ... : ... .. . ...
ROW 3C : C-3 1B . ... : ... .. . ... : ... .. . ... : B-# 19 . ... : ... .. . ...
ROW 3D : E-3 1B . ... : ... .. . ... : ... .. . ... : ... .. . ... : ... .. . ...
ROW 3E : G-3 1B . ... : ... .. . ... : ... .. . ... : F-# 1F . ... : ... .. . ...
ROW 3F : E-3 1B . ... : ... .. . ... : ... .. . ... : F-# 1F . ... : ... .. . ...

PATTERN 01
ROW 00 : --- .. . ... : C-2 15 . ... : ... .. . ... : F-# 1F . ... : ... .. . ...
ROW 01 : ... .. . ... : ... .. . ... : ... .. . ... : ... .. . ... : ... .. . ...
ROW 02 : C-3 1A . ... : ... .. . ... : ... .. . ... : F-# 1F . ... : ... .. . ...
ROW 03 : ... .. . ... : ... .. . ... : ... .. . ... : F-# 1F . ... : ... .. . ...
ROW 04 : C-3 1B . ... : ... .. . ... : ... .. . ... : C-# 19 . ... : ... .. . ...
ROW 05 : C-3 1A . ... : ... .. . ... : ... .. . ... : ... .. . ... : ... .. . ...
ROW 06 : ... .. . ... : ... .. . ... : ... .. . ... : D-# 19 . ... : ... .. . ...
ROW 07 : C-3 1B . ... : ... .. . ... : ... .. . ... : F-# 1F . ... : ... .. . ...
ROW 08 : C-3 1A . ... : ... .. . ... : ... .. . ... : F-# 1F . ... : ... .. . ...
ROW 09 : ... .. . ... : ... .. . ... : ... .. . ... : ... .. . ... : ... .. . ...
ROW 0A : C-3 1B . ... : ... .. . ... : ... .. . ... : F-# 1F . ... : ... .. . ...
ROW 0B : ... .. . ... : ... .. . ... : ... .. . ... : F-# 1F . ... : ... .. . ...
ROW 0C : C-3 1A . ... : ... .. . ... : ... .. . ... : F-# 1F . ... : ... .. . ...
ROW 0D : ... .. . ... : ... .. . ... : ... .. . ... : ... .. . ... : ... .. . ...
ROW 0E : A-2 1A . ... : ... .. . ... : ... .. . ... : F-# 1F . ... : ... .. . ...
ROW 0F : ... .. . ... : ... .. . ... : ... .. . ... : F-# 1F . ... : ... .. . ...
ROW 10 : C-3 1B . ... : F-2 15 . ... : ... .. . ... : F-# 1F . ... : ... .. . ...
ROW 11 : ... .. . ... : ... .. . ... : ... .. . ... : ... .. . ... : ... .. . ...
ROW 12 : C-3 1A . ... : ... .. . ... : ... .. . ... : F-# 1F . ... : ... .. . ...
ROW 13 : ... .. . ... : ... .. . ... : ... .. . ... : F-# 1F . ... : ... .. . ...
ROW 14 : C-3 1B . ... : ... .. . ... : ... .. . ... : D-# 19 . ... : ... .. . ...
ROW 15 : C-3 1A . ... : ... .. . ... : ... .. . ... : ... .. . ... : ... .. . ...
ROW 16 : ... .. . ... : ... .. . ... : ... .. . ... : C-# 19 . ... : ... .. . ...
ROW 17 : C-3 1B . ... : ... .. . ... : ... .. . ... : F-# 1F . ... : ... .. . ...
ROW 18 : C-3 1A . ... : ... .. . ... : ... .. . ... : F-# 1F . ... : ... .. . ...
ROW 19 : ... .. . ... : ... .. . ... : ... .. . ... : ... .. . ... : ... .. . ...
ROW 1A : C-3 1B . ... : ... .. . ... : ... .. . ... : F-# 1F . ... : ... .. . ...
ROW 1B : ... .. . ... : ... .. . ... : ... .. . ... : F-# 1F . ... : ... .. . ...
ROW 1C : C-3 1A . ... : ... .. . ... : ... .. . ... : B-# 19 . ... : ... .. . ...
ROW 1D : ... .. . ... : ... .. . ... : ... .. . ... : ... .. . ... : ... .. . ...
ROW 1E : D-3 1A . ... : ... .. . ... : ... .. . ... : F-# 1F . ... : ... .. . ...
ROW 1F : ... .. . ... : ... .. . ... : ... .. . ... : F-# 1F . ... : ... .. . ...
ROW 20 : C-3 1B . ... : G-2 15 . ... : ... .. . ... : F-# 1F . ... : ... .. . ...
ROW 21 : ... .. . ... : ... .. . ... : ... .. . ... : ... .. . ... : ... .. . ...
ROW 22 : D-3 1A . ... : ... .. . ... : ... .. . ... : F-# 1F . ... : ... .. . ...
ROW 23 : ... .. . ... : ... .. . ... : ... .. . ... : F-# 1F . ... : ... .. . ...
ROW 24 : D-3 1B . ... : ... .. . ... : ... .. . ... : C-# 19 . ... : ... .. . ...
ROW 25 : D-3 1A . ... : ... .. . ... : ... .. . ... : ... .. . ... : ... .. . ...
ROW 26 : ... .. . ... : ... .. . ... : ... .. . ... : D-# 19 . ... : ... .. . ...
ROW 27 : D-3 1B . ... : ... .. . ... : ... .. . ... : F-# 1F . ... : ... .. . ...
ROW 28 : C-3 1A . ... : ... .. . ... : ... .. . ... : F-# 1F . ... : ... .. . ...
ROW 29 : ... .. . ... : ... .. . ... : ... .. . ... : ... .. . ... : ... .. . ...
ROW 2A : D-3 1B . ... : ... .. . ... : ... .. . ... : F-# 1F . ... : ... .. . ...
ROW 2B : ... .. . ... : ... .. . ... : ... .. . ... : F-# 1F . ... : ... .. . ...
ROW 2C : B-2 1A . ... : ... .. . ... : ... .. . ... : F-# 1F . ... : ... .. . ...
ROW 2D : ... .. . ... : ... .. . ... : ... .. . ... : ... .. . ... : ... .. . ...
ROW 2E : C-3 1A . ... : ... .. . ... : ... .. . ... : F-# 1F . ... : ... .. . ...
ROW 2F : ... .. . ... : ... .. . ... : ... .. . ... : F-# 1F . ... : ... .. . ...
ROW 30 : C-2 16 . ... : C-2 15 . ... : ... .. . ... : F-# 1F . ... : ... .. . ...
ROW 31 : ... .. . ... : ... .. . ... : ... .. . ... : ... .. . ... : ... .. . ...
ROW 32 : ... .. . ... : ... .. . ... : ... .. . ... : F-# 1F . ... : ... .. . ...
ROW 33 : ... .. . ... : ... .. . ... : ... .. . ... : F-# 1F . ... : ... .. . ...
ROW 34 : ... .. . ... : ... .. . ... : ... .. . ... : D-# 19 . ... : ... .. . ...
ROW 35 : ... .. . ... : ... .. . ... : ... .. . ... : ... .. . ... : ... .. . ...
ROW 36 : ... .. . ... : ... .. . ... : ... .. . ... : C-# 19 . ... : ... .. . ...
ROW 37 : ... .. . ... : ... .. . ... : ... .. . ... : F-# 1F . ... : ... .. . ...
ROW 38 : ... .. . ... : ... .. . ... : ... .. . ... : F-# 1F . ... : ... .. . ...
ROW 39 : ... .. . ... : ... .. . ... : ... .. . ... : ... .. . ... : ... .. . ...
ROW 3A : ... .. . ... : ... .. . ... : ... .. . ... : F-# 1F . ... : ... .. . ...
ROW 3B : ... .. . ... : ... .. . ... : ... .. . ... : F-# 1F . ... : ... .. . ...
ROW 3C : ... .. . ... : ... .. . ... : ... .. . ... : B-# 19 . ... : E-3 14 . ...
ROW 3D : ... .. . ... : ... .. . ... : ... .. . ... : ... .. . ... : E-3 14 . ...
ROW 3E : ... .. . ... : ... .. . ... : ... .. . ... : F-# 1F . ... : E-3 14 . ...
ROW 3F : ... .. . ... : ... .. . ... : ... .. . ... : F-# 1F . ... : E-3 14 . ...

PATTERN 02
ROW 00 : ... .. . ... : C-1 1A . ... : C-2 14 . ... : F-# 1F . ... : C-3 14 . ...
ROW 01 : ... .. . ... : ... .. . ... : ... .. . ... : ... .. . ... : ... .. . ...
ROW 02 : C-3 1A . ... : C-1 1A . ... : C-2 14 . ... : F-# 1F . ... : ... .. . ...
ROW 03 : ... .. . ... : C-2 1A . ... : C-3 14 . ... : F-# 1F . ... : C-3 14 . ...
ROW 04 : C-3 1B . ... : ... .. . ... : ... .. . ... : C-# 19 . ... : E-3 14 . ...
ROW 05 : C-3 1A . ... : C-2 1B . ... : ... .. . ... : ... .. . ... : ... .. . ...
ROW 06 : ... .. . ... : C-1 1A . ... : C-2 14 . ... : D-# 19 . ... : C-3 14 . ...
ROW 07 : C-3 1B . ... : ... .. . ... : ... .. . ... : F-# 1F . ... : C-3 14 . ...
ROW 08 : C-3 1A . ... : C-2 1A . ... : C-3 14 . ... : F-# 1F . ... : ... .. . ...
ROW 09 : ... .. . ... : C-1 1A . ... : C-2 14 . ... : ... .. . ... : ... .. . ...
ROW 0A : C-3 1B . ... : ... .. . ... : ... .. . ... : F-# 1F . ... : C-3 14 . ...
ROW 0B : ... .. . ... : C-1 1A . ... : C-2 14 . ... : F-# 1F . ... : ... .. . ...
ROW 0C : C-3 1A . ... : ... .. . ... : ... .. . ... : F-# 1F . ... : E-3 14 . ...
ROW 0D : ... .. . ... : C-1 1B . ... : ... .. . ... : ... .. . ... : ... .. . ...
ROW 0E : A-2 1A . ... : C-1 1A . ... : C-2 14 . ... : F-# 1F . ... : C-3 14 . ...
ROW 0F : ... .. . ... : ... .. . ... : ... .. . ... : F-# 1F . ... : ... .. . ...
ROW 10 : C-3 1B . ... : F-1 1A . ... : F-2 14 . ... : F-# 1F . ... : C-3 14 . ...
ROW 11 : ... .. . ... : ... .. . ... : ... .. . ... : ... .. . ... : ... .. . ...
ROW 12 : C-3 1A . ... : F-1 1A . ... : F-2 14 . ... : F-# 1F . ... : ... .. . ...
ROW 13 : ... .. . ... : F-2 1A . ... : F-3 14 . ... : F-# 1F . ... : C-3 14 . ...
ROW 14 : C-3 1B . ... : ... .. . ... : ... .. . ... : D-# 19 . ... : E-3 14 . ...
ROW 15 : C-3 1A . ... : F-2 1B . ... : ... .. . ... : ... .. . ... : ... .. . ...
ROW 16 : ... .. . ... : F-1 1A . ... : F-2 14 . ... : C-# 19 . ... : C-3 14 . ...
ROW 17 : C-3 1B . ... : ... .. . ... : ... .. . ... : F-# 1F . ... : C-3 14 . ...
ROW 18 : C-3 1A . ... : F-2 1A . ... : F-3 14 . ... : F-# 1F . ... : ... .. . ...
ROW 19 : ... .. . ... : F-1 1A . ... : F-2 14 . ... : ... .. . ... : ... .. . ...
ROW 1A : C-3 1B . ... : ... .. . ... : ... .. . ... : F-# 1F . ... : C-3 14 . ...
ROW 1B : ... .. . ... : F-1 1B . ... : ... .. . ... : F-# 1F . ... : ... .. . ...
ROW 1C : A-2 1A . ... : F-1 1A . ... : F-2 14 . ... : B-# 19 . ... : E-3 14 . ...
ROW 1D : ... .. . ... : ... .. . ... : ... .. . ... : ... .. . ... : ... .. . ...
ROW 1E : G-2 1A . ... : F-1 1B . ... : ... .. . ... : F-# 1F . ... : ... .. . ...
ROW 1F : ... .. . ... : ... .. . ... : ... .. . ... : F-# 1F . ... : ... .. . ...
ROW 20 : A-2 1B . ... : G-1 1A . ... : G-2 14 . ... : F-# 1F . ... : C-3 14 . ...
ROW 21 : ... .. . ... : ... .. . ... : ... .. . ... : ... .. . ... : ... .. . ...
ROW 22 : G-2 1A . ... : G-1 1A . ... : G-2 14 . ... : F-# 1F . ... : ... .. . ...
ROW 23 : ... .. . ... : G-2 1A . ... : G-3 14 . ... : F-# 1F . ... : C-3 14 . ...
ROW 24 : G-2 1B . ... : ... .. . ... : ... .. . ... : C-# 19 . ... : E-3 14 . ...
ROW 25 : G-2 1A . ... : G-2 1B . ... : ... .. . ... : ... .. . ... : ... .. . ...
ROW 26 : ... .. . ... : G-1 1A . ... : G-2 14 . ... : D-# 19 . ... : C-3 14 . ...
ROW 27 : G-2 1B . ... : ... .. . ... : ... .. . ... : F-# 1F . ... : C-3 14 . ...
ROW 28 : G-2 1A . ... : G-2 1A . ... : G-3 14 . ... : F-# 1F . ... : ... .. . ...
ROW 29 : ... .. . ... : G-1 1A . ... : G-2 14 . ... : ... .. . ... : ... .. . ...
ROW 2A : G-2 1B . ... : ... .. . ... : ... .. . ... : F-# 1F . ... : C-3 14 . ...
ROW 2B : ... .. . ... : G-1 1A . ... : G-2 14 . ... : F-# 1F . ... : ... .. . ...
ROW 2C : G-2 1A . ... : ... .. . ... : ... .. . ... : F-# 1F . ... : E-3 14 . ...
ROW 2D : ... .. . ... : G-1 1B . ... : ... .. . ... : ... .. . ... : ... .. . ...
ROW 2E : A-2 1A . ... : G-1 1A . ... : G-2 14 . ... : F-# 1F . ... : C-3 14 . ...
ROW 2F : ... .. . ... : ... .. . ... : ... .. . ... : F-# 1F . ... : ... .. . ...
ROW 30 : G-2 1B . ... : C-1 1A . ... : C-2 14 . ... : F-# 1F . ... : C-3 14 . ...
ROW 31 : ... .. . ... : ... .. . ... : ... .. . ... : ... .. . ... : ... .. . ...
ROW 32 : C-1 1A . ... : C-1 1A . ... : C-2 14 . ... : F-# 1F . ... : ... .. . ...
ROW 33 : E-1 1A . ... : C-2 1A . ... : C-3 14 . ... : F-# 1F . ... : C-3 14 . ...
ROW 34 : G-1 1A . ... : ... .. . ... : ... .. . ... : D-# 19 . ... : E-3 14 . ...
ROW 35 : C-2 1A . ... : C-2 1B . ... : ... .. . ... : ... .. . ... : ... .. . ...
ROW 36 : E-2 1A . ... : C-1 1A . ... : C-2 14 . ... : C-# 19 . ... : C-3 14 . ...
ROW 37 : G-2 1A . ... : ... .. . ... : ... .. . ... : F-# 1F . ... : C-3 14 . ...
ROW 38 : C-3 1A . ... : C-2 1A . ... : C-3 14 . ... : F-# 1F . ... : ... .. . ...
ROW 39 : E-3 1A . ... : C-1 1A . ... : C-2 14 . ... : ... .. . ... : ... .. . ...
ROW 3A : G-3 1A . ... : ... .. . ... : ... .. . ... : F-# 1F . ... : C-3 14 . ...
ROW 3B : E-3 1A . ... : C-1 1B . ... : ... .. . ... : F-# 1F . ... : ... .. . ...
ROW 3C : C-3 1B . ... : C-1 1A . ... : C-2 14 . ... : B-# 19 . ... : E-3 14 . ...
ROW 3D : E-3 1B . ... : ... .. . ... : ... .. . ... : ... .. . ... : ... .. . ...
ROW 3E : G-3 1B . ... : C-1 1B . ... : ... .. . ... : F-# 1F . ... : ... .. . ...
ROW 3F : E-3 1B . ... : ... .. . ... : ... .. . ... : F-# 1F . ... : ... .. . ...

PATTERN 03
ROW 00 : --- .. . ... : C-1 1A . ... : C-2 14 . ... : F-# 1F . ... : C-3 14 . ...
ROW 01 : ... .. . ... : ... .. . ... : ... .. . ... : ... .. . ... : ... .. . ...
ROW 02 : C-3 1A . ... : C-1 1A . ... : C-2 14 . ... : F-# 1F . ... : ... .. . ...
ROW 03 : ... .. . ... : C-2 1A . ... : C-3 14 . ... : F-# 1F . ... : C-3 14 . ...
ROW 04 : C-3 1B . ... : ... .. . ... : ... .. . ... : C-# 19 . ... : E-3 14 . ...
ROW 05 : C-3 1A . ... : C-2 1B . ... : ... .. . ... : ... .. . ... : ... .. . ...
ROW 06 : ... .. . ... : C-1 1A . ... : C-2 14 . ... : D-# 19 . ... : C-3 14 . ...
ROW 07 : C-3 1B . ... : ... .. . ... : ... .. . ... : F-# 1F . ... : C-3 14 . ...
ROW 08 : C-3 1A . ... : C-2 1A . ... : C-3 14 . ... : F-# 1F . ... : ... .. . ...
ROW 09 : ... .. . ... : C-1 1A . ... : C-2 14 . ... : ... .. . ... : ... .. . ...
ROW 0A : C-3 1B . ... : ... .. . ... : ... .. . ... : F-# 1F . ... : C-3 14 . ...
ROW 0B : ... .. . ... : C-1 1A . ... : C-2 14 . ... : F-# 1F . ... : ... .. . ...
ROW 0C : C-3 1A . ... : ... .. . ... : ... .. . ... : F-# 1F . ... : E-3 14 . ...
ROW 0D : ... .. . ... : C-1 1B . ... : ... .. . ... : ... .. . ... : ... .. . ...
ROW 0E : A-2 1A . ... : C-1 1A . ... : C-2 14 . ... : F-# 1F . ... : C-3 14 . ...
ROW 0F : ... .. . ... : ... .. . ... : ... .. . ... : F-# 1F . ... : ... .. . ...
ROW 10 : C-3 1B . ... : F-1 1A . ... : F-2 14 . ... : F-# 1F . ... : C-3 14 . ...
ROW 11 : ... .. . ... : ... .. . ... : ... .. . ... : ... .. . ... : ... .. . ...
ROW 12 : C-3 1A . ... : F-1 1A . ... : F-2 14 . ... : F-# 1F . ... : ... .. . ...
ROW 13 : ... .. . ... : F-2 1A . ... : F-3 14 . ... : F-# 1F . ... : C-3 14 . ...
ROW 14 : C-3 1B . ... : ... .. . ... : ... .. . ... : D-# 19 . ... : E-3 14 . ...
ROW 15 : C-3 1A . ... : F-2 1B . ... : ... .. . ... : ... .. . ... : ... .. . ...
ROW 16 : ... .. . ... : F-1 1A . ... : F-2 14 . ... : C-# 19 . ... : C-3 14 . ...
ROW 17 : C-3 1B . ... : ... .. . ... : ... .. . ... : F-# 1F . ... : C-3 14 . ...
ROW 18 : C-3 1A . ... : F-2 1A . ... : F-3 14 . ... : F-# 1F . ... : ... .. . ...
ROW 19 : ... .. . ... : F-1 1A . ... : F-2 14 . ... : ... .. . ... : ... .. . ...
ROW 1A : C-3 1B . ... : ... .. . ... : ... .. . ... : F-# 1F . ... : C-3 14 . ...
ROW 1B : ... .. . ... : F-1 1B . ... : ... .. . ... : F-# 1F . ... : ... .. . ...
ROW 1C : C-3 1A . ... : F-1 1A . ... : F-2 14 . ... : B-# 19 . ... : E-3 14 . ...
ROW 1D : ... .. . ... : ... .. . ... : ... .. . ... : ... .. . ... : ... .. . ...
ROW 1E : D-3 1A . ... : F-1 1B . ... : ... .. . ... : F-# 1F . ... : ... .. . ...
ROW 1F : ... .. . ... : ... .. . ... : ... .. . ... : F-# 1F . ... : ... .. . ...
ROW 20 : C-3 1B . ... : G-1 1A . ... : G-2 14 . ... : F-# 1F . ... : C-3 14 . ...
ROW 21 : ... .. . ... : ... .. . ... : ... .. . ... : ... .. . ... : ... .. . ...
ROW 22 : D-3 1A . ... : G-1 1A . ... : G-2 14 . ... : F-# 1F . ... : ... .. . ...
ROW 23 : ... .. . ... : G-2 1A . ... : G-3 14 . ... : F-# 1F . ... : C-3 14 . ...
ROW 24 : D-3 1B . ... : ... .. . ... : ... .. . ... : C-# 19 . ... : E-3 14 . ...
ROW 25 : D-3 1A . ... : G-2 1B . ... : ... .. . ... : ... .. . ... : ... .. . ...
ROW 26 : ... .. . ... : G-1 1A . ... : G-2 14 . ... : D-# 19 . ... : C-3 14 . ...
ROW 27 : D-3 1B . ... : ... .. . ... : ... .. . ... : F-# 1F . ... : C-3 14 . ...
ROW 28 : C-3 1A . ... : G-2 1A . ... : G-3 14 . ... : F-# 1F . ... : ... .. . ...
ROW 29 : ... .. . ... : G-1 1A . ... : G-2 14 . ... : ... .. . ... : ... .. . ...
ROW 2A : D-3 1B . ... : ... .. . ... : ... .. . ... : F-# 1F . ... : C-3 14 . ...
ROW 2B : ... .. . ... : G-1 1A . ... : G-2 14 . ... : F-# 1F . ... : ... .. . ...
ROW 2C : B-2 1A . ... : ... .. . ... : ... .. . ... : F-# 1F . ... : E-3 14 . ...
ROW 2D : ... .. . ... : G-1 1B . ... : ... .. . ... : ... .. . ... : ... .. . ...
ROW 2E : C-3 1A . ... : G-1 1A . ... : G-2 14 . ... : F-# 1F . ... : C-3 14 . ...
ROW 2F : ... .. . ... : ... .. . ... : ... .. . ... : F-# 1F . ... : ... .. . ...
ROW 30 : C-2 16 . ... : C-1 1A . ... : C-2 21 . ... : D-# 17 . ... : E-3 14 . ...
ROW 31 : ... .. . ... : ... .. . ... : ... .. . ... : ... .. . ... : ... .. . ...
ROW 32 : ... .. . ... : C-1 1A . ... : ... .. . ... : ... .. . ... : ... .. . ...
ROW 33 : ... .. . ... : C-2 1A . ... : ... .. . ... : ... .. . ... : ... .. . ...
ROW 34 : ... .. . ... : ... .. . ... : ... .. . ... : ... .. . ... : C-3 14 . ...
ROW 35 : ... .. . ... : C-2 1B . ... : ... .. . ... : ... .. . ... : ... .. . ...
ROW 36 : ... .. . ... : C-1 1A . ... : ... .. . ... : ... .. . ... : ... .. . ...
ROW 37 : ... .. . ... : ... .. . ... : ... .. . ... : ... .. . ... : ... .. . ...
ROW 38 : ... .. . ... : C-2 1A . ... : A-1 21 . ... : ... .. . ... : C-3 14 . ...
ROW 39 : ... .. . ... : ... .. . ... : F-1 21 . ... : ... .. . ... : ... .. . ...
ROW 3A : ... .. . ... : C-2 1B . ... : D-1 21 . ... : ... .. . ... : ... .. . ...
ROW 3B : ... .. . ... : ... .. . ... : C-1 21 . ... : ... .. . ... : ... .. . ...
ROW 3C : ... .. . ... : --- .. . ... : --- .. . ... : ... .. . ... : D-3 14 . ...
ROW 3D : ... .. . ... : ... .. . ... : ... .. . ... : ... .. . ... : D-3 14 . ...
ROW 3E : ... .. . ... : ... .. . ... : ... .. . ... : ... .. . ... : D-3 14 . ...
ROW 3F : ... .. . ... : ... .. . ... : ... .. . ... : ... .. . ... : D-3 14 . ...

PATTERN 04
ROW 00 : F-1 1A . ... : F-1 1C . ... : F-2 14 . ... : F-# 1F . ... : C-3 14 . ...
ROW 01 : ... .. . ... : ... .. . ... : ... .. . ... : ... .. . ... : ... .. . ...
ROW 02 : A-3 1A . ... : A-3 1C . ... : F-3 14 . ... : D-# 19 . ... : ... .. . ...
ROW 03 : ... .. . ... : F-1 1D . ... : F-2 14 . ... : ... .. . ... : ... .. . ...
ROW 04 : A-3 1B . ... : A-3 1D . ... : ... .. . ... : F-# 1F . ... : D-3 14 . ...
ROW 05 : A-3 1A . ... : A-3 1C . ... : ... .. . ... : ... .. . ... : ... .. . ...
ROW 06 : ... .. . ... : ... .. . ... : F-3 14 . ... : D-# 19 . ... : C-3 14 . ...
ROW 07 : A-3 1B . ... : A-3 1D . ... : ... .. . ... : D-# 19 . ... : ... .. . ...
ROW 08 : G-3 1A . ... : G-3 1C . ... : F-2 14 . ... : F-# 1F . ... : ... .. . ...
ROW 09 : ... .. . ... : ... .. . ... : ... .. . ... : ... .. . ... : ... .. . ...
ROW 0A : A-3 1A . ... : A-3 1D . ... : F-3 14 . ... : D-# 19 . ... : C-3 14 . ...
ROW 0B : G-3 1B . ... : G-3 1C . ... : F-2 14 . ... : ... .. . ... : ... .. . ...
ROW 0C : G-3 1A . ... : G-3 1D . ... : ... .. . ... : F-# 1F . ... : D-3 14 . ...
ROW 0D : A-3 1B . ... : A-3 1C . ... : ... .. . ... : ... .. . ... : ... .. . ...
ROW 0E : A-3 1A . ... : A-3 1D . ... : F-3 14 . ... : F-# 1F . ... : ... .. . ...
ROW 0F : G-3 1B . ... : G-3 1C . ... : ... .. . ... : F-# 1F . ... : ... .. . ...
ROW 10 : G-1 1A . ... : G-1 1C . ... : G-2 14 . ... : F-# 1F . ... : C-3 14 . ...
ROW 11 : ... .. . ... : ... .. . ... : ... .. . ... : ... .. . ... : ... .. . ...
ROW 12 : A-3 1A . ... : A-3 1C . ... : G-3 14 . ... : D-# 19 . ... : ... .. . ...
ROW 13 : ... .. . ... : G-1 1D . ... : G-2 14 . ... : ... .. . ... : ... .. . ...
ROW 14 : A-3 1B . ... : A-3 1D . ... : ... .. . ... : F-# 1F . ... : D-3 14 . ...
ROW 15 : A-3 1A . ... : A-3 1C . ... : ... .. . ... : ... .. . ... : ... .. . ...
ROW 16 : ... .. . ... : ... .. . ... : G-3 14 . ... : D-# 19 . ... : C-3 14 . ...
ROW 17 : A-3 1B . ... : A-3 1D . ... : ... .. . ... : D-# 19 . ... : ... .. . ...
ROW 18 : G-3 1A . ... : G-3 1C . ... : G-2 14 . ... : F-# 1F . ... : ... .. . ...
ROW 19 : A-3 1B . ... : A-3 1D . ... : ... .. . ... : ... .. . ... : ... .. . ...
ROW 1A : A-3 1A . ... : A-3 1C . ... : G-3 14 . ... : D-# 19 . ... : C-3 14 . ...
ROW 1B : G-3 1B . ... : G-3 1D . ... : G-2 14 . ... : ... .. . ... : ... .. . ...
ROW 1C : G-3 1A . ... : G-3 1C . ... : ... .. . ... : F-# 1F . ... : D-3 14 . ...
ROW 1D : A-3 1B . ... : A-3 1D . ... : ... .. . ... : ... .. . ... : ... .. . ...
ROW 1E : A-3 1A . ... : A-3 1C . ... : G-3 14 . ... : F-# 1F . ... : C-3 14 . ...
ROW 1F : G-3 1B . ... : G-3 1D . ... : ... .. . ... : F-# 1F . ... : ... .. . ...
ROW 20 : C-1 1A . ... : C-1 1C . ... : C-2 14 . ... : F-# 1F . ... : C-3 14 . ...
ROW 21 : A-3 1B . ... : ... .. . ... : ... .. . ... : ... .. . ... : ... .. . ...
ROW 22 : G-2 1E . ... : C-1 1D . ... : C-3 14 . ... : D-# 19 . ... : ... .. . ...
ROW 23 : ... .. . ... : ... .. . ... : C-2 14 . ... : ... .. . ... : ... .. . ...
ROW 24 : A-2 1E . ... : G-2 25 . ... : ... .. . ... : F-# 1F . ... : D-3 14 . ...
ROW 25 : ... .. . ... : ... .. . ... : ... .. . ... : ... .. . ... : ... .. . ...
ROW 26 : C-3 1E . ... : A-2 25 . ... : C-3 14 . ... : D-# 19 . ... : C-3 14 . ...
ROW 27 : ... .. . ... : ... .. . ... : ... .. . ... : D-# 19 . ... : ... .. . ...
ROW 28 : ... .. . ... : C-3 25 . ... : C-2 14 . ... : F-# 1F . ... : ... .. . ...
ROW 29 : ... .. . ... : ... .. . ... : ... .. . ... : ... .. . ... : ... .. . ...
ROW 2A : D-3 1E . ... : ... .. . ... : C-3 14 . ... : D-# 19 . ... : C-3 14 . ...
ROW 2B : ... .. . ... : ... .. . ... : C-2 14 . ... : ... .. . ... : ... .. . ...
ROW 2C : C-3 1E . ... : D-3 25 . ... : ... .. . ... : F-# 1F . ... : D-3 14 . ...
ROW 2D : ... .. . ... : ... .. . ... : ... .. . ... : ... .. . ... : ... .. . ...
ROW 2E : ... .. . ... : C-3 25 . ... : C-3 14 . ... : F-# 1F . ... : ... .. . ...
ROW 2F : ... .. . ... : ... .. . ... : ... .. . ... : F-# 1F . ... : ... .. . ...
ROW 30 : D-3 1E . ... : ... .. . ... : A-2 14 . ... : F-# 1F . ... : C-3 14 . ...
ROW 31 : ... .. . ... : ... .. . ... : ... .. . ... : ... .. . ... : ... .. . ...
ROW 32 : ... .. . ... : D-3 25 . ... : A-3 14 . ... : D-# 19 . ... : ... .. . ...
ROW 33 : ... .. . ... : ... .. . ... : A-2 14 . ... : ... .. . ... : ... .. . ...
ROW 34 : ... .. . ... : ... .. . ... : ... .. . ... : F-# 1F . ... : D-3 14 . ...
ROW 35 : ... .. . ... : ... .. . ... : ... .. . ... : ... .. . ... : ... .. . ...
ROW 36 : E-3 1E . ... : ... .. . ... : A-3 14 . ... : D-# 19 . ... : C-3 14 . ...
ROW 37 : ... .. . ... : ... .. . ... : ... .. . ... : D-# 19 . ... : ... .. . ...
ROW 38 : ... .. . ... : E-3 25 . ... : A-2 14 . ... : F-# 1F . ... : ... .. . ...
ROW 39 : ... .. . ... : ... .. . ... : ... .. . ... : ... .. . ... : ... .. . ...
ROW 3A : ... .. . ... : ... .. . ... : A-3 14 . ... : D-# 19 . ... : D-3 14 . ...
ROW 3B : ... .. . ... : ... .. . ... : A-2 14 . ... : ... .. . ... : ... .. . ...
ROW 3C : A-3 1A . ... : ... .. . ... : ... .. . ... : F-# 1F . ... : D-3 14 . ...
ROW 3D : C-4 1A . ... : ... .. . ... : ... .. . ... : ... .. . ... : D-3 14 . ...
ROW 3E : E-4 1A . ... : A-2 1B . ... : A-3 14 . ... : F-# 1F . ... : D-3 14 . ...
ROW 3F : A-3 1A . ... : C-3 1B . ... : ... .. . ... : ... .. . ... : D-3 14 . ...

PATTERN 05
ROW 00 : F-1 1A . ... : F-1 1C . ... : F-2 14 . ... : F-# 1F . ... : C-3 14 . ...
ROW 01 : ... .. . ... : ... .. . ... : ... .. . ... : ... .. . ... : ... .. . ...
ROW 02 : A-3 1A . ... : A-3 1C . ... : F-3 14 . ... : D-# 19 . ... : ... .. . ...
ROW 03 : ... .. . ... : F-1 1D . ... : F-2 14 . ... : ... .. . ... : ... .. . ...
ROW 04 : A-3 1B . ... : A-3 1D . ... : ... .. . ... : F-# 1F . ... : D-3 14 . ...
ROW 05 : A-3 1A . ... : A-3 1C . ... : ... .. . ... : ... .. . ... : ... .. . ...
ROW 06 : ... .. . ... : ... .. . ... : F-3 14 . ... : D-# 19 . ... : C-3 14 . ...
ROW 07 : A-3 1B . ... : A-3 1D . ... : ... .. . ... : D-# 19 . ... : ... .. . ...
ROW 08 : G-3 1A . ... : G-3 1C . ... : F-2 14 . ... : F-# 1F . ... : ... .. . ...
ROW 09 : ... .. . ... : ... .. . ... : ... .. . ... : ... .. . ... : ... .. . ...
ROW 0A : A-3 1A . ... : A-3 1D . ... : F-3 14 . ... : D-# 19 . ... : C-3 14 . ...
ROW 0B : G-3 1B . ... : G-3 1C . ... : F-2 14 . ... : ... .. . ... : ... .. . ...
ROW 0C : G-3 1A . ... : G-3 1D . ... : ... .. . ... : F-# 1F . ... : D-3 14 . ...
ROW 0D : A-3 1B . ... : A-3 1C . ... : ... .. . ... : ... .. . ... : ... .. . ...
ROW 0E : A-3 1A . ... : A-3 1D . ... : F-3 14 . ... : F-# 1F . ... : ... .. . ...
ROW 0F : G-3 1B . ... : G-3 1C . ... : ... .. . ... : F-# 1F . ... : ... .. . ...
ROW 10 : G-1 1A . ... : G-1 1C . ... : G-2 14 . ... : F-# 1F . ... : C-3 14 . ...
ROW 11 : ... .. . ... : ... .. . ... : ... .. . ... : ... .. . ... : ... .. . ...
ROW 12 : A-3 1A . ... : A-3 1C . ... : G-3 14 . ... : D-# 19 . ... : ... .. . ...
ROW 13 : ... .. . ... : G-1 1D . ... : G-2 14 . ... : ... .. . ... : ... .. . ...
ROW 14 : A-3 1B . ... : A-3 1D . ... : ... .. . ... : F-# 1F . ... : D-3 14 . ...
ROW 15 : A-3 1A . ... : A-3 1C . ... : ... .. . ... : ... .. . ... : ... .. . ...
ROW 16 : ... .. . ... : ... .. . ... : G-3 14 . ... : D-# 19 . ... : C-3 14 . ...
ROW 17 : A-3 1B . ... : A-3 1D . ... : ... .. . ... : D-# 19 . ... : ... .. . ...
ROW 18 : G-3 1A . ... : G-3 1C . ... : G-2 14 . ... : F-# 1F . ... : ... .. . ...
ROW 19 : A-3 1B . ... : A-3 1D . ... : ... .. . ... : ... .. . ... : ... .. . ...
ROW 1A : A-3 1A . ... : A-3 1C . ... : G-3 14 . ... : D-# 19 . ... : C-3 14 . ...
ROW 1B : G-3 1B . ... : G-3 1D . ... : G-2 14 . ... : ... .. . ... : ... .. . ...
ROW 1C : G-3 1A . ... : G-3 1C . ... : ... .. . ... : F-# 1F . ... : D-3 14 . ...
ROW 1D : A-3 1B . ... : A-3 1D . ... : ... .. . ... : ... .. . ... : D-3 14 . ...
ROW 1E : A-3 1E . ... : ... .. . ... : G-3 14 . ... : F-# 1F . ... : D-3 14 . ...
ROW 1F : ... .. . ... : ... .. . ... : ... .. . ... : F-# 1F . ... : D-3 14 . ...
ROW 20 : ... .. . ... : A-1 1C . ... : A-2 14 . ... : F-# 1F . ... : C-3 14 . ...
ROW 21 : ... .. . ... : ... .. . ... : ... .. . ... : ... .. . ... : ... .. . ...
ROW 22 : ... .. . ... : A-1 15 . ... : A-3 14 . ... : D-# 19 . ... : ... .. . ...
ROW 23 : ... .. . ... : ... .. . ... : A-2 14 . ... : ... .. . ... : ... .. . ...
ROW 24 : ... .. . ... : ... .. . ... : ... .. . ... : F-# 1F . ... : D-3 14 . ...
ROW 25 : ... .. . ... : ... .. . ... : ... .. . ... : ... .. . ... : ... .. . ...
ROW 26 : ... .. . ... : ... .. . ... : A-3 14 . ... : D-# 19 . ... : C-3 14 . ...
ROW 27 : ... .. . ... : ... .. . ... : ... .. . ... : D-# 19 . ... : ... .. . ...
ROW 28 : ... .. . ... : ... .. . ... : A-2 14 . ... : F-# 1F . ... : ... .. . ...
ROW 29 : ... .. . ... : ... .. . ... : ... .. . ... : ... .. . ... : ... .. . ...
ROW 2A : ... .. . ... : ... .. . ... : A-3 14 . ... : D-# 19 . ... : C-3 14 . ...
ROW 2B : ... .. . ... : ... .. . ... : A-2 14 . ... : ... .. . ... : ... .. . ...
ROW 2C : ... .. . ... : ... .. . ... : ... .. . ... : F-# 1F . ... : D-3 14 . ...
ROW 2D : ... .. . ... : ... .. . ... : ... .. . ... : ... .. . ... : D-3 14 . ...
ROW 2E : ... .. . ... : ... .. . ... : A-3 14 . ... : F-# 1F . ... : D-3 14 . ...
ROW 2F : ... .. . ... : ... .. . ... : ... .. . ... : F-# 1F . ... : D-3 14 . ...
ROW 30 : A-2 1A . ... : ... .. . ... : A-2 14 . ... : F-# 1F . ... : C-3 14 . ...
ROW 31 : C-3 1A . ... : ... .. . ... : ... .. . ... : ... .. . ... : ... .. . ...
ROW 32 : E-3 1A . ... : A-2 1B . ... : A-3 14 . ... : D-# 19 . ... : ... .. . ...
ROW 33 : A-3 1A . ... : C-3 1B . ... : A-2 14 . ... : ... .. . ... : ... .. . ...
ROW 34 : C-4 1A . ... : E-3 1B . ... : ... .. . ... : F-# 1F . ... : D-3 14 . ...
ROW 35 : E-4 1A . ... : A-3 1B . ... : ... .. . ... : ... .. . ... : ... .. . ...
ROW 36 : A-2 1A . ... : C-4 1B . ... : A-3 14 . ... : D-# 19 . ... : D-3 14 . ...
ROW 37 : C-3 1A . ... : E-4 1B . ... : ... .. . ... : D-# 19 . ... : ... .. . ...
ROW 38 : E-3 1A . ... : A-2 1B . ... : A-2 14 . ... : F-# 1F . ... : ... .. . ...
ROW 39 : A-3 1A . ... : C-3 1B . ... : ... .. . ... : ... .. . ... : ... .. . ...
ROW 3A : C-4 1A . ... : E-3 1B . ... : A-3 14 . ... : D-# 19 . ... : E-3 14 . ...
ROW 3B : E-4 1A . ... : A-3 1B . ... : ... .. . ... : ... .. . ... : ... .. . ...
ROW 3C : A-1 1A . ... : C-4 1B . ... : A-2 21 . ... : D-# 1F . ... : E-3 14 . ...
ROW 3D : ... .. . ... : E-4 1B . ... : ... .. . ... : ... .. . ... : ... .. . ...
ROW 3E : G-1 1A . ... : G-1 1C . ... : G-2 21 . ... : D-# 1F . ... : E-3 14 . ...
ROW 3F : ... .. . ... : ... .. . ... : ... .. . ... : ... .. . ... : ... .. . ...

PATTERN 06
ROW 00 : F-1 1A . ... : F-1 1C . ... : F-2 14 . ... : F-# 1F . ... : C-3 14 . ...
ROW 01 : ... .. . ... : ... .. . ... : ... .. . ... : ... .. . ... : ... .. . ...
ROW 02 : A-3 1A . ... : A-3 1C . ... : F-3 14 . ... : D-# 19 . ... : ... .. . ...
ROW 03 : ... .. . ... : F-1 1D . ... : F-2 14 . ... : ... .. . ... : C-3 14 . ...
ROW 04 : A-3 1B . ... : A-3 1D . ... : ... .. . ... : F-# 1F . ... : E-3 14 . ...
ROW 05 : A-3 1A . ... : A-3 1C . ... : ... .. . ... : ... .. . ... : ... .. . ...
ROW 06 : ... .. . ... : ... .. . ... : F-3 14 . ... : D-# 19 . ... : D-3 14 . ...
ROW 07 : A-3 1B . ... : A-3 1D . ... : ... .. . ... : D-# 19 . ... : D-3 14 . ...
ROW 08 : G-3 1A . ... : G-3 1C . ... : F-2 14 . ... : F-# 1F . ... : ... .. . ...
ROW 09 : ... .. . ... : ... .. . ... : ... .. . ... : ... .. . ... : ... .. . ...
ROW 0A : A-3 1A . ... : A-3 1D . ... : F-3 14 . ... : D-# 19 . ... : C-3 14 . ...
ROW 0B : G-3 1B . ... : G-3 1C . ... : F-2 14 . ... : ... .. . ... : ... .. . ...
ROW 0C : G-3 1A . ... : G-3 1D . ... : ... .. . ... : F-# 1F . ... : E-3 14 . ...
ROW 0D : A-3 1B . ... : A-3 1C . ... : ... .. . ... : ... .. . ... : ... .. . ...
ROW 0E : A-3 1A . ... : A-3 1D . ... : F-3 14 . ... : F-# 1F . ... : ... .. . ...
ROW 0F : G-3 1B . ... : G-3 1C . ... : ... .. . ... : F-# 1F . ... : ... .. . ...
ROW 10 : G-1 1A . ... : G-1 1C . ... : G-2 14 . ... : F-# 1F . ... : C-3 14 . ...
ROW 11 : ... .. . ... : ... .. . ... : ... .. . ... : ... .. . ... : ... .. . ...
ROW 12 : A-3 1A . ... : A-3 1C . ... : G-3 14 . ... : D-# 19 . ... : ... .. . ...
ROW 13 : ... .. . ... : G-1 1D . ... : G-2 14 . ... : ... .. . ... : C-3 14 . ...
ROW 14 : A-3 1B . ... : A-3 1D . ... : ... .. . ... : F-# 1F . ... : E-3 14 . ...
ROW 15 : A-3 1A . ... : A-3 1C . ... : ... .. . ... : ... .. . ... : ... .. . ...
ROW 16 : ... .. . ... : ... .. . ... : G-3 14 . ... : D-# 19 . ... : D-3 14 . ...
ROW 17 : A-3 1B . ... : A-3 1D . ... : ... .. . ... : D-# 19 . ... : D-3 14 . ...
ROW 18 : G-3 1A . ... : G-3 1C . ... : G-2 14 . ... : F-# 1F . ... : ... .. . ...
ROW 19 : A-3 1B . ... : A-3 1D . ... : ... .. . ... : ... .. . ... : ... .. . ...
ROW 1A : A-3 1A . ... : A-3 1C . ... : G-3 14 . ... : D-# 19 . ... : C-3 14 . ...
ROW 1B : G-3 1B . ... : G-3 1D . ... : G-2 14 . ... : ... .. . ... : ... .. . ...
ROW 1C : G-3 1A . ... : G-3 1C . ... : ... .. . ... : F-# 1F . ... : E-3 14 . ...
ROW 1D : A-3 1B . ... : A-3 1D . ... : ... .. . ... : ... .. . ... : ... .. . ...
ROW 1E : A-3 1A . ... : A-3 1C . ... : G-3 14 . ... : F-# 1F . ... : D-3 14 . ...
ROW 1F : G-3 1B . ... : G-3 1D . ... : ... .. . ... : F-# 1F . ... : ... .. . ...
ROW 20 : C-1 1A . ... : C-1 1C . ... : C-2 14 . ... : F-# 1F . ... : C-3 14 . ...
ROW 21 : A-3 1B . ... : ... .. . ... : ... .. . ... : ... .. . ... : ... .. . ...
ROW 22 : G-2 1E . ... : C-1 1D . ... : C-3 14 . ... : D-# 19 . ... : ... .. . ...
ROW 23 : ... .. . ... : ... .. . ... : C-2 14 . ... : ... .. . ... : C-3 14 . ...
ROW 24 : A-2 1E . ... : G-2 25 . ... : ... .. . ... : F-# 1F . ... : E-3 14 . ...
ROW 25 : ... .. . ... : ... .. . ... : ... .. . ... : ... .. . ... : ... .. . ...
ROW 26 : C-3 1E . ... : A-2 25 . ... : C-3 14 . ... : D-# 19 . ... : D-3 14 . ...
ROW 27 : ... .. . ... : ... .. . ... : ... .. . ... : D-# 19 . ... : D-3 14 . ...
ROW 28 : ... .. . ... : C-3 25 . ... : C-2 14 . ... : F-# 1F . ... : ... .. . ...
ROW 29 : ... .. . ... : ... .. . ... : ... .. . ... : ... .. . ... : ... .. . ...
ROW 2A : D-3 1E . ... : ... .. . ... : C-3 14 . ... : D-# 19 . ... : C-3 14 . ...
ROW 2B : ... .. . ... : ... .. . ... : C-2 14 . ... : ... .. . ... : ... .. . ...
ROW 2C : C-3 1E . ... : D-3 25 . ... : ... .. . ... : F-# 1F . ... : E-3 14 . ...
ROW 2D : ... .. . ... : ... .. . ... : ... .. . ... : ... .. . ... : ... .. . ...
ROW 2E : ... .. . ... : C-3 25 . ... : C-3 14 . ... : F-# 1F . ... : ... .. . ...
ROW 2F : ... .. . ... : ... .. . ... : ... .. . ... : F-# 1F . ... : ... .. . ...
ROW 30 : D-3 1E . ... : ... .. . ... : A-2 14 . ... : F-# 1F . ... : C-3 14 . ...
ROW 31 : ... .. . ... : ... .. . ... : ... .. . ... : ... .. . ... : ... .. . ...
ROW 32 : ... .. . ... : D-3 25 . ... : A-3 14 . ... : D-# 19 . ... : ... .. . ...
ROW 33 : ... .. . ... : ... .. . ... : A-2 14 . ... : ... .. . ... : C-3 14 . ...
ROW 34 : ... .. . ... : ... .. . ... : ... .. . ... : F-# 1F . ... : E-3 14 . ...
ROW 35 : ... .. . ... : ... .. . ... : ... .. . ... : ... .. . ... : ... .. . ...
ROW 36 : E-3 1E . ... : ... .. . ... : A-3 14 . ... : D-# 19 . ... : D-3 14 . ...
ROW 37 : ... .. . ... : ... .. . ... : ... .. . ... : D-# 19 . ... : D-3 14 . ...
ROW 38 : ... .. . ... : E-3 25 . ... : A-2 14 . ... : F-# 1F . ... : ... .. . ...
ROW 39 : ... .. . ... : ... .. . ... : ... .. . ... : ... .. . ... : ... .. . ...
ROW 3A : ... .. . ... : ... .. . ... : A-3 14 . ... : D-# 19 . ... : C-3 14 . ...
ROW 3B : ... .. . ... : ... .. . ... : A-2 14 . ... : ... .. . ... : ... .. . ...
ROW 3C : A-3 1A . ... : ... .. . ... : ... .. . ... : F-# 1F . ... : E-3 14 . ...
ROW 3D : C-4 1A . ... : ... .. . ... : ... .. . ... : ... .. . ... : D-3 14 . ...
ROW 3E : E-4 1A . ... : A-2 1B . ... : A-3 14 . ... : F-# 1F . ... : D-3 14 . ...
ROW 3F : A-3 1A . ... : C-3 1B . ... : ... .. . ... : ... .. . ... : D-3 14 . ...

PATTERN 07
ROW 00 : F-1 1A . ... : F-1 1C . ... : F-2 14 . ... : F-# 1F . ... : C-3 14 . ...
ROW 01 : ... .. . ... : ... .. . ... : ... .. . ... : ... .. . ... : ... .. . ...
ROW 02 : A-3 1A . ... : A-3 1C . ... : F-3 14 . ... : D-# 19 . ... : ... .. . ...
ROW 03 : ... .. . ... : F-1 1D . ... : F-2 14 . ... : ... .. . ... : C-3 14 . ...
ROW 04 : A-3 1B . ... : A-3 1D . ... : ... .. . ... : F-# 1F . ... : E-3 14 . ...
ROW 05 : A-3 1A . ... : A-3 1C . ... : ... .. . ... : ... .. . ... : ... .. . ...
ROW 06 : ... .. . ... : ... .. . ... : F-3 14 . ... : D-# 19 . ... : D-3 14 . ...
ROW 07 : A-3 1B . ... : A-3 1D . ... : ... .. . ... : D-# 19 . ... : D-3 14 . ...
ROW 08 : G-3 1A . ... : G-3 1C . ... : F-2 14 . ... : F-# 1F . ... : ... .. . ...
ROW 09 : ... .. . ... : ... .. . ... : ... .. . ... : ... .. . ... : ... .. . ...
ROW 0A : A-3 1A . ... : A-3 1D . ... : F-3 14 . ... : D-# 19 . ... : C-3 14 . ...
ROW 0B : G-3 1B . ... : G-3 1C . ... : F-2 14 . ... : ... .. . ... : ... .. . ...
ROW 0C : G-3 1A . ... : G-3 1D . ... : ... .. . ... : F-# 1F . ... : E-3 14 . ...
ROW 0D : A-3 1B . ... : A-3 1C . ... : ... .. . ... : ... .. . ... : ... .. . ...
ROW 0E : A-3 1A . ... : A-3 1D . ... : F-3 14 . ... : F-# 1F . ... : ... .. . ...
ROW 0F : G-3 1B . ... : G-3 1C . ... : ... .. . ... : F-# 1F . ... : ... .. . ...
ROW 10 : G-1 1A . ... : G-1 1C . ... : G-2 14 . ... : F-# 1F . ... : C-3 14 . ...
ROW 11 : ... .. . ... : ... .. . ... : ... .. . ... : ... .. . ... : ... .. . ...
ROW 12 : C-3 1E . ... : E-3 25 . ... : G-3 14 . ... : D-# 19 . ... : ... .. . ...
ROW 13 : ... .. . ... : ... .. . ... : G-2 14 . ... : ... .. . ... : C-3 14 . ...
ROW 14 : ... .. . ... : ... .. . ... : ... .. . ... : F-# 1F . ... : E-3 14 . ...
ROW 15 : C-3 1E . ... : E-3 25 . ... : ... .. . ... : ... .. . ... : ... .. . ...
ROW 16 : ... .. . ... : ... .. . ... : G-3 14 . ... : D-# 19 . ... : D-3 14 . ...
ROW 17 : ... .. . ... : ... .. . ... : ... .. . ... : D-# 19 . ... : D-3 14 . ...
ROW 18 : B-2 1E . ... : D-3 25 . ... : G-2 14 . ... : F-# 1F . ... : ... .. . ...
ROW 19 : ... .. . ... : ... .. . ... : ... .. . ... : ... .. . ... : ... .. . ...
ROW 1A : C-3 1E . ... : E-3 25 . ... : G-3 14 . ... : D-# 19 . ... : C-3 14 . ...
ROW 1B : ... .. . ... : ... .. . ... : G-2 14 . ... : ... .. . ... : ... .. . ...
ROW 1C : B-2 1E . ... : D-3 25 . ... : ... .. . ... : F-# 1F . ... : E-3 14 . ...
ROW 1D : ... .. . ... : ... .. . ... : ... .. . ... : ... .. . ... : D-3 14 . ...
ROW 1E : C-3 1E . ... : E-3 25 . ... : G-3 14 . ... : F-# 1F . ... : D-3 14 . ...
ROW 1F : ... .. . ... : ... .. . ... : ... .. . ... : F-# 1F . ... : D-3 14 . ...
ROW 20 : ... .. . ... : ... .. . ... : C-3 14 . ... : F-# 1F . ... : C-3 14 . ...
ROW 21 : ... .. . ... : ... .. . ... : ... .. . ... : ... .. . ... : ... .. . ...
ROW 22 : ... .. . ... : ... .. . ... : C-4 14 . ... : D-# 19 . ... : ... .. . ...
ROW 23 : ... .. . ... : ... .. . ... : C-3 14 . ... : ... .. . ... : C-3 14 . ...
ROW 24 : ... .. . ... : ... .. . ... : ... .. . ... : F-# 1F . ... : E-3 14 . ...
ROW 25 : ... .. . ... : ... .. . ... : ... .. . ... : ... .. . ... : ... .. . ...
ROW 26 : ... .. . ... : ... .. . ... : C-4 14 . ... : D-# 19 . ... : D-3 14 . ...
ROW 27 : ... .. . ... : ... .. . ... : ... .. . ... : D-# 19 . ... : D-3 14 . ...
ROW 28 : ... .. . ... : ... .. . ... : C-3 14 . ... : F-# 1F . ... : ... .. . ...
ROW 29 : ... .. . ... : ... .. . ... : ... .. . ... : ... .. . ... : ... .. . ...
ROW 2A : ... .. . ... : ... .. . ... : C-4 14 . ... : D-# 19 . ... : C-3 14 . ...
ROW 2B : ... .. . ... : ... .. . ... : C-3 14 . ... : ... .. . ... : ... .. . ...
ROW 2C : ... .. . ... : ... .. . ... : ... .. . ... : F-# 1F . ... : E-3 14 . ...
ROW 2D : ... .. . ... : ... .. . ... : ... .. . ... : ... .. . ... : D-3 14 . ...
ROW 2E : ... .. . ... : ... .. . ... : C-4 14 . ... : F-# 1F . ... : D-3 14 . ...
ROW 2F : ... .. . ... : ... .. . ... : ... .. . ... : F-# 1F . ... : D-3 14 . ...
ROW 30 : ... .. . ... : ... .. . ... : C-3 14 . ... : D-# 17 . ... : E-3 14 . ...
ROW 31 : ... .. . ... : ... .. . ... : ... .. . ... : ... .. . ... : ... .. . ...
ROW 32 : ... .. . ... : ... .. . ... : ... .. . ... : ... .. . ... : ... .. . ...
ROW 33 : ... .. . ... : ... .. . ... : ... .. . ... : ... .. . ... : ... .. . ...
ROW 34 : ... .. . ... : ... .. . ... : ... .. . ... : ... .. . ... : ... .. . ...
ROW 35 : ... .. . ... : ... .. . ... : ... .. . ... : ... .. . ... : ... .. . ...
ROW 36 : ... .. . ... : ... .. . ... : ... .. . ... : ... .. . ... : ... .. . ...
ROW 37 : ... .. . ... : ... .. . ... : ... .. . ... : ... .. . ... : ... .. . ...
ROW 38 : ... .. . ... : ... .. . ... : ... .. . ... : ... .. . ... : ... .. . ...
ROW 39 : ... .. . ... : ... .. . ... : ... .. . ... : ... .. . ... : ... .. . ...
ROW 3A : ... .. . ... : ... .. . ... : ... .. . ... : ... .. . ... : ... .. . ...
ROW 3B : ... .. . ... : ... .. . ... : ... .. . ... : ... .. . ... : ... .. . ...
ROW 3C : ... .. . ... : ... .. . ... : ... .. . ... : ... .. . ... : ... .. . ...
ROW 3D : ... .. . ... : ... .. . ... : ... .. . ... : ... .. . ... : ... .. . ...
ROW 3E : ... .. . ... : ... .. . ... : ... .. . ... : ... .. . ... : ... .. . ...
ROW 3F : ... .. . ... : ... .. . ... : ... .. . ... : ... .. . ... : ... .. . ...

# End of export
